<svg width="22" height="22" viewBox="0 0 22 22" fill="none" xmlns="http://www.w3.org/2000/svg">
<path d="M9.94573 3.10864H2.98794C2.46071 3.10864 1.95506 3.31809 1.58225 3.6909C1.20944 4.06371 1 4.56935 1 5.09658V19.0122C1 19.5394 1.20944 20.045 1.58225 20.4178C1.95506 20.7907 2.46071 21.0001 2.98794 21.0001H16.9035C17.4307 21.0001 17.9364 20.7907 18.3092 20.4178C18.682 20.045 18.8915 19.5394 18.8915 19.0122V12.0544" stroke="" stroke-width="1.5" stroke-linecap="round" stroke-linejoin="round"/>
<path d="M17.4005 1.61757C17.796 1.22215 18.3323 1 18.8915 1C19.4507 1 19.987 1.22215 20.3825 1.61757C20.7779 2.013 21 2.54931 21 3.10853C21 3.66774 20.7779 4.20406 20.3825 4.59948L10.9397 14.0422L6.96387 15.0362L7.95784 11.0603L17.4005 1.61757Z" stroke="" stroke-width="1.5" stroke-linecap="round" stroke-linejoin="round"/>
</svg>
