<svg width="100%" height="auto" viewBox="0 0 1919 133" fill="none" xmlns="http://www.w3.org/2000/svg">
<path d="M1919 114.318L1873.16 111.021C1827.31 107.723 1735.63 101.128 1644.37 97.1707C1552.9 92.9937 1462.07 91.6746 1370.59 97.8302C1279.33 103.986 1187.65 118.056 1096.39 122.453C1004.92 126.849 914.084 121.573 822.612 110.361C731.352 98.9295 639.667 81.3421 548.408 85.2992C456.935 89.4763 366.103 114.978 274.63 125.75C183.371 136.303 91.6857 131.906 45.8429 129.707L0.000121633 127.509L0.000110492 0.000503545L45.8429 0.000499535C91.6857 0.000495526 183.371 0.000487506 274.63 0.000479524C366.103 0.000471523 456.935 0.000463578 548.408 0.000455577C639.667 0.000447595 731.352 0.000439575 822.612 0.000431593C914.084 0.000423592 1004.92 0.000415647 1096.39 0.000407646C1187.65 0.000399664 1279.33 0.000391644 1370.59 0.000383662C1462.07 0.000375661 1552.9 0.000367716 1644.37 0.000359715C1735.63 0.000351733 1827.31 0.000343713 1873.16 0.000339703L1919 0.000335693L1919 114.318Z" fill="#353A3E"/>
</svg>
