<svg width="100%" height="auto" viewBox="0 0 1920 201" fill="none" xmlns="http://www.w3.org/2000/svg">
<path fill-rule="evenodd" clip-rule="evenodd" d="M1920 201V0.731989L1880.11 32.7239L1879.98 32.8288C1840.25 64.6526 1760.55 128.501 1680.64 133.182C1629.92 136.154 1579.11 115.453 1528.33 94.7609C1499.01 82.8169 1469.7 70.8761 1440.43 63.4932C1360.43 43.5237 1280.64 57.7876 1200.64 86.3154C1174.89 95.4976 1149.12 106.158 1123.34 116.821C1069.03 139.287 1014.68 161.767 960.427 170.472C880.427 183.514 800.64 166.397 720.64 144.39C710.82 141.688 700.998 138.907 691.172 136.126C620.952 116.244 550.607 96.3281 480.427 105.266C446.578 109.577 412.767 120.6 378.963 131.621C332.872 146.648 286.791 161.671 240.64 159.673C160.64 156.208 80.4267 102.006 40.1067 74.7004L0 47.5991V201H1920Z" fill="white"/>
</svg>
