<svg width="100%" height="auto" viewBox="0 0 1919 445" fill="none" xmlns="http://www.w3.org/2000/svg">
<path d="M1919 360.542L1873.16 358.783C1827.31 356.805 1735.63 353.287 1644.37 348.011C1552.9 342.955 1462.07 336.359 1370.59 334.82C1279.33 333.501 1187.65 337.019 1096.39 340.316C1004.92 343.614 914.084 346.692 822.612 363.4C731.352 380.328 639.667 411.106 548.408 399.014C456.935 386.923 366.103 331.963 274.63 332.402C183.371 332.622 91.6857 388.462 45.8429 416.162L0.00012207 444.082L8.32677e-05 0.000686651L45.8429 0.000682641C91.6856 0.000678631 183.371 0.000670611 274.63 0.000662629C366.103 0.000654628 456.935 0.000646683 548.408 0.000638682C639.667 0.0006307 731.352 0.00062268 822.612 0.000614698C914.084 0.000606697 1004.92 0.000598752 1096.39 0.000590751C1187.65 0.000582769 1279.33 0.000574749 1370.59 0.000566767C1462.07 0.000558766 1552.9 0.000550821 1644.37 0.00054282C1735.63 0.000534838 1827.31 0.000526818 1873.16 0.000522809L1919 0.000518799L1919 360.542Z" fill="#1B1C1E"/>
</svg>
