<svg width="100%" height="auto" viewBox="0 0 1919 251" fill="none" xmlns="http://www.w3.org/2000/svg">
<path d="M1919 250.621L1873.16 241.168C1827.31 231.495 1735.63 212.588 1644.37 191.923C1552.9 171.478 1462.07 149.494 1370.59 140.26C1279.33 131.247 1187.65 134.764 1096.39 152.132C1004.92 169.28 914.084 200.057 822.612 205.554C731.352 211.05 639.667 191.264 548.408 174.776C456.935 158.287 366.103 145.097 274.63 156.529C183.371 167.741 91.6857 203.795 45.8429 221.602L0.00012111 239.629L0.000100172 0.000991826L45.8429 0.000987817C91.6856 0.000983807 183.371 0.000975787 274.63 0.000967805C366.103 0.000959804 456.935 0.000951859 548.408 0.000943858C639.667 0.000935876 731.352 0.000927856 822.612 0.000919874C914.084 0.000911873 1004.92 0.000903928 1096.39 0.000895927C1187.65 0.000887945 1279.33 0.000879925 1370.59 0.000871943C1462.07 0.000863942 1552.9 0.000855997 1644.37 0.000847996C1735.63 0.000840014 1827.31 0.000831994 1873.16 0.000827984L1919 0.000823975L1919 250.621Z" fill="#2C3033"/>
</svg>
