<svg width="100%" height="auto" viewBox="0 0 1919 325" fill="none" xmlns="http://www.w3.org/2000/svg">
<path d="M1919 303.383L1873.16 289.093C1827.31 274.803 1735.63 246.224 1644.37 250.62C1552.9 255.017 1462.07 292.391 1370.59 311.077C1279.33 329.764 1187.65 329.764 1096.39 306.021C1004.92 282.058 914.084 234.572 822.612 234.132C731.352 233.693 639.667 280.739 548.408 290.192C456.935 299.645 366.103 271.945 274.63 264.471C183.371 257.216 91.6857 270.406 45.8429 277.002L0.000118495 283.597L9.3715e-05 0.000350957L45.8429 0.000346947C91.6857 0.000342938 183.371 0.000334918 274.63 0.000326936C366.103 0.000318935 456.935 0.00031099 548.408 0.000302989C639.667 0.000295007 731.352 0.000286987 822.612 0.000279005C914.084 0.000271004 1004.92 0.000263059 1096.39 0.000255058C1187.65 0.000247076 1279.33 0.000239056 1370.59 0.000231074C1462.07 0.000223073 1552.9 0.000215128 1644.37 0.000207127C1735.63 0.000199145 1827.31 0.000191125 1873.16 0.000187115L1919 0.000183105L1919 303.383Z" fill="#232628"/>
</svg>
