<svg width="1920" height="890" viewBox="0 0 1920 890" fill="none" xmlns="http://www.w3.org/2000/svg">
<path d="M0 762.599L40.1067 789.7C80.4267 817.006 160.64 871.208 240.64 874.673C320.64 878.137 400.427 830.454 480.427 820.266C560.427 810.077 640.64 837.383 720.64 859.39C800.64 881.397 880.427 898.514 960.427 885.472C1040.43 872.635 1120.64 829.843 1200.64 801.315C1280.64 772.788 1360.43 758.524 1440.43 778.493C1520.43 798.666 1600.64 852.869 1680.64 848.182C1760.64 843.496 1840.43 779.512 1880.11 747.724L1920 715.732V0C1280 0 640 0 0 0L0 762.599Z" fill="#121314"/>
</svg>
