<svg width="100%" height="auto" viewBox="0 0 1919 489" fill="none" xmlns="http://www.w3.org/2000/svg">
<path d="M1919 419.899L1873.16 412.205C1827.31 404.51 1735.63 389.121 1644.37 408.248C1552.9 427.154 1462.07 480.796 1370.59 473.321C1279.33 466.066 1187.65 397.915 1096.39 387.363C1004.92 376.59 914.084 423.637 822.612 452.216C731.352 480.796 639.667 490.908 548.408 488.71C456.935 486.512 366.103 472.002 274.63 467.825C183.371 463.868 91.6857 470.463 45.8429 473.761L0.000121027 477.058L7.93429e-05 0.000473028L45.8429 0.000469018C91.6856 0.000465008 183.371 0.000456988 274.63 0.000449006C366.103 0.000441005 456.935 0.00043306 548.408 0.000425059C639.667 0.000417077 731.352 0.000409057 822.612 0.000401075C914.084 0.000393074 1004.92 0.000385129 1096.39 0.000377128C1187.65 0.000369146 1279.33 0.000361126 1370.59 0.000353144C1462.07 0.000345143 1552.9 0.000337198 1644.37 0.000329197C1735.63 0.000321215 1827.31 0.000313195 1873.16 0.000309186L1919 0.000305176L1919 419.899Z" fill="#121314"/>
</svg>
