<svg width="48" height="48" viewBox="0 0 48 48" fill="none" xmlns="http://www.w3.org/2000/svg">
<path d="M40.5 13.5H7.5C6.67157 13.5 6 14.1716 6 15V39C6 39.8284 6.67157 40.5 7.5 40.5H40.5C41.3284 40.5 42 39.8284 42 39V15C42 14.1716 41.3284 13.5 40.5 13.5Z" stroke="#C3C7CE" stroke-width="2" stroke-linecap="round" stroke-linejoin="round"/>
<path d="M31.5 13.5V10.5C31.5 9.70435 31.1839 8.94129 30.6213 8.37868C30.0587 7.81607 29.2956 7.5 28.5 7.5H19.5C18.7044 7.5 17.9413 7.81607 17.3787 8.37868C16.8161 8.94129 16.5 9.70435 16.5 10.5V13.5" stroke="#C3C7CE" stroke-width="2" stroke-linecap="round" stroke-linejoin="round"/>
<path d="M42 23.6813C36.5293 26.8452 30.3197 28.5075 24 28.5C17.6791 28.5165 11.4673 26.8535 6 23.6813" stroke="#C3C7CE" stroke-width="2" stroke-linecap="round" stroke-linejoin="round"/>
<path d="M21.75 22.5H26.25" stroke="#C3C7CE" stroke-width="2" stroke-linecap="round" stroke-linejoin="round"/>
</svg>
