<svg width="48" height="48" viewBox="0 0 48 48" fill="none" xmlns="http://www.w3.org/2000/svg">
<path d="M8.45628 36.7499C8.50426 36.9471 8.59128 37.1327 8.71218 37.2957C8.83309 37.4587 8.98544 37.5958 9.16022 37.6989C9.33501 37.8021 9.5287 37.8691 9.72983 37.8961C9.93097 37.9231 10.1355 37.9095 10.3313 37.8562C19.2694 35.3813 28.7119 35.3813 37.65 37.8562C37.8458 37.9095 38.0503 37.9231 38.2515 37.8961C38.4526 37.8691 38.6463 37.8021 38.8211 37.6989C38.9959 37.5958 39.1482 37.4587 39.2691 37.2957C39.39 37.1327 39.477 36.9471 39.525 36.7499L44.3063 16.4437C44.3719 16.1719 44.3603 15.8871 44.2727 15.6216C44.1851 15.3561 44.025 15.1203 43.8105 14.9409C43.5961 14.7615 43.3357 14.6457 43.0588 14.6064C42.782 14.5671 42.4997 14.606 42.2438 14.7187L32.7563 18.9374C32.4125 19.0888 32.0249 19.1074 31.6682 18.9897C31.3115 18.8719 31.0111 18.6262 30.825 18.2999L25.3125 8.36244C25.1828 8.12799 24.9927 7.93256 24.7618 7.79648C24.531 7.66039 24.268 7.58862 24 7.58862C23.7321 7.58862 23.469 7.66039 23.2382 7.79648C23.0074 7.93256 22.8172 8.12799 22.6875 8.36244L17.175 18.2999C16.9889 18.6262 16.6885 18.8719 16.3319 18.9897C15.9752 19.1074 15.5875 19.0888 15.2438 18.9374L5.75628 14.7187C5.50037 14.606 5.21806 14.5671 4.94121 14.6064C4.66437 14.6457 4.40401 14.7615 4.18952 14.9409C3.97504 15.1203 3.81496 15.3561 3.72736 15.6216C3.63977 15.8871 3.62813 16.1719 3.69378 16.4437L8.45628 36.7499Z" stroke="#132238" stroke-width="2.5" stroke-linecap="round" stroke-linejoin="round"/>
<path d="M18 30.3188C21.9884 29.8876 26.0116 29.8876 30 30.3188" stroke="#132238" stroke-width="2.5" stroke-linecap="round" stroke-linejoin="round"/>
</svg>
