<svg width="48" height="48" viewBox="0 0 48 48" fill="none" xmlns="http://www.w3.org/2000/svg">
<path d="M42 33.2437V14.7562C41.9986 14.4892 41.9267 14.2272 41.7918 13.9968C41.6568 13.7664 41.4635 13.5756 41.2312 13.4437L24.7312 4.16249C24.5089 4.03413 24.2567 3.96655 24 3.96655C23.7433 3.96655 23.4911 4.03413 23.2687 4.16249L6.76875 13.4437C6.53653 13.5756 6.34319 13.7664 6.20822 13.9968C6.07326 14.2272 6.00143 14.4892 6 14.7562V33.2437C6.00143 33.5108 6.07326 33.7727 6.20822 34.0032C6.34319 34.2336 6.53653 34.4244 6.76875 34.5562L23.2687 43.8375C23.4911 43.9659 23.7433 44.0334 24 44.0334C24.2567 44.0334 24.5089 43.9659 24.7312 43.8375L41.2312 34.5562C41.4635 34.4244 41.6568 34.2336 41.7918 34.0032C41.9267 33.7727 41.9986 33.5108 42 33.2437V33.2437Z" stroke="#132238" stroke-width="2.5" stroke-linecap="round" stroke-linejoin="round"/>
<path d="M33.1875 28.5938V18.8438L15 8.8125" stroke="#132238" stroke-width="2.5" stroke-linecap="round" stroke-linejoin="round"/>
<path d="M41.7936 13.9875L24.1686 24L6.20605 13.9875" stroke="#132238" stroke-width="2.5" stroke-linecap="round" stroke-linejoin="round"/>
<path d="M24.1687 24L24 44.025" stroke="#132238" stroke-width="2.5" stroke-linecap="round" stroke-linejoin="round"/>
</svg>
