<svg width="48" height="48" viewBox="0 0 48 48" fill="none" xmlns="http://www.w3.org/2000/svg">
<path d="M24 42C33.9411 42 42 33.9411 42 24C42 14.0589 33.9411 6 24 6C14.0589 6 6 14.0589 6 24C6 33.9411 14.0589 42 24 42Z" stroke="#132238" stroke-width="2.5" stroke-linecap="round" stroke-linejoin="round"/>
<path d="M24 30C28.1421 30 31.5 26.6421 31.5 22.5C31.5 18.3579 28.1421 15 24 15C19.8579 15 16.5 18.3579 16.5 22.5C16.5 26.6421 19.8579 30 24 30Z" stroke="#132238" stroke-width="2.5" stroke-linecap="round" stroke-linejoin="round"/>
<path d="M11.9624 37.3874C13.091 35.1645 14.8131 33.2974 16.9378 31.9933C19.0625 30.6891 21.5069 29.9988 23.9999 29.9988C26.4929 29.9988 28.9373 30.6891 31.062 31.9933C33.1867 33.2974 34.9088 35.1645 36.0374 37.3874" stroke="#132238" stroke-width="2.5" stroke-linecap="round" stroke-linejoin="round"/>
</svg>
