<svg width="42" height="42" viewBox="0 0 42 42" fill="none" xmlns="http://www.w3.org/2000/svg">
<path d="M20.502 33.4004C24.9202 33.4004 28.502 29.8187 28.502 25.4004C28.502 20.9821 24.9202 17.4004 20.502 17.4004C16.0837 17.4004 12.502 20.9821 12.502 25.4004C12.502 29.8187 16.0837 33.4004 20.502 33.4004Z" stroke="#008AFF" stroke-width="2" stroke-miterlimit="10" stroke-linecap="round" stroke-linejoin="round"/>
<path d="M21.002 22.9004V24.7604C21.002 25.4604 20.642 26.1204 20.022 26.4804L18.502 27.4004" stroke="#008AFF" stroke-width="2" stroke-miterlimit="10" stroke-linecap="round" stroke-linejoin="round"/>
<path d="M12.5016 41H28.5016C36.5416 41 37.9816 37.78 38.4016 33.86L39.9016 17.86C40.4416 12.98 39.0416 9 30.5016 9H10.5016C1.96161 9 0.561606 12.98 1.10161 17.86L2.60161 33.86C3.02161 37.78 4.46161 41 12.5016 41Z" stroke="#008AFF" stroke-width="2" stroke-miterlimit="10" stroke-linecap="round" stroke-linejoin="round"/>
<path d="M12.502 9V7.4C12.502 3.86 12.502 1 18.902 1H22.102C28.502 1 28.502 3.86 28.502 7.4V9" stroke="#008AFF" stroke-width="2" stroke-miterlimit="10" stroke-linecap="round" stroke-linejoin="round"/>
<path d="M39.8015 19C36.3415 21.52 32.5015 23.28 28.5215 24.28" stroke="#008AFF" stroke-width="2" stroke-miterlimit="10" stroke-linecap="round" stroke-linejoin="round"/>
<path d="M1.74219 19.54C5.08219 21.82 8.72219 23.44 12.5022 24.36" stroke="#008AFF" stroke-width="2" stroke-miterlimit="10" stroke-linecap="round" stroke-linejoin="round"/>
</svg>
