<svg width="43" height="43" viewBox="0 0 43 43" fill="none" xmlns="http://www.w3.org/2000/svg">
<path d="M40.9887 22.9938V14.996C40.9887 4.99887 36.9898 1 26.9926 1H14.996C4.99887 1 1 4.99887 1 14.996V26.9926C1 36.9898 4.99887 40.9887 14.996 40.9887H22.9938" stroke="#008AFF" stroke-width="2" stroke-linecap="round" stroke-linejoin="round"/>
<path d="M11.6572 25.9725L16.4159 19.7942C17.0957 18.9144 18.3553 18.7545 19.2351 19.4343L22.8941 22.3135C23.7738 22.9933 25.0334 22.8333 25.7132 21.9736L30.332 16.0153" stroke="#008AFF" stroke-width="2" stroke-linecap="round" stroke-linejoin="round"/>
<path d="M35.9506 28.632L36.5104 29.7717C36.7903 30.3315 37.4901 30.8514 38.1099 30.9714L38.8697 31.0913C41.1491 31.4712 41.6889 33.1507 40.0494 34.8103L39.3496 35.5101C38.8897 35.9899 38.6298 36.9097 38.7698 37.5495L38.8697 37.9694C39.4896 40.7286 38.03 41.7883 35.6307 40.3487L35.1108 40.0488C34.491 39.6889 33.4913 39.6889 32.8714 40.0488L32.3516 40.3487C29.9322 41.8083 28.4727 40.7286 29.1125 37.9694L29.2124 37.5495C29.3524 36.9097 29.0925 35.9899 28.6326 35.5101L27.9328 34.8103C26.2933 33.1507 26.8331 31.4712 29.1125 31.0913L29.8723 30.9714C30.4721 30.8714 31.1919 30.3315 31.4718 29.7717L32.0316 28.632C33.1113 26.4527 34.8709 26.4527 35.9506 28.632Z" stroke="#008AFF" stroke-width="2" stroke-linecap="round" stroke-linejoin="round"/>
</svg>
