<svg width="30" height="30" viewBox="0 0 30 30" fill="none" xmlns="http://www.w3.org/2000/svg">
<path d="M22.5 10H23.75C25.0761 10 26.3479 10.5268 27.2855 11.4645C28.2232 12.4021 28.75 13.6739 28.75 15C28.75 16.3261 28.2232 17.5979 27.2855 18.5355C26.3479 19.4732 25.0761 20 23.75 20H22.5" stroke="white" stroke-width="2" stroke-linecap="round" stroke-linejoin="round"/>
<path d="M2.5 10H22.5V21.25C22.5 22.5761 21.9732 23.8479 21.0355 24.7855C20.0979 25.7232 18.8261 26.25 17.5 26.25H7.5C6.17392 26.25 4.90215 25.7232 3.96447 24.7855C3.02678 23.8479 2.5 22.5761 2.5 21.25V10Z" stroke="white" stroke-width="2" stroke-linecap="round" stroke-linejoin="round"/>
<path d="M7.5 1.25V5" stroke="white" stroke-width="2" stroke-linecap="round" stroke-linejoin="round"/>
<path d="M12.5 1.25V5" stroke="white" stroke-width="2" stroke-linecap="round" stroke-linejoin="round"/>
<path d="M17.5 1.25V5" stroke="white" stroke-width="2" stroke-linecap="round" stroke-linejoin="round"/>
</svg>
