<svg width="24" height="24" viewBox="0 0 24 24" fill="none" xmlns="http://www.w3.org/2000/svg">
<path d="M14.9438 3.75C16.216 4.09141 17.3759 4.76142 18.3073 5.69279C19.2387 6.62416 19.9087 7.78412 20.2501 9.05625" stroke="white" stroke-width="1.5" stroke-linecap="round" stroke-linejoin="round"/>
<path d="M14.1655 6.64685C14.9306 6.85005 15.6284 7.2519 16.1882 7.81167C16.748 8.37144 17.1498 9.06924 17.353 9.83435" stroke="white" stroke-width="1.5" stroke-linecap="round" stroke-linejoin="round"/>
<path d="M8.67187 11.7C9.44364 13.2937 10.7324 14.5792 12.3281 15.3468C12.4458 15.4026 12.576 15.4267 12.7059 15.4168C12.8358 15.407 12.9608 15.3635 13.0687 15.2906L15.4125 13.725C15.516 13.6547 15.6357 13.6119 15.7603 13.6004C15.8849 13.5889 16.0104 13.6092 16.125 13.6593L20.5125 15.5437C20.6625 15.6061 20.7877 15.7161 20.869 15.8567C20.9504 15.9973 20.9832 16.1607 20.9625 16.3218C20.8234 17.4072 20.2937 18.4047 19.4723 19.1278C18.6509 19.8508 17.5943 20.2497 16.5 20.25C13.1185 20.25 9.87548 18.9067 7.48439 16.5156C5.0933 14.1245 3.75 10.8815 3.75 7.49997C3.75025 6.40572 4.1492 5.34905 4.87221 4.52768C5.59522 3.70631 6.59274 3.17653 7.67812 3.03747C7.83922 3.01678 8.00266 3.04961 8.14326 3.13093C8.28386 3.21224 8.39384 3.33752 8.45625 3.48747L10.3406 7.88434C10.3896 7.99717 10.4101 8.12032 10.4003 8.24293C10.3905 8.36555 10.3507 8.48387 10.2844 8.58747L8.71875 10.9687C8.64905 11.0764 8.60814 11.2002 8.59993 11.3282C8.59172 11.4563 8.61649 11.5842 8.67187 11.7V11.7Z" stroke="white" stroke-width="1.5" stroke-linecap="round" stroke-linejoin="round"/>
</svg>
