<svg width="28" height="28" viewBox="0 0 28 28" fill="none" xmlns="http://www.w3.org/2000/svg">
<path d="M23.333 2.33325H4.66634C3.37768 2.33325 2.33301 3.37792 2.33301 4.66658V9.33325C2.33301 10.6219 3.37768 11.6666 4.66634 11.6666H23.333C24.6217 11.6666 25.6663 10.6219 25.6663 9.33325V4.66658C25.6663 3.37792 24.6217 2.33325 23.333 2.33325Z" stroke="#008AFF" stroke-width="2" stroke-linecap="round" stroke-linejoin="round"/>
<path d="M23.333 16.3333H4.66634C3.37768 16.3333 2.33301 17.3779 2.33301 18.6666V23.3333C2.33301 24.6219 3.37768 25.6666 4.66634 25.6666H23.333C24.6217 25.6666 25.6663 24.6219 25.6663 23.3333V18.6666C25.6663 17.3779 24.6217 16.3333 23.333 16.3333Z" stroke="#008AFF" stroke-width="2" stroke-linecap="round" stroke-linejoin="round"/>
<path d="M7 7H7.01167" stroke="#008AFF" stroke-width="2" stroke-linecap="round" stroke-linejoin="round"/>
<path d="M7 21H7.01167" stroke="#008AFF" stroke-width="2" stroke-linecap="round" stroke-linejoin="round"/>
</svg>
