<?xml version="1.0" encoding="utf-8"?>
<!-- Generator: Adobe Illustrator 24.1.2, SVG Export Plug-In . SVG Version: 6.00 Build 0)  -->
<svg version="1.1" id="Warstwa_3" xmlns="http://www.w3.org/2000/svg" xmlns:xlink="http://www.w3.org/1999/xlink" x="0px" y="0px"
	 viewBox="0 0 430 430" style="enable-background:new 0 0 430 430;" xml:space="preserve">
<style type="text/css">
	.st0{fill:#121314;}
	.st1{fill:#5e6971;}
	.st2{fill:none;stroke:#5e6971;stroke-width:12.95;stroke-linecap:round;stroke-linejoin:round;stroke-miterlimit:14.8;}
	.st3{fill:none;}
</style>
<g>
	<path class="st0" d="M277.03,252.16C277.03,252.16,277.03,252.16,277.03,252.16c-9.49,0-18.41-3.7-25.11-10.41l-103.7-103.9
		c-2.41-2.41-2.4-6.32,0.01-8.72c2.41-2.41,6.31-2.4,8.72,0.01l103.7,103.9c4.37,4.38,10.19,6.79,16.38,6.79
		c6.19,0,12.01-2.41,16.38-6.79l103.69-103.87c2.41-2.41,6.31-2.41,8.72-0.01c2.41,2.41,2.41,6.31,0.01,8.72L302.13,241.75
		C295.43,248.46,286.52,252.16,277.03,252.16z"/>
	<path class="st0" d="M403.46,304.83H150.8c-3.41,0-6.17-2.76-6.17-6.17V131.33c0-1.64,0.65-3.2,1.81-4.36
		c1.16-1.16,2.73-1.81,4.36-1.81h0l252.65,0.02c3.41,0,6.17,2.76,6.17,6.17v167.31C409.62,302.07,406.86,304.83,403.46,304.83z
		 M156.97,292.5h240.32V137.52l-240.32-0.02V292.5z"/>
	<path class="st0" d="M399.62,284.85c-1.44,0-2.88-0.5-4.05-1.52l-62.43-54.35c-4.36-3.8-9.24-7.15-14.51-9.96
		c-3.01-1.6-4.14-5.34-2.54-8.34c1.6-3,5.34-4.14,8.34-2.54c6.1,3.25,11.75,7.13,16.81,11.54l62.43,54.35
		c2.57,2.24,2.84,6.13,0.6,8.7C403.06,284.14,401.35,284.85,399.62,284.85z M155.9,283.79c-1.73,0-3.44-0.72-4.66-2.13
		c-2.23-2.57-1.95-6.47,0.62-8.7l61.59-53.4c4.94-4.29,10.43-8.07,16.31-11.24c3-1.62,6.74-0.5,8.35,2.5c1.62,3,0.49,6.74-2.5,8.35
		c-5.09,2.74-9.83,6-14.08,9.7l-61.59,53.4C158.77,283.3,157.33,283.79,155.9,283.79z"/>
	<path class="st0" d="M107.39,303.9H26.54c-3.58,0-6.48-2.9-6.48-6.47s2.9-6.47,6.48-6.47h80.85c3.58,0,6.48,2.9,6.48,6.47
		S110.97,303.9,107.39,303.9z M107.59,262.65H26.75c-3.58,0-6.48-2.9-6.48-6.47s2.9-6.47,6.48-6.47h80.85c3.58,0,6.48,2.9,6.48,6.47
		S111.17,262.65,107.59,262.65z M107.59,220.9H26.75c-3.58,0-6.48-2.9-6.48-6.48c0-3.58,2.9-6.48,6.48-6.48h80.85
		c3.58,0,6.48,2.9,6.48,6.48C114.07,218,111.17,220.9,107.59,220.9z M107.44,179.65H26.6c-3.58,0-6.48-2.9-6.48-6.48
		s2.9-6.48,6.48-6.48h80.84c3.58,0,6.48,2.9,6.48,6.48S111.02,179.65,107.44,179.65z M107.44,137.9H26.6c-3.58,0-6.48-2.9-6.48-6.48
		s2.9-6.48,6.48-6.48h80.84c3.58,0,6.48,2.9,6.48,6.48S111.02,137.9,107.44,137.9z"/>
</g>
</svg>
