<svg width="48" height="48" viewBox="0 0 48 48" fill="none" xmlns="http://www.w3.org/2000/svg">
<path d="M7.10496 38.9813L17.1925 11.2125C17.2788 10.9749 17.4238 10.763 17.614 10.5964C17.8042 10.4298 18.0335 10.314 18.2804 10.2598C18.5273 10.2055 18.784 10.2146 19.0265 10.2861C19.269 10.3576 19.4895 10.4892 19.6675 10.6688L37.33 28.3313C37.5095 28.5093 37.6411 28.7298 37.7126 28.9723C37.7841 29.2148 37.7932 29.4714 37.7389 29.7183C37.6847 29.9653 37.5689 30.1945 37.4023 30.3847C37.2358 30.5749 37.0238 30.7199 36.7862 30.8063L9.01746 40.8938C8.75031 40.9959 8.4593 41.0185 8.17959 40.9588C7.89987 40.8992 7.64341 40.7598 7.44117 40.5576C7.23894 40.3553 7.09957 40.0989 7.03991 39.8191C6.98025 39.5394 7.00284 39.2484 7.10496 38.9813V38.9813Z" stroke="#132238" stroke-width="2.5" stroke-linecap="round" stroke-linejoin="round"/>
<path d="M31.4995 13.5C31.4995 13.5 31.4995 9 35.9995 9C40.4995 9 40.4995 4.5 40.4995 4.5" stroke="#132238" stroke-width="2.5" stroke-linecap="round" stroke-linejoin="round"/>
<path d="M19.1993 37.2L10.7993 28.8" stroke="#132238" stroke-width="2.5" stroke-linecap="round" stroke-linejoin="round"/>
<path d="M26.9985 3V7.5" stroke="#132238" stroke-width="2.5" stroke-linecap="round" stroke-linejoin="round"/>
<path d="M40.5015 21L43.5015 24" stroke="#132238" stroke-width="2.5" stroke-linecap="round" stroke-linejoin="round"/>
<path d="M40.5015 15L45.0015 13.5" stroke="#132238" stroke-width="2.5" stroke-linecap="round" stroke-linejoin="round"/>
<path d="M14.4019 18.8999L29.1019 33.5999" stroke="#132238" stroke-width="2.5" stroke-linecap="round" stroke-linejoin="round"/>
</svg>
