<svg width="40" height="40" viewBox="0 0 40 40" fill="none" xmlns="http://www.w3.org/2000/svg">
<path fill-rule="evenodd" clip-rule="evenodd" d="M17.9 8.7499C11.825 12.6499 8.875 16.6749 8.875 23.3999C9.275 23.2749 9.625 23.2749 9.975 23.2749C13.15 23.2749 16.225 25.4249 16.225 29.2999C16.225 33.3249 13.65 35.8249 9.975 35.8249C5.225 35.8249 2.5 32.0249 2.5 25.1999C2.5 15.6999 6.875 8.8749 15.05 4.1499L17.9 8.7499ZM35.4 8.7499C29.325 12.6499 26.375 16.6749 26.375 23.3999C26.775 23.2749 27.125 23.2749 27.475 23.2749C30.65 23.2749 33.725 25.4249 33.725 29.2999C33.725 33.3249 31.15 35.8249 27.475 35.8249C22.75 35.8249 20.025 32.0249 20.025 25.1999C20.025 15.6999 24.4 8.8749 32.575 4.1499L35.425 8.7499H35.4Z" fill="#C3C7CE"/>
</svg>
