<svg width="56" height="40" viewBox="0 0 56 40" fill="none" xmlns="http://www.w3.org/2000/svg">
<path d="M43.2392 22.6833C40.6717 22.6833 38.2658 21.6011 36.0799 19.8394L36.6122 17.3524L36.6353 17.2602C37.1093 14.6122 38.6129 10.1675 43.2392 10.1675C46.7087 10.1675 49.5309 12.977 49.5309 16.4311C49.5192 19.8738 46.6973 22.6833 43.2392 22.6833ZM43.2392 3.82341C37.329 3.82341 32.7493 7.64608 30.8874 13.9327C28.0421 9.68397 25.8908 4.58339 24.6303 0.288574H18.2692V16.765C18.2692 20.012 15.6091 22.66 12.3476 22.66C9.08604 22.66 6.42621 20.012 6.42621 16.765V0.288574H0.0645257V16.765C0.0413833 23.5124 5.55822 29.0504 12.3355 29.0504C19.1132 29.0504 24.63 23.5124 24.63 16.765V14.0018C25.8673 16.5693 27.3824 19.1599 29.2214 21.4629L25.3237 39.7007H31.8353L34.6571 26.4713C37.1321 28.0487 39.9774 29.0391 43.2389 29.0391C50.2128 29.0391 55.8916 23.3512 55.8916 16.4081C55.8916 9.47662 50.2128 3.82341 43.2389 3.82341H43.2392Z" fill="#424E60"/>
</svg>
