<svg width="20" height="20" viewBox="0 0 20 20" fill="none" xmlns="http://www.w3.org/2000/svg">
<path fill-rule="evenodd" clip-rule="evenodd" d="M19.8553 9.99551C19.8553 4.55039 15.4411 0.13623 9.996 0.13623C4.55088 0.13623 0.136719 4.55039 0.136719 9.99551C0.136719 15.4406 4.55088 19.8548 9.996 19.8548C9.33292 19.8548 8.68531 19.7889 8.0589 19.664V12.157H6.45096V9.47646H8.0589V7.86737C8.0589 5.68058 8.96665 4.38041 11.5461 4.38041H13.6935V7.06116H12.3512C11.3471 7.06116 11.2806 7.43556 11.2806 8.13464L11.277 9.47625H13.7086L13.424 12.1565H11.277V19.772C10.9011 19.8208 10.5228 19.8481 10.1438 19.8537C15.5208 19.7747 19.8553 15.3913 19.8553 9.99551Z" fill="white"/>
</svg>
