<svg width="72" height="72" viewBox="0 0 72 72" fill="none" xmlns="http://www.w3.org/2000/svg">
<rect width="72" height="72" rx="36" fill="white"/>
<path d="M45.3844 35.3625L31.8937 27.1125C31.7802 27.0425 31.65 27.004 31.5166 27.001C31.3832 26.9981 31.2514 27.0308 31.1349 27.0957C31.0183 27.1607 30.9212 27.2556 30.8535 27.3706C30.7859 27.4856 30.7501 27.6166 30.75 27.75V44.25C30.7501 44.3835 30.7859 44.5144 30.8535 44.6295C30.9212 44.7445 31.0183 44.8393 31.1349 44.9043C31.2514 44.9693 31.3832 45.002 31.5166 44.999C31.65 44.9961 31.7802 44.9576 31.8937 44.8875L45.3844 36.6375C45.4952 36.572 45.5869 36.4788 45.6507 36.367C45.7145 36.2552 45.748 36.1287 45.748 36C45.748 35.8713 45.7145 35.7449 45.6507 35.6331C45.5869 35.5213 45.4952 35.428 45.3844 35.3625Z" fill="#1777E5" stroke="#1777E5" stroke-width="1.5" stroke-linecap="round" stroke-linejoin="round"/>
</svg>
