<svg width="40" height="40" viewBox="0 0 40 40" fill="none" xmlns="http://www.w3.org/2000/svg">
<path d="M6.25 35H33.75" stroke="#1777E5" stroke-width="2" stroke-linecap="round" stroke-linejoin="round"/>
<path d="M17.5003 21.25L14.719 8.28125C14.6025 7.7344 14.6098 7.16843 14.7403 6.62475C14.8708 6.08107 15.1212 5.57346 15.4732 5.13906C15.8252 4.70466 16.2699 4.35448 16.7748 4.11414C17.2796 3.8738 17.8318 3.74938 18.3909 3.75H21.6096C22.1687 3.74938 22.7209 3.8738 23.2258 4.11414C23.7306 4.35448 24.1753 4.70466 24.5273 5.13906C24.8793 5.57346 25.1297 6.08107 25.2602 6.62475C25.3907 7.16843 25.398 7.7344 25.2815 8.28125L22.5003 21.25" stroke="#1777E5" stroke-width="2" stroke-linecap="round" stroke-linejoin="round"/>
<path d="M32.5 21.25H7.5C6.80964 21.25 6.25 21.8096 6.25 22.5V28.75C6.25 29.4404 6.80964 30 7.5 30H32.5C33.1904 30 33.75 29.4404 33.75 28.75V22.5C33.75 21.8096 33.1904 21.25 32.5 21.25Z" stroke="#1777E5" stroke-width="2" stroke-linecap="round" stroke-linejoin="round"/>
</svg>
