<svg width="193" height="299" viewBox="0 0 193 299" fill="none" xmlns="http://www.w3.org/2000/svg">
<path d="M187.69 0H189.46V3.54H193V5.31H189.46V8.85H187.69V5.31H184.15V3.54H187.69V0Z" fill="#DEE7EE"/>
<path d="M157 0H158.77V3.54H162.31V5.31H158.77V8.85H157V5.31H153.46V3.54H157V0Z" fill="#DEE7EE"/>
<path d="M126.31 0H128.08V3.54H131.62V5.31H128.08V8.85H126.31V5.31H122.76V3.54H126.31V0Z" fill="#DEE7EE"/>
<path d="M95.6097 0H97.3897V3.54H100.93V5.31H97.3897V8.85H95.6097V5.31H92.0697V3.54H95.6097V0Z" fill="#DEE7EE"/>
<path d="M64.9202 0H66.6902V3.54H70.2402V5.31H66.6902V8.85H64.9202V5.31H61.3802V3.54H64.9202V0Z" fill="#DEE7EE"/>
<path d="M34.23 0H36V3.54H39.54V5.31H36V8.85H34.23V5.31H30.69V3.54H34.23V0Z" fill="#DEE7EE"/>
<path d="M3.5396 3.54V0H5.3096V3.54H8.84961V5.31H5.3096V8.85H3.5396V5.31H-0.000396729V3.54H3.5396Z" fill="#DEE7EE"/>
<path d="M187.69 28.9199H189.46V32.4599H193V34.2299H189.46V37.7699H187.69V34.2299H184.15V32.4599H187.69V28.9199Z" fill="#DEE7EE"/>
<path d="M157 28.9199H158.77V32.4599H162.31V34.2299H158.77V37.7699H157V34.2299H153.46V32.4599H157V28.9199Z" fill="#DEE7EE"/>
<path d="M126.31 28.9199H128.08V32.4599H131.62V34.2299H128.08V37.7699H126.31V34.2299H122.76V32.4599H126.31V28.9199Z" fill="#DEE7EE"/>
<path d="M95.6097 28.9199H97.3897V32.4599H100.93V34.2299H97.3897V37.7699H95.6097V34.2299H92.0697V32.4599H95.6097V28.9199Z" fill="#DEE7EE"/>
<path d="M64.9202 28.9199H66.6902V32.4599H70.2402V34.2299H66.6902V37.7699H64.9202V34.2299H61.3802V32.4599H64.9202V28.9199Z" fill="#DEE7EE"/>
<path d="M34.23 28.9199H36V32.4599H39.54V34.2299H36V37.7699H34.23V34.2299H30.69V32.4599H34.23V28.9199Z" fill="#DEE7EE"/>
<path d="M3.5396 28.9199H5.3096V32.4599H8.84961V34.2299H5.3096V37.7699H3.5396V34.2299H-0.000396729V32.4599H3.5396V28.9199Z" fill="#DEE7EE"/>
<path d="M187.69 57.8401H189.46V61.3801H193V63.1501H189.46V66.6901H187.69V63.1501H184.15V61.3801H187.69V57.8401Z" fill="#DEE7EE"/>
<path d="M157 57.8401H158.77V61.3801H162.31V63.1501H158.77V66.6901H157V63.1501H153.46V61.3801H157V57.8401Z" fill="#DEE7EE"/>
<path d="M126.31 57.8401H128.08V61.3801H131.62V63.1501H128.08V66.6901H126.31V63.1501H122.76V61.3801H126.31V57.8401Z" fill="#DEE7EE"/>
<path d="M95.6097 57.8401H97.3897V61.3801H100.93V63.1501H97.3897V66.6901H95.6097V63.1501H92.0697V61.3801H95.6097V57.8401Z" fill="#DEE7EE"/>
<path d="M64.9202 57.8401H66.6902V61.3801H70.2402V63.1501H66.6902V66.6901H64.9202V63.1501H61.3802V61.3801H64.9202V57.8401Z" fill="#DEE7EE"/>
<path d="M34.23 57.8401H36V61.3801H39.54V63.1501H36V66.6901H34.23V63.1501H30.69V61.3801H34.23V57.8401Z" fill="#DEE7EE"/>
<path d="M3.5396 57.8401H5.3096V61.3801H8.84961V63.1501H5.3096V66.6901H3.5396V63.1501H-0.000396729V61.3801H3.5396V57.8401Z" fill="#DEE7EE"/>
<path d="M187.69 86.76H189.46V90.3H193V92.07H189.46V95.61H187.69V92.07H184.15V90.3H187.69V86.76Z" fill="#DEE7EE"/>
<path d="M157 86.76H158.77V90.3H162.31V92.07H158.77V95.61H157V92.07H153.46V90.3H157V86.76Z" fill="#DEE7EE"/>
<path d="M126.31 86.76H128.08V90.3H131.62V92.07H128.08V95.61H126.31V92.07H122.76V90.3H126.31V86.76Z" fill="#DEE7EE"/>
<path d="M95.6097 86.76H97.3897V90.3H100.93V92.07H97.3897V95.61H95.6097V92.07H92.0697V90.3H95.6097V86.76Z" fill="#DEE7EE"/>
<path d="M64.9202 86.76H66.6902V90.3H70.2402V92.07H66.6902V95.61H64.9202V92.07H61.3802V90.3H64.9202V86.76Z" fill="#DEE7EE"/>
<path d="M34.23 86.76H36V90.3H39.54V92.07H36V95.61H34.23V92.07H30.69V90.3H34.23V86.76Z" fill="#DEE7EE"/>
<path d="M3.5396 86.76H5.3096V90.3H8.84961V92.07H5.3096V95.61H3.5396V92.07H-0.000396729V90.3H3.5396V86.76Z" fill="#DEE7EE"/>
<path d="M187.69 115.68H189.46V119.22H193V120.99H189.46V124.54H187.69V120.99H184.15V119.22H187.69V115.68Z" fill="#DEE7EE"/>
<path d="M157 115.68H158.77V119.22H162.31V120.99H158.77V124.54H157V120.99H153.46V119.22H157V115.68Z" fill="#DEE7EE"/>
<path d="M126.31 115.68H128.08V119.22H131.62V120.99H128.08V124.54H126.31V120.99H122.76V119.22H126.31V115.68Z" fill="#DEE7EE"/>
<path d="M95.6097 115.68H97.3897V119.22H100.93V120.99H97.3897V124.54H95.6097V120.99H92.0697V119.22H95.6097V115.68Z" fill="#DEE7EE"/>
<path d="M64.9202 115.68H66.6902V119.22H70.2402V120.99H66.6902V124.54H64.9202V120.99H61.3802V119.22H64.9202V115.68Z" fill="#DEE7EE"/>
<path d="M34.23 115.68H36V119.22H39.54V120.99H36V124.54H34.23V120.99H30.69V119.22H34.23V115.68Z" fill="#DEE7EE"/>
<path d="M3.5396 115.68H5.3096V119.22H8.84961V120.99H5.3096V124.54H3.5396V120.99H-0.000396729V119.22H3.5396V115.68Z" fill="#DEE7EE"/>
<path d="M187.69 144.6H189.46V148.14H193V149.91H189.46V153.46H187.69V149.91H184.15V148.14H187.69V144.6Z" fill="#DEE7EE"/>
<path d="M157 144.6H158.77V148.14H162.31V149.91H158.77V153.46H157V149.91H153.46V148.14H157V144.6Z" fill="#DEE7EE"/>
<path d="M126.31 144.6H128.08V148.14H131.62V149.91H128.08V153.46H126.31V149.91H122.76V148.14H126.31V144.6Z" fill="#DEE7EE"/>
<path d="M95.6097 144.6H97.3897V148.14H100.93V149.91H97.3897V153.46H95.6097V149.91H92.0697V148.14H95.6097V144.6Z" fill="#DEE7EE"/>
<path d="M64.9202 144.6H66.6902V148.14H70.2402V149.91H66.6902V153.46H64.9202V149.91H61.3802V148.14H64.9202V144.6Z" fill="#DEE7EE"/>
<path d="M34.23 144.6H36V148.14H39.54V149.91H36V153.46H34.23V149.91H30.69V148.14H34.23V144.6Z" fill="#DEE7EE"/>
<path d="M3.5396 144.6H5.3096V148.14H8.84961V149.91H5.3096V153.46H3.5396V149.91H-0.000396729V148.14H3.5396V144.6Z" fill="#DEE7EE"/>
<path d="M187.69 173.52H189.46V177.06H193V178.83H189.46V182.38H187.69V178.83H184.15V177.06H187.69V173.52Z" fill="#DEE7EE"/>
<path d="M157 173.52H158.77V177.06H162.31V178.83H158.77V182.38H157V178.83H153.46V177.06H157V173.52Z" fill="#DEE7EE"/>
<path d="M126.31 173.52H128.08V177.06H131.62V178.83H128.08V182.38H126.31V178.83H122.76V177.06H126.31V173.52Z" fill="#DEE7EE"/>
<path d="M95.6097 173.52H97.3897V177.06H100.93V178.83H97.3897V182.38H95.6097V178.83H92.0697V177.06H95.6097V173.52Z" fill="#DEE7EE"/>
<path d="M64.9202 173.52H66.6902V177.06H70.2402V178.83H66.6902V182.38H64.9202V178.83H61.3802V177.06H64.9202V173.52Z" fill="#DEE7EE"/>
<path d="M34.23 173.52H36V177.06H39.54V178.83H36V182.38H34.23V178.83H30.69V177.06H34.23V173.52Z" fill="#DEE7EE"/>
<path d="M3.5396 173.52H5.3096V177.06H8.84961V178.83H5.3096V182.38H3.5396V178.83H-0.000396729V177.06H3.5396V173.52Z" fill="#DEE7EE"/>
<path d="M187.69 202.44H189.46V205.98H193V207.76H189.46V211.3H187.69V207.76H184.15V205.98H187.69V202.44Z" fill="#DEE7EE"/>
<path d="M157 202.44H158.77V205.98H162.31V207.76H158.77V211.3H157V207.76H153.46V205.98H157V202.44Z" fill="#DEE7EE"/>
<path d="M126.31 202.44H128.08V205.98H131.62V207.76H128.08V211.3H126.31V207.76H122.76V205.98H126.31V202.44Z" fill="#DEE7EE"/>
<path d="M95.6097 202.44H97.3897V205.98H100.93V207.76H97.3897V211.3H95.6097V207.76H92.0697V205.98H95.6097V202.44Z" fill="#DEE7EE"/>
<path d="M64.9202 202.44H66.6902V205.98H70.2402V207.76H66.6902V211.3H64.9202V207.76H61.3802V205.98H64.9202V202.44Z" fill="#DEE7EE"/>
<path d="M34.23 202.44H36V205.98H39.54V207.76H36V211.3H34.23V207.76H30.69V205.98H34.23V202.44Z" fill="#DEE7EE"/>
<path d="M3.5396 202.44H5.3096V205.98H8.84961V207.76H5.3096V211.3H3.5396V207.76H-0.000396729V205.98H3.5396V202.44Z" fill="#DEE7EE"/>
<path d="M187.69 231.36H189.46V234.91H193V236.68H189.46V240.22H187.69V236.68H184.15V234.91H187.69V231.36Z" fill="#DEE7EE"/>
<path d="M157 231.36H158.77V234.91H162.31V236.68H158.77V240.22H157V236.68H153.46V234.91H157V231.36Z" fill="#DEE7EE"/>
<path d="M126.31 231.36H128.08V234.91H131.62V236.68H128.08V240.22H126.31V236.68H122.76V234.91H126.31V231.36Z" fill="#DEE7EE"/>
<path d="M95.6097 231.36H97.3897V234.91H100.93V236.68H97.3897V240.22H95.6097V236.68H92.0697V234.91H95.6097V231.36Z" fill="#DEE7EE"/>
<path d="M64.9202 231.36H66.6902V234.91H70.2402V236.68H66.6902V240.22H64.9202V236.68H61.3802V234.91H64.9202V231.36Z" fill="#DEE7EE"/>
<path d="M34.23 231.36H36V234.91H39.54V236.68H36V240.22H34.23V236.68H30.69V234.91H34.23V231.36Z" fill="#DEE7EE"/>
<path d="M3.5396 231.36H5.3096V234.91H8.84961V236.68H5.3096V240.22H3.5396V236.68H-0.000396729V234.91H3.5396V231.36Z" fill="#DEE7EE"/>
<path d="M187.69 260.28H189.46V263.83H193V265.6H189.46V269.14H187.69V265.6H184.15V263.83H187.69V260.28Z" fill="#DEE7EE"/>
<path d="M157 260.28H158.77V263.83H162.31V265.6H158.77V269.14H157V265.6H153.46V263.83H157V260.28Z" fill="#DEE7EE"/>
<path d="M126.31 260.28H128.08V263.83H131.62V265.6H128.08V269.14H126.31V265.6H122.76V263.83H126.31V260.28Z" fill="#DEE7EE"/>
<path d="M95.6097 260.28H97.3897V263.83H100.93V265.6H97.3897V269.14H95.6097V265.6H92.0697V263.83H95.6097V260.28Z" fill="#DEE7EE"/>
<path d="M64.9202 260.28H66.6902V263.83H70.2402V265.6H66.6902V269.14H64.9202V265.6H61.3802V263.83H64.9202V260.28Z" fill="#DEE7EE"/>
<path d="M34.23 260.28H36V263.83H39.54V265.6H36V269.14H34.23V265.6H30.69V263.83H34.23V260.28Z" fill="#DEE7EE"/>
<path d="M3.5396 260.28H5.3096V263.83H8.84961V265.6H5.3096V269.14H3.5396V265.6H-0.000396729V263.83H3.5396V260.28Z" fill="#DEE7EE"/>
<path d="M187.69 289.2H189.46V292.75H193V294.52H189.46V298.06H187.69V294.52H184.15V292.75H187.69V289.2Z" fill="#DEE7EE"/>
<path d="M157 289.2H158.77V292.75H162.31V294.52H158.77V298.06H157V294.52H153.46V292.75H157V289.2Z" fill="#DEE7EE"/>
<path d="M126.31 289.2H128.08V292.75H131.62V294.52H128.08V298.06H126.31V294.52H122.76V292.75H126.31V289.2Z" fill="#DEE7EE"/>
<path d="M95.6097 289.2H97.3897V292.75H100.93V294.52H97.3897V298.06H95.6097V294.52H92.0697V292.75H95.6097V289.2Z" fill="#DEE7EE"/>
<path d="M64.9202 289.2H66.6902V292.75H70.2402V294.52H66.6902V298.06H64.9202V294.52H61.3802V292.75H64.9202V289.2Z" fill="#DEE7EE"/>
<path d="M34.23 289.2H36V292.75H39.54V294.52H36V298.06H34.23V294.52H30.69V292.75H34.23V289.2Z" fill="#DEE7EE"/>
<path d="M3.5396 289.2H5.3096V292.75H8.84961V294.52H5.3096V298.06H3.5396V294.52H-0.000396729V292.75H3.5396V289.2Z" fill="#DEE7EE"/>
</svg>
