<svg width="682" height="544" viewBox="0 0 682 544" fill="none" xmlns="http://www.w3.org/2000/svg">
<g clip-path="url(#clip0_223_2582)">
<path d="M412.919 537.93C561.528 537.93 682 417.51 682 268.965C682 120.42 561.528 0 412.919 0C264.309 0 143.837 120.42 143.837 268.965C143.837 417.51 264.309 537.93 412.919 537.93Z" fill="#EBF6FF"/>
<path d="M385.239 154.062C385.239 154.062 391.716 151.027 388.147 112.75C388.452 72.1262 385.416 49.9955 419.084 45.748C448.808 46.9606 458.512 61.5111 459.122 69.7011C459.733 77.8911 459.733 77.884 459.733 77.884C459.733 77.884 456.803 117.097 457.207 118.309C457.611 119.522 458.016 136.902 458.016 136.902C458.016 136.902 458.626 150.644 456.193 154.686C453.766 158.727 450.127 163.982 447.495 165.194C444.864 166.407 441.43 168.229 441.43 168.229C441.43 168.229 446.885 185.786 444.516 194.7C442.891 200.784 383.217 195.515 385.239 154.062Z" fill="#F1B4A3"/>
<path d="M296.521 511.748C308.325 517.463 322.754 523.356 339.616 528.107C361.168 534.169 380.442 536.85 396.021 537.708C390.303 422.601 384.677 307.267 378.96 192.161L378.825 189.445C378.825 189.445 373.972 181.354 374.512 173.271C375.051 165.18 373.433 159.252 373.433 159.252C373.433 159.252 302.763 207.782 301.146 210.477C299.535 213.171 299.762 505.274 296.521 511.748Z" fill="#5AB8FD"/>
<path d="M92.1152 442.606C92.1152 442.606 91.9946 443.719 86.0499 449.08C83.1059 451.732 80.396 454.604 73.1034 457.773C70.0459 459.099 60.7457 466.609 59.3482 468.488C56.2623 472.65 54.5597 474.274 47.2742 483.981C42.046 490.952 28.6668 496.249 36.8887 483.655C39.329 479.918 42.2375 476.458 45.1602 473.09C47.1536 470.785 49.2109 468.53 51.3178 466.325C52.4386 465.148 53.5808 463.985 54.7371 462.843C55.865 461.73 57.5179 460.581 58.3408 459.255C55.4536 459.567 52.6089 463.12 50.502 464.928C46.8344 468.084 43.3016 471.381 39.7688 474.678C36.4701 477.763 33.4907 481.166 30.0856 484.13C28.4185 485.584 23.8712 490.002 21.3174 488.307C17.6782 485.882 34.4696 461.212 47.4161 456.766C43.3158 458.178 39.7688 460.964 36.1509 463.283C31.5895 466.212 27.2196 469.488 23.3888 473.331C20.7144 476.018 16.6921 482.124 12.2797 478.961C9.98834 477.316 8.81784 473.125 11.0028 470.92C14.2447 467.679 17.5789 464.531 20.9343 461.411C24.7367 457.873 28.5604 454.228 32.7458 451.136C33.3559 450.69 34.0795 450.051 34.8172 449.853C34.5264 451.519 31.0361 452.668 29.8231 453.448C24.3323 457.001 18.7068 460.716 12.7124 463.524C10.1018 464.751 6.96631 466.403 4.07197 466.722C1.13507 467.041 -0.922182 464.205 0.432766 461.574C1.89412 458.738 5.52624 456.816 8.32835 455.646C14.5427 453.051 21.1472 451.888 27.0848 448.591C32.5968 445.535 37.8535 441.266 41.5494 436.125C39.2084 438.181 36.8035 440.174 34.3916 442.145C31.2206 444.733 27.8013 448.045 24.0273 449.739C23.6939 449.888 23.1264 450.257 22.7362 450.087C20.9131 449.279 10.5984 444.223 39.3219 419.958C39.3219 419.958 54.4959 406.003 79.7788 412.073C111.524 419.688 92.1152 442.606 92.1152 442.606Z" fill="#F1B4A3"/>
<path d="M330.969 301.24C330.969 301.24 309.389 420.942 239.265 438.201C169.134 455.453 95.7753 448.986 95.7753 448.986C95.7753 448.986 72.0389 423.104 76.352 402.612C80.6651 382.119 195.027 374.574 206.895 353.004C218.763 331.433 302.919 208.498 302.919 208.498C302.919 208.498 342.837 249.476 330.969 301.24Z" fill="#008AFF"/>
<path d="M458.249 94.2436C476.509 93.1587 660.966 70.3047 660.966 70.3047C660.966 70.3047 665.372 125.621 660.654 125.259C655.929 124.898 458.249 102.405 458.249 102.405C455.589 101.462 454.035 99.7603 454.234 98.0089C454.51 95.605 457.923 94.357 458.249 94.2436Z" fill="#222D39"/>
<path d="M648.268 97.3772C648.268 112.935 655.142 125.549 663.619 125.549C672.097 125.549 678.971 112.935 678.971 97.3772C678.971 81.8198 672.097 69.2051 663.619 69.2051C662.562 69.2051 661.527 69.4036 660.526 69.7794C653.532 72.4031 648.268 83.7627 648.268 97.3772Z" fill="#222D39"/>
<path d="M663.577 119.401C670.033 119.401 675.267 109.413 675.267 97.0931C675.267 84.7728 670.033 74.7852 663.577 74.7852C657.12 74.7852 651.886 84.7728 651.886 97.0931C651.886 109.413 657.12 119.401 663.577 119.401Z" fill="#0097FA"/>
<path d="M584.479 127.642C584.479 127.642 585.571 118.884 589.565 94.9597C594.46 65.6459 581.294 57.5126 554.684 81.5579C528.075 105.603 565.034 137.583 565.034 137.583L584.479 127.642Z" fill="#F1B4A3"/>
<path d="M502.898 292.974C502.898 292.974 542.972 369.69 593.524 368.463C704.651 365.769 595.68 141.994 588.132 124.742C587.054 127.975 572.49 118.544 554.145 123.933C535.807 129.323 564.588 240.472 558.189 233.126C508.779 176.392 504.785 178.129 504.785 178.129L502.898 292.974Z" fill="#008AFF"/>
<path d="M388.267 168.413C388.267 168.413 397.17 193.487 441.67 195.103C444.096 179.737 440.308 168.98 440.308 168.98L447.132 161.131C447.132 161.131 474.444 165.173 475.657 217.34C476.87 269.508 491.363 526.546 491.363 526.546C474.217 531.843 449.168 537.573 423.488 538.098C416.799 538.232 410.393 538.282 404.178 538.055C397.531 414.375 390.877 290.462 384.223 166.789L388.267 168.413Z" fill="#222D39"/>
<path d="M393.396 193.758L378.967 192.162L396.028 537.709C397.815 537.815 399.639 537.908 401.483 537.986C404.051 538.092 406.562 538.156 409.024 538.191C403.81 423.382 398.603 308.573 393.396 193.758Z" fill="#0073C3"/>
<path d="M491.399 526.582C490.229 526.993 489.001 527.277 487.753 527.667C485.461 528.376 483.248 528.972 481.134 529.475C473.913 415.574 466.691 301.673 459.469 187.771L474.7 188.707L491.399 526.582Z" fill="#0073C3"/>
<path d="M434.931 151.701C434.931 151.701 520.165 168.953 521.243 199.154C522.322 229.347 535.155 508.934 535.155 508.934C529.515 511.529 523.35 514.685 514.916 518.067C507.268 521.137 501.998 523.449 491.399 526.597C491.399 526.597 475.36 201.72 474.856 194.835C473.927 182.32 468.11 172.463 434.931 151.701Z" fill="#5AB8FD"/>
<path d="M385.032 153.855L393.396 193.756C393.396 193.756 381.733 194.508 378.967 192.161C374.824 188.636 371.688 169.526 373.441 159.252C374.271 154.366 385.032 153.855 385.032 153.855Z" fill="#0097FA"/>
<path d="M473.87 188.716C466.464 157.721 452.872 158.749 446.126 156.693C440.103 154.856 429.136 153.864 438.032 161.139C446.934 168.421 459.477 187.829 459.477 187.829" fill="#0097FA"/>
<path d="M387.622 113.629C387.622 113.629 394.297 114.239 395.106 114.033C395.914 113.828 390.048 100.695 394.701 100.291C399.355 99.887 402.59 101.504 401.781 111.41C400.972 121.316 402.391 144.858 406.328 150.318C410.273 155.778 415.068 172.413 440.315 168.988C446.26 168.18 447.487 166.152 449.261 164.365C458.433 155.118 462.434 158.706 456.979 122.124C455.362 120.302 442.621 109.19 425.844 130.413C419.778 135.873 408.655 136.476 408.251 125.967C407.846 115.459 407.442 92.009 407.442 92.009C407.442 92.009 414.926 74.6292 409.265 69.3749C403.604 64.1205 391.474 62.0996 391.474 62.0996C391.474 62.0996 389.296 64.1347 388.182 81.472C387.7 88.7827 387.565 101.582 387.622 113.629Z" fill="#222D39"/>
<path d="M446.913 536.282L440.734 194.812L441.671 194.855L447.921 536.154L446.913 536.282Z" fill="#5AB8FD"/>
<path d="M388.381 78.2459C388.381 78.2459 388.054 55.2643 402.249 49.6909C417.31 43.777 436.776 42.7701 453.808 57.271C453.808 57.271 457.972 62.185 459.483 67.255C459.803 68.3328 460.477 76.8206 460.477 76.8206C450.914 78.8132 438.464 80.5363 425.241 80.9121C420.672 81.0468 416.281 81.0114 412.089 80.8483C403.221 80.5079 395.276 79.6074 388.374 78.487" fill="#5AB8FD"/>
<path d="M481.56 81.2161L418.168 80.6063C418.168 80.6063 439.549 80.7552 460.476 76.8197C480.644 76.6708 483.681 73.0332 485.497 75.4583C487.32 77.8834 481.56 81.2161 481.56 81.2161Z" fill="#5AB8FD"/>
</g>
<defs>
<clipPath id="clip0_223_2582">
<rect width="682" height="544" fill="white"/>
</clipPath>
</defs>
</svg>
