<svg width="48" height="48" viewBox="0 0 48 48" fill="none" xmlns="http://www.w3.org/2000/svg">
<path d="M17.29 1.50717C10.0008 2.05068 3.80411 2.55052 3.51277 2.60905C2.69589 2.75584 1.95277 3.31422 1.60334 4.04911L1.29724 4.69574L1.32674 20.1072L1.37008 35.5186L1.8366 36.4737C2.09937 37.0023 3.87787 39.4708 5.8168 42.0118C9.65133 47.0214 9.92793 47.301 11.3856 47.4478C11.8088 47.4915 14.9868 47.3447 18.4277 47.1394C21.8833 46.9192 27.4226 46.581 30.7472 46.3906C44.9467 45.5219 44.2174 45.5953 45.0334 44.8901C46.054 44.0381 45.9812 45.4336 46.0245 26.7026C46.054 10.8211 46.0392 9.77869 45.806 9.29371C45.5294 8.75021 45.0334 8.36836 38.5601 3.78432C34.2305 0.728613 33.9244 0.566955 31.9845 0.537225C31.1833 0.508424 24.5644 0.948803 17.29 1.50717V1.50717ZM33.6764 3.51954C34.2886 3.79826 38.7648 6.94223 39.4203 7.5452C39.5955 7.72172 39.6536 7.86852 39.566 7.95678C39.3622 8.1333 11.6613 9.79355 10.8601 9.67556C10.4959 9.61703 9.95651 9.39684 9.65041 9.19058C8.38176 8.32376 5.23319 5.72329 5.23319 5.53284C5.23319 5.033 5.13085 5.033 17.4799 4.13737C19.842 3.97571 23.7199 3.68213 26.082 3.49074C31.1981 3.07916 32.7295 3.09403 33.6764 3.51954V3.51954ZM42.4822 11.556C42.686 11.7613 42.8612 12.158 42.9192 12.5399C42.9626 12.8929 42.9921 19.4745 42.9626 27.143C42.9192 40.3061 42.9045 41.1292 42.6565 41.5111C42.5108 41.7461 42.2195 41.9961 42 42.0694C41.3888 42.3194 12.362 43.9796 11.7645 43.8031C11.4879 43.7297 11.1081 43.4946 10.9043 43.2893L10.554 42.9075L10.5106 28.7159C10.4811 18.7554 10.5106 14.3479 10.6277 13.9511C10.7153 13.6576 10.9338 13.3045 11.1237 13.1874C11.3865 13.0109 13.1069 12.8641 19.0261 12.512C23.1814 12.277 29.6104 11.8802 33.2993 11.6601C42.0738 11.1156 42.0452 11.1156 42.4822 11.556V11.556Z" fill="#132238"/>
<path d="M34.6824 16.4189C33.1076 16.522 31.7081 16.6688 31.5476 16.7571C31.0664 17.007 30.775 17.4186 30.7169 17.8887C30.6736 18.3736 30.8193 18.4322 32.3931 18.6236L33.0781 18.7118V24.9849C33.0781 28.7161 33.02 31.1846 32.9472 31.1112C32.8744 31.023 30.8045 27.8502 28.34 24.0596C25.8765 20.255 23.8352 17.125 23.8057 17.0962C23.7762 17.0664 22.1729 17.1547 20.2487 17.2876C17.8866 17.4492 16.5894 17.596 16.3266 17.7428C15.9034 17.963 15.4369 18.7416 15.4369 19.2563C15.4369 19.5647 15.991 19.7264 17.1573 19.7264H17.7695V37.7671L16.7784 38.0755C16.0058 38.3106 15.743 38.4574 15.6121 38.751C15.3788 39.2508 15.3936 39.7061 15.6268 39.7061C15.7144 39.7061 17.362 39.6029 19.2567 39.4859C23.0036 39.2657 23.4259 39.1626 23.8196 38.384C23.9367 38.1489 24.0381 37.899 24.0381 37.8256C24.0381 37.7671 23.5282 37.5906 22.9151 37.4438C22.2881 37.297 21.6612 37.1502 21.5303 37.1205C21.2823 37.0471 21.2675 36.5918 21.2675 30.2741V23.5012L25.6995 30.5092C30.35 37.8544 30.9336 38.6924 31.6481 39.0594C32.5378 39.5295 34.7976 39.2062 35.9344 38.4574L36.2848 38.2372L36.3143 28.2181L36.3576 18.1841L37.1302 18.0373C38.0485 17.8608 38.4717 17.4353 38.4717 16.7004C38.4717 16.2303 38.4422 16.2005 38.0052 16.2154C37.7443 16.2275 36.2424 16.3157 34.6824 16.4189V16.4189Z" fill="#132238"/>
</svg>
