<svg width="132" height="26" viewBox="0 0 132 26" fill="none" xmlns="http://www.w3.org/2000/svg">
<g clip-path="url(#clip0_837_85)">
<path d="M66.5907 23.0716C66.5907 23.5287 66.5907 23.6326 66.8988 23.913L68.625 25.6167V25.6894H60.9714V22.4171C60.201 24.5737 58.1635 26 55.8961 25.9699C51.9615 25.9699 49.1054 22.8534 49.1054 17.1192C49.1054 11.7486 52.1872 8.16469 56.5125 8.16469C58.4298 8.0428 60.2141 9.15952 60.961 10.9487V3.72932C60.9891 3.5658 60.9713 3.3977 60.9096 3.24368C60.8479 3.08965 60.7448 2.95572 60.6116 2.85672L58.9679 1.25696V1.18424L66.5907 0.280478V23.0716ZM60.9714 22.0328V11.2603C60.6995 10.9174 60.3524 10.6417 59.9569 10.4543C59.5614 10.267 59.1281 10.1731 58.6905 10.18C56.8311 10.18 55.0332 11.8836 55.0332 16.9426C55.0332 21.6796 56.5845 23.3521 58.516 23.3521C59.0002 23.3412 59.4751 23.2161 59.9017 22.9868C60.3284 22.7575 60.6948 22.4306 60.9711 22.0328H60.9714ZM71.666 25.6894V11.1461C71.6902 10.9865 71.6748 10.8234 71.621 10.6712C71.5673 10.519 71.4768 10.3824 71.3578 10.2735L69.6624 8.5075V8.43478H77.3164V23.1859C77.3164 23.6429 77.3164 23.7468 77.6246 24.0273L79.3095 25.6271V25.6998L71.666 25.6894ZM71.3886 3.11608C71.3886 1.39512 72.7685 0 74.4704 0C76.1723 0 77.5525 1.39547 77.5525 3.11643C77.5525 4.83739 76.1726 6.23285 74.4707 6.23285C72.7688 6.23285 71.3886 4.83739 71.3886 3.11643V3.11608ZM97.9658 23.0404C97.9658 23.4975 97.9658 23.6326 98.274 23.913L100 25.6167V25.6894H92.3054V21.9601C91.6045 24.3182 89.4697 25.9422 87.0351 25.9699C83.6244 25.9699 81.7957 23.456 81.7957 18.6982C81.7957 16.4024 81.7957 13.8885 81.8674 11.063C81.8952 10.908 81.8814 10.7484 81.8272 10.6005C81.773 10.4527 81.6806 10.3219 81.5592 10.2215L79.8642 8.5075V8.43478H87.4562V17.9191C87.4562 21.0355 87.9084 23.1132 89.8396 23.1132C90.3519 23.0798 90.8478 22.9188 91.282 22.6448C91.7162 22.3708 92.0751 21.9926 92.3258 21.5446V11.1565C92.35 10.9969 92.3346 10.8338 92.2808 10.6816C92.2271 10.5294 92.1367 10.3928 92.0176 10.2839L90.3122 8.5075V8.43478H97.9658V23.0404ZM124.02 25.6894C124.02 25.1284 124.122 17.9814 124.122 16.3401C124.122 13.2237 123.639 11.0734 121.472 11.0734C120.932 11.0911 120.405 11.2357 119.932 11.4957C119.459 11.7556 119.053 12.1234 118.749 12.5692C118.967 13.5405 119.07 14.5343 119.057 15.5298C119.057 17.6906 118.985 20.4434 118.955 23.1963C118.927 23.3512 118.941 23.5108 118.995 23.6587C119.049 23.8065 119.141 23.9373 119.263 24.0377L120.989 25.6375V25.7102H113.263C113.263 25.1908 113.366 18.0022 113.366 16.3609C113.366 13.1925 112.883 11.0941 110.746 11.0941C110.226 11.114 109.72 11.2655 109.274 11.5344C108.829 11.8032 108.458 12.1807 108.198 12.6316V23.2274C108.198 23.6845 108.198 23.7884 108.507 24.0689L110.192 25.6686V25.7413H102.548V11.198C102.572 11.0384 102.557 10.8754 102.503 10.7232C102.449 10.571 102.359 10.4344 102.24 10.3254L100.544 8.5075V8.43478H108.198V12.1329C108.908 9.69174 111.169 8.05112 113.684 8.1543C116.232 8.1543 117.958 9.58786 118.688 12.3095C119.498 9.79943 121.83 8.11518 124.441 8.1543C127.851 8.1543 129.783 10.6994 129.783 15.5091C129.783 17.8048 129.711 20.4226 129.68 23.1755C129.651 23.3345 129.668 23.4986 129.73 23.648C129.792 23.7973 129.896 23.9255 130.029 24.0169L131.714 25.6167V25.6894H124.02ZM27.8701 23.4248L30.1406 25.6167V25.6894H18.624V25.6167L20.9357 23.4248C21.0571 23.3244 21.1495 23.1936 21.2037 23.0458C21.2579 22.8979 21.2717 22.7383 21.2439 22.5834V8.56983C21.2439 7.97771 21.2439 7.17782 21.3464 6.49221L13.5796 25.9702H13.4875L5.44327 8.05077C5.2684 7.60408 5.21715 7.57292 5.10392 7.27166V19.0206C5.00766 19.8065 5.13978 20.6035 5.48447 21.3164L8.72036 25.617V25.6897H0.131836V25.617L3.36807 21.306C3.70997 20.596 3.84177 19.803 3.74793 19.0206V6.03548C3.80092 5.39715 3.61013 4.76244 3.21398 4.25912L0.923062 1.25696V1.18424H9.14177L16.0249 16.3612L22.0864 1.18424H30.1302V1.25696L27.8701 3.80204C27.737 3.90103 27.6338 4.03497 27.5722 4.18899C27.5105 4.34302 27.4927 4.51111 27.5207 4.67464V22.5837C27.4913 22.7428 27.5086 22.9069 27.5707 23.0563C27.6328 23.2057 27.7369 23.3338 27.8705 23.4251L27.8701 23.4248ZM36.88 16.4024V16.4752C36.88 20.9213 39.1505 22.708 41.8113 22.708C44.0329 22.7845 46.0894 21.5248 47.0507 19.4981H47.1227C46.1982 23.8923 43.5063 25.9699 39.4791 25.9699C35.1335 25.9699 31.0343 23.3209 31.0343 17.1816C31.0343 10.7305 35.1439 8.1543 39.6845 8.1543C43.3421 8.1543 47.2356 9.8995 47.2356 15.5091V16.4024H36.88ZM36.88 15.5091H41.9449V14.6053C41.9449 10.0345 41.01 8.81914 39.6024 8.81914C37.897 8.81914 36.8596 10.6371 36.8596 15.5091H36.88Z" fill="#A5ACB5"/>
</g>
<defs>
<clipPath id="clip0_837_85">
<rect width="131.846" height="26" fill="white"/>
</clipPath>
</defs>
</svg>
