<svg width="114" height="28" viewBox="0 0 114 28" fill="none" xmlns="http://www.w3.org/2000/svg">
<g clip-path="url(#clip0_837_710)">
<path d="M34.7846 11.1826C36.0868 11.1826 37.1423 10.1266 37.1423 8.82416C37.1423 7.52149 36.0868 6.46572 34.7846 6.46572C33.4823 6.46572 32.4268 7.52149 32.4268 8.82416C32.4268 10.1266 33.4823 11.1826 34.7846 11.1826ZM112.598 19.2406C112.239 18.9884 111.962 18.9466 111.733 19.4364C107.773 28.0133 101.099 23.7333 101.762 24.1099C103.242 23.4328 107.135 20.3106 106.547 15.9995C106.19 13.3648 103.928 12.1962 101.528 12.6146C97.3383 13.345 95.797 17.8642 96.5816 21.865C96.719 22.5522 96.9643 23.1188 97.2094 23.6739C92.4748 27.5242 90.5945 20.2273 90.3812 19.3553C90.3727 19.3086 94.037 16.2544 95.0561 8.97638C96.1243 1.34861 93.691 -0.040283 91.2028 0.00305033C86.5983 0.0832725 85.3541 9.70349 87.0256 17.7213C86.8856 17.7577 86.2341 18.1186 85.1872 18.159C84.4339 15.7886 81.215 13.7108 80.3725 14.5115C78.2641 16.5144 80.8839 20.4302 82.7272 20.7373C81.6199 27.5575 74.6948 25.8684 75.9839 17.3237C78.239 13.1359 79.9541 6.90905 79.6481 3.14994C79.5396 1.81905 78.5556 0.0359392 76.3303 0.124384C72.0501 0.293717 71.5848 9.9166 72.0865 16.7464C72.0617 16.5782 71.8234 17.5762 70.0694 18.0724C69.6545 15.7695 65.9465 13.4579 65.0737 14.5693C63.4397 16.6493 66.2714 20.3579 67.6128 20.6166C66.5054 27.4366 59.5805 25.7475 60.8697 17.2028C63.1248 13.0153 64.8397 6.78838 64.5337 3.02927C64.4252 1.69816 63.4414 -0.0849496 61.2159 0.00327255C56.9357 0.172828 56.4703 9.79571 56.9721 16.6255C56.947 16.4546 56.7032 17.4855 54.8777 17.9735C54.8166 14.9857 51.095 13.6157 50.201 14.569C48.6077 16.2684 50.5659 19.755 52.3774 20.6166C51.2701 27.4366 44.3452 25.7475 45.6343 17.2028C47.8895 13.0153 49.6046 6.78838 49.2983 3.02927C49.1901 1.69816 48.2061 -0.0849496 45.9806 0.00327255C41.7006 0.172828 41.3561 10.2795 41.8579 17.109C40.4481 23.1493 35.7203 30.6924 36.3346 15.5819C36.3952 14.5219 36.4615 14.1195 35.933 13.7226C35.537 13.4142 34.6366 13.5626 34.1443 13.5748C33.5461 13.5988 33.3961 13.9488 33.2639 14.4779C32.9559 15.8442 32.9006 17.1686 32.8566 18.9757C32.8277 19.821 32.7599 20.2155 32.4343 21.3682C32.1092 22.5206 30.2544 24.627 29.2388 24.2748C27.8299 23.7904 28.2921 19.813 28.5561 17.0804C28.7761 14.9208 28.0717 13.951 26.2668 13.5984C25.2101 13.3782 24.5681 13.4119 23.4677 13.065C22.427 12.737 22.1917 10.7686 19.9721 11.4246C18.7581 11.7837 19.5386 14.3559 19.2468 16.2624C17.8124 25.6404 14.8277 25.8979 13.443 21.3424C19.6792 6.06883 15.247 0.0474948 12.6526 0.0474948C9.95037 0.0474948 6.86148 1.90883 8.16948 13.8182C7.53348 13.6326 7.33792 13.5326 6.6417 13.5326C2.70415 13.5326 0.0214844 16.7157 0.0214844 20.6424C0.0214844 24.569 2.70437 27.7524 6.64192 27.7524C8.96637 27.7524 10.5984 26.6953 11.8344 25.0599C12.6408 26.2148 13.6228 27.7702 15.4186 27.7002C20.7712 27.4917 22.3279 16.5119 22.5117 15.8995C23.0839 15.9877 23.6252 16.1546 24.1537 16.2428C25.0341 16.375 25.0981 16.7235 25.0781 17.609C24.8448 25.0766 26.2228 27.6913 29.3486 27.6913C31.0901 27.6913 32.6423 25.9802 33.7117 24.7566C34.5103 26.405 35.783 27.6408 37.4903 27.691C41.6275 27.7939 43.2115 21.1999 43.067 22.0677C42.9537 22.7486 44.4092 27.6539 48.6683 27.6717C53.9441 27.6939 54.9248 21.8922 55.0417 20.9204C55.0563 20.727 55.0628 20.747 55.0417 20.9204L55.0377 20.9793C56.7126 20.6677 57.5768 19.7697 57.5768 19.7697C57.5768 19.7697 58.9217 27.7619 63.9034 27.6719C69.0768 27.5782 70.0523 22.3337 70.1803 21.311C70.1972 21.0684 70.2072 21.0968 70.1803 21.311C70.1796 21.321 70.179 21.331 70.1783 21.341C72.1679 20.6173 72.6912 19.8908 72.6912 19.8908C72.6912 19.8908 73.7601 27.7242 79.0179 27.7926C83.7032 27.8539 85.4396 23.0559 85.4499 21.0477C86.2401 21.0562 87.7019 20.5788 87.6676 20.5517C87.6676 20.5517 89.3839 27.4006 94.1765 27.7524C96.4268 27.9175 98.1147 26.4862 99.077 25.8333C101.338 27.6646 108.868 30.0037 113.623 21.9426C114.294 20.7857 112.851 19.419 112.598 19.2406ZM6.45192 25.0933C4.15459 25.0933 2.68148 22.969 2.68148 20.6786C2.68148 18.3884 4.0337 16.2642 6.33104 16.2642C7.36481 16.2642 7.93992 16.3779 8.74503 17.0782C8.89103 17.6535 9.30481 18.9806 9.50614 19.5833C9.77592 20.3897 10.0968 21.0762 10.4204 21.8233C9.95814 23.7395 8.44281 25.0933 6.45192 25.0933ZM12.0501 17.1455C11.9546 16.9933 11.9746 17.0868 11.8677 16.943C11.4466 15.7975 10.635 13.2406 10.541 10.3364C10.4348 7.05105 10.9824 3.20016 12.5966 3.20016C13.6904 3.20016 14.8528 11.0046 12.0499 17.1455H12.0501ZM44.397 13.7224C44.1379 11.7728 44.1243 3.08172 46.2108 3.32105C47.3628 3.78772 45.4803 11.9888 44.397 13.7224ZM59.6323 13.7224C59.3732 11.7728 59.3597 3.08172 61.4461 3.32105C62.5981 3.78772 60.7157 11.9888 59.6323 13.7224ZM74.7468 13.8435C74.4874 11.8937 74.4741 3.2026 76.5603 3.44194C77.7123 3.9086 75.8299 12.1099 74.7468 13.8435ZM91.433 2.81238C93.3405 2.6146 93.2619 10.9448 89.433 16.2039C88.9392 14.303 88.1821 3.46505 91.433 2.81216V2.81238ZM99.4507 20.7373C98.8381 17.6424 100.421 15.6097 102.053 15.3868C102.624 15.2957 103.45 15.6653 103.615 16.3562C103.886 17.6582 103.576 19.5895 99.9232 22.0399C99.9285 22.0608 99.5874 21.4266 99.451 20.7373H99.4507Z" fill="#DD3E7B"/>
</g>
<defs>
<clipPath id="clip0_837_710">
<rect width="113.821" height="28" fill="white"/>
</clipPath>
</defs>
</svg>
