<svg width="50" height="50" viewBox="0 0 50 50" fill="none" xmlns="http://www.w3.org/2000/svg">
<path d="M31.3175 33.3344C31.4246 32.653 31.4786 31.9534 31.4786 31.25C31.4786 30.5534 31.4246 29.8592 31.3206 29.1847L34.7984 26.4816C35.613 25.8469 35.8403 24.6941 35.3224 23.7999L33.0784 19.9501C32.5575 19.0559 31.4339 18.6722 30.4683 19.0598L26.3678 20.694C25.2474 19.7998 24.0352 19.1063 22.7475 18.6218L22.1256 14.2876C21.9807 13.269 21.0837 12.5 20.0426 12.5H15.5568C14.5157 12.5 13.6187 13.269 13.4738 14.2906L12.8519 18.6249C11.5642 19.1154 10.3359 19.8189 9.25006 20.694L5.1311 19.0598C4.16551 18.6783 3.04503 19.0598 2.52409 19.9501L0.280048 23.7999C-0.240891 24.6941 -0.0135577 25.8499 0.807152 26.4847L4.28188 29.1687C4.17476 29.847 4.12082 30.5466 4.12082 31.25C4.12082 31.9466 4.17476 32.6408 4.27879 33.3153L0.800217 36.0184C-0.0135578 36.6531 -0.240891 37.8059 0.276966 38.7001L2.52101 42.5499C3.04195 43.4402 4.16551 43.8248 5.1311 43.4402L9.23157 41.806C10.352 42.7002 11.5642 43.3937 12.8519 43.8782L13.4738 48.2124C13.6187 49.231 14.5157 50 15.5568 50H20.0426C21.0837 50 21.9807 49.231 22.1256 48.2094L22.7475 43.8751C24.0352 43.3846 25.2628 42.6811 26.3493 41.806L30.4683 43.4402C31.4401 43.8248 32.5544 43.4441 33.0753 42.5499L35.3194 38.7001C35.8403 37.8059 35.613 36.6501 34.7923 36.0153L31.3175 33.3344ZM17.7978 38.5406C13.7358 38.5406 10.4337 35.2684 10.4337 31.25C10.4337 27.2278 13.7389 23.9594 17.7978 23.9594C21.8574 23.9594 25.1618 27.2316 25.1618 31.25C25.1657 35.2722 21.8605 38.5406 17.7978 38.5406Z" fill="#008AFF"/>
<path d="M47.6864 11.3937C47.728 11.0687 47.7881 10.7498 47.7881 10.4156C47.7881 10.0815 47.7311 9.76257 47.6864 9.43756L49.5806 8.01849C50.0037 7.7034 50.1239 7.12204 49.8549 6.66885L48.1573 3.74985C47.8922 3.29361 47.3273 3.10593 46.838 3.31268L44.6563 4.22516C44.1231 3.82156 43.5551 3.46527 42.9301 3.20587L42.6396 0.912476C42.5733 0.390625 42.1279 0 41.5977 0H38.1955C37.6653 0 37.2168 0.390625 37.1505 0.912476L36.86 3.20587C36.235 3.46527 35.667 3.81851 35.1369 4.22211L32.9552 3.30963C32.4667 3.10593 31.901 3.29361 31.6359 3.7468L29.9352 6.6658C29.6693 7.12204 29.7864 7.70035 30.2095 8.01544L32.1037 9.43451C32.0621 9.75952 32.002 10.0784 32.002 10.4126C32.002 10.7468 32.059 11.0657 32.1037 11.3907L30.2095 12.8098C29.7864 13.1248 29.6662 13.7062 29.9352 14.1594L31.6359 17.0784C31.901 17.5346 32.4667 17.7216 32.9552 17.5156L35.1369 16.6031C35.667 17.0029 36.235 17.3592 36.86 17.6186L37.1505 19.9127C37.2168 20.4346 37.6653 20.8252 38.1955 20.8252H41.5977C42.1279 20.8252 42.5764 20.4346 42.6427 19.9127L42.9332 17.6186C43.5582 17.3592 44.1261 17.0059 44.6563 16.6031L46.838 17.5156C47.3273 17.7185 47.8922 17.5316 48.1573 17.0784L49.8588 14.1594C50.1239 13.7032 50.0067 13.1248 49.5837 12.8098L47.6864 11.3937ZM39.8931 14.5844C37.5705 14.5844 35.6855 12.719 35.6855 10.4187C35.6855 8.11844 37.5705 6.25305 39.8931 6.25305C42.2165 6.25305 44.1007 8.11844 44.1007 10.4187C44.1046 12.719 42.2196 14.5844 39.8931 14.5844Z" fill="#8ECBFF"/>
</svg>
