<svg width="50" height="46" viewBox="0 0 50 46" fill="none" xmlns="http://www.w3.org/2000/svg">
<path d="M43.75 0H6.25C2.80312 0 0 2.80704 0 6.25874V39.6397C0 43.0914 2.80312 45.8984 6.25 45.8984H43.75C47.1969 45.8984 50 43.0914 50 39.6397V6.25874C50 2.80704 47.1969 0 43.75 0ZM43.75 41.7239H6.25C5.1 41.7239 4.16563 40.7882 4.16563 39.6366V10.4302H45.8344V39.6366C45.8344 40.7882 44.9 41.7239 43.75 41.7239Z" fill="#008AFF"/>
<path d="M15.1032 25.0349H9.8938C9.0313 25.0349 8.3313 24.3339 8.3313 23.4702V16.1694C8.3313 15.3057 9.0313 14.6047 9.8938 14.6047H15.1032C15.9657 14.6047 16.6657 15.3057 16.6657 16.1694V23.4702C16.6657 24.3339 15.9657 25.0349 15.1032 25.0349Z" fill="#8ECBFF"/>
<path d="M15.1032 39.6366H9.8938C9.0313 39.6366 8.3313 38.9356 8.3313 38.0719V30.7711C8.3313 29.9074 9.0313 29.2064 9.8938 29.2064H15.1032C15.9657 29.2064 16.6657 29.9074 16.6657 30.7711V38.0719C16.6657 38.9356 15.9657 39.6366 15.1032 39.6366Z" fill="#8ECBFF"/>
<path d="M20.8345 8.3429H25.0001V43.808H20.8345V8.3429Z" fill="#008AFF"/>
<path d="M39.5843 20.8604H31.2499C30.0968 20.8604 29.1655 19.9247 29.1655 18.7731C29.1655 17.6215 30.0999 16.689 31.2499 16.689H39.5843C40.7374 16.689 41.6687 17.6246 41.6687 18.7763C41.6687 19.9279 40.7343 20.8604 39.5843 20.8604Z" fill="#8ECBFF"/>
<path d="M39.5843 29.2064H31.2499C30.0968 29.2064 29.1655 28.2708 29.1655 27.1191C29.1655 25.9675 30.0968 25.0319 31.2499 25.0319H39.5843C40.7374 25.0319 41.6687 25.9675 41.6687 27.1191C41.6687 28.2708 40.7343 29.2064 39.5843 29.2064Z" fill="#8ECBFF"/>
<path d="M39.5843 37.5525H31.2499C30.0968 37.5525 29.1655 36.6168 29.1655 35.4652C29.1655 34.3136 30.0968 33.3779 31.2499 33.3779H39.5843C40.7374 33.3779 41.6687 34.3136 41.6687 35.4652C41.6687 36.6168 40.7343 37.5525 39.5843 37.5525Z" fill="#8ECBFF"/>
</svg>
