<svg width="62" height="57" viewBox="0 0 62 57" fill="none" xmlns="http://www.w3.org/2000/svg">
<circle cx="20" cy="20" r="20" fill="#EBF6FF"/>
<path d="M59.9887 36.9938V28.996C59.9887 18.9989 55.9898 15 45.9926 15H33.996C23.9989 15 20 18.9989 20 28.996V40.9926C20 50.9898 23.9989 54.9887 33.996 54.9887H41.9938" stroke="#008AFF" stroke-width="2" stroke-linecap="round" stroke-linejoin="round"/>
<path d="M30.6572 39.9723L35.4159 33.7941C36.0957 32.9143 37.3553 32.7544 38.2351 33.4342L41.8941 36.3134C42.7738 36.9932 44.0334 36.8332 44.7132 35.9735L49.332 30.0151" stroke="#008AFF" stroke-width="2" stroke-linecap="round" stroke-linejoin="round"/>
<path d="M54.9506 42.6321L55.5104 43.7718C55.7903 44.3316 56.4901 44.8515 57.1099 44.9714L57.8697 45.0914C60.1491 45.4713 60.6889 47.1508 59.0494 48.8103L58.3496 49.5101C57.8897 49.99 57.6298 50.9097 57.7698 51.5496L57.8697 51.9694C58.4896 54.7287 57.03 55.7883 54.6307 54.3487L54.1108 54.0488C53.491 53.6889 52.4913 53.6889 51.8714 54.0488L51.3516 54.3487C48.9322 55.8083 47.4727 54.7287 48.1125 51.9694L48.2124 51.5496C48.3524 50.9097 48.0925 49.99 47.6326 49.5101L46.9328 48.8103C45.2933 47.1508 45.8331 45.4713 48.1125 45.0914L48.8723 44.9714C49.4721 44.8715 50.1919 44.3316 50.4718 43.7718L51.0316 42.6321C52.1113 40.4527 53.8709 40.4527 54.9506 42.6321Z" stroke="#008AFF" stroke-width="2" stroke-linecap="round" stroke-linejoin="round"/>
</svg>
