<svg width="61" height="56" viewBox="0 0 61 56" fill="none" xmlns="http://www.w3.org/2000/svg">
<circle cx="20" cy="20" r="20" fill="#EBF6FF"/>
<path d="M45 30H35V40H45V30Z" stroke="#008AFF" stroke-width="1.5" stroke-linecap="round" stroke-linejoin="round"/>
<path d="M31.5 47C33.425 47 35 45.425 35 43.5V40H31.5C29.575 40 28 41.575 28 43.5C28 45.425 29.575 47 31.5 47Z" stroke="#008AFF" stroke-width="1.5" stroke-linecap="round" stroke-linejoin="round"/>
<path d="M31.5 30H35V26.5C35 24.575 33.425 23 31.5 23C29.575 23 28 24.575 28 26.5C28 28.425 29.575 30 31.5 30Z" stroke="#008AFF" stroke-width="1.5" stroke-linecap="round" stroke-linejoin="round"/>
<path d="M45 30H48.5C50.425 30 52 28.425 52 26.5C52 24.575 50.425 23 48.5 23C46.575 23 45 24.575 45 26.5V30Z" stroke="#008AFF" stroke-width="1.5" stroke-linecap="round" stroke-linejoin="round"/>
<path d="M48.5 47C50.425 47 52 45.425 52 43.5C52 41.575 50.425 40 48.5 40H45V43.5C45 45.425 46.575 47 48.5 47Z" stroke="#008AFF" stroke-width="1.5" stroke-linecap="round" stroke-linejoin="round"/>
<path d="M34 55H46C56 55 60 51 60 41V29C60 19 56 15 46 15H34C24 15 20 19 20 29V41C20 51 24 55 34 55Z" stroke="#008AFF" stroke-width="1.5" stroke-linecap="round" stroke-linejoin="round"/>
</svg>
