<svg width="648" height="322" viewBox="0 0 648 322" fill="none" xmlns="http://www.w3.org/2000/svg">
<path fill-rule="evenodd" clip-rule="evenodd" d="M315.023 168.614C306.539 169.581 300.029 169.465 295.493 168.266C290.956 167.068 287.379 164.519 284.76 160.62C281.905 154.656 280.321 151.239 280.009 150.367C278.478 146.095 278.308 141.896 278.601 139.071C278.984 135.382 281.037 130.574 284.76 124.647C285.29 120.527 286.17 116.878 287.399 113.699C288.628 110.521 291.092 105.945 294.789 99.9708L295.317 80.3336C296.877 75.8386 298.343 72.6525 299.716 70.7757C301.088 68.8988 302.672 67.9137 304.466 67.8212C305.98 67.6793 307.388 68.0268 308.689 68.864C309.99 69.7012 312.453 71.8445 316.079 75.2939C319.073 70.1332 322.475 66.1941 326.284 63.4769C330.093 60.7597 335.137 58.6744 341.416 57.2209L342.296 55.4831L342.402 45.2612L339.481 20.3795H335.61L341.592 11.6904C342.126 9.77567 342.654 8.38575 343.176 7.51966C343.697 6.65392 344.672 5.66888 346.1 4.56558C346.126 4.24558 347.3 4.07166 349.621 4.04384C351.943 4.01601 355.601 4.13184 360.595 4.39166C362.726 4.87514 364.194 5.51236 364.994 6.30332C365.793 7.09392 366.498 8.77392 367.103 11.343L375.682 20.3917L370.273 20.727L369.745 37.2362C368.991 40.0675 368.287 41.9788 367.632 42.9708C366.977 43.9628 365.924 44.7158 364.466 45.2299L355.844 45.7513L354.788 55.8306L355.492 57.2209C359.894 58.464 362.888 59.4487 364.466 60.175C368.259 61.9193 371.689 64.4452 374.319 68.864C376.161 71.9576 378.067 76.231 380.652 80.6811C382.93 84.5993 387.093 91.4925 393.147 101.361L399.127 106.574L402.12 112.483L409.333 117.87L412.675 107.096C405.874 96.9005 402.472 90.4129 402.472 87.6323C402.472 86.4703 403.184 85.3746 403.877 84.6779C404.849 83.7078 406.181 83.1117 408.452 83.2877C409.966 83.4052 411.435 84.3318 412.851 86.0682L433.087 139.766C431.072 146.285 429.315 151.151 427.808 154.364C426.304 157.577 424.075 160.763 421.123 163.922C416.869 166.279 413.291 167.669 410.389 168.093C407.487 168.516 402.736 168.111 396.137 166.876C393.826 165.831 392.301 164.846 391.562 163.922C388.825 160.494 387.677 156.145 386.283 153.842C384.325 150.608 383.152 147.596 382.765 144.806L373.615 115.437L334.026 114.221L330.331 143.937C328.311 152.014 326.141 157.922 323.821 161.663C321.5 165.403 318.568 167.72 315.023 168.614Z" fill="white"/>
<path fill-rule="evenodd" clip-rule="evenodd" d="M317.749 175.015C317.032 174.887 316.504 174.824 316.164 174.826C314.859 174.831 313.794 174.765 313.17 173.782C312.303 172.416 312.538 170.792 313.875 168.913L317.573 167.695H319.333L332.188 168.217L336.238 167.695L350.501 167.174C352.027 167.869 352.554 169.202 352.086 171.174C351.616 173.144 350.325 174.362 348.212 174.826L343.986 175.015L315.46 304.2H297.146C300.282 283.907 302.805 268.643 304.718 258.411C306.631 248.18 310.975 220.381 317.749 175.015ZM362.475 175.015C362.447 174.605 361.33 174.541 359.129 174.826C357.252 173.898 356.488 172.449 356.84 170.478C357.192 168.507 358.073 167.463 359.481 167.347L362.123 167.695H370.223L378.323 168.217L387.303 167.347C390.12 167.579 391.529 168.855 391.529 171.174C391.529 172.491 391.078 173.176 390.473 173.782C390.166 174.089 389.578 174.437 388.712 174.826L385.894 175.015L393.114 304.374H374.096C371.536 281.111 369.892 264.805 369.166 255.451C368.303 244.312 363.419 188.943 362.475 175.015Z" fill="white"/>
<path fill-rule="evenodd" clip-rule="evenodd" d="M317.749 174.841H343.986L315.46 304.026H297.146C300.282 283.734 302.805 268.469 304.718 258.238C306.631 248.006 310.975 220.207 317.749 174.841ZM362.475 174.841H385.894L393.114 304.2H374.096C371.536 280.937 369.892 264.631 369.166 255.278C368.303 244.138 363.419 188.769 362.475 174.841Z" stroke="#132238" stroke-width="0.528397"/>
<path fill-rule="evenodd" clip-rule="evenodd" d="M334.126 59.5833L314.273 59.6754C304.368 59.7213 296.224 67.4006 295.72 77.1704L295.387 83.61C295.697 80.2987 296.108 77.9773 296.619 76.6455C297.431 74.5321 298.369 73.3161 299.437 71.945C301.05 69.8713 302.878 68.1217 304.367 67.7662C307.772 66.9537 311.587 69.5655 315.813 75.601C316.521 74.249 317.108 73.2045 317.574 72.4671C318.504 70.9954 319.495 69.4062 321.271 67.7662C324.793 64.5165 329.078 61.7888 334.126 59.5833Z" fill="#D1E4FA"/>
<path fill-rule="evenodd" clip-rule="evenodd" d="M317.926 167.355C319.737 168.008 323.141 168.298 328.139 168.225C330.86 168.186 335.758 167.384 339.937 167.181C342.267 167.068 345.788 167.068 350.502 167.181L354.552 156.56H358.426L359.658 167.181C363.779 167.436 366.712 167.609 368.463 167.703C372.224 167.905 375.351 168.052 377.795 168.052C381.944 168.052 384.994 167.761 386.952 167.181L377.971 117.561L336.239 119.128C335.693 126.684 333.698 134.983 330.252 144.025C329.518 145.952 329.4 148.388 328.667 150.815C327.55 154.513 326.32 158.091 324.969 160.565C323.688 162.912 321.34 165.175 317.926 167.355Z" fill="#D1E4FA"/>
<path d="M386.674 167.296L382.641 144.069C382.617 143.927 382.715 143.791 382.856 143.767C383 143.743 383.138 143.838 383.162 143.98L387.174 167.094H387.744C389.981 167.094 391.794 168.886 391.794 171.098C391.794 173.31 389.981 175.102 387.744 175.102H359.958C357.975 175.102 356.369 173.513 356.369 171.552C356.369 171.388 356.38 171.224 356.404 171.062L356.616 169.567C356.806 168.221 357.859 167.169 359.194 166.952L358.186 156.821H354.735L350.864 166.972C351.944 167.218 352.71 168.215 352.622 169.341C352.615 169.438 352.601 169.535 352.58 169.63L352.256 171.151C351.77 173.453 349.717 175.102 347.338 175.102H315.125C313.641 175.102 312.438 173.912 312.438 172.445C312.438 172.167 312.482 171.891 312.568 171.627C312.803 170.909 313.096 169.982 313.447 168.845C313.49 168.707 313.637 168.63 313.777 168.672C313.916 168.714 313.995 168.86 313.952 168.998C313.6 170.137 313.307 171.067 313.071 171.787C313.001 172 312.966 172.222 312.966 172.445C312.966 173.624 313.932 174.58 315.125 174.58H347.338C349.467 174.58 351.304 173.104 351.74 171.044L352.062 169.523C352.078 169.45 352.088 169.376 352.094 169.301C352.168 168.35 351.45 167.518 350.489 167.441C348.304 167.399 346.758 167.377 345.852 167.376C343.401 167.374 336.488 167.77 335.041 167.962C331.758 168.396 330.019 168.459 327.179 168.364C327.087 168.361 327.087 168.361 326.995 168.358C325.98 168.324 325.495 168.312 324.847 168.312C322.498 168.312 320.744 168.254 319.579 168.137C318.213 167.999 317.594 167.807 317.664 167.318L318.187 167.391C318.193 167.353 318.182 167.325 318.175 167.312C318.212 167.341 318.288 167.375 318.4 167.41C318.659 167.491 319.072 167.561 319.633 167.617C320.776 167.732 322.515 167.79 324.847 167.79C325.502 167.79 325.992 167.802 327.013 167.836C327.105 167.839 327.105 167.839 327.197 167.842C330.01 167.936 331.72 167.874 334.971 167.444C336.443 167.249 343.379 166.851 345.853 166.854C346.738 166.855 348.227 166.876 350.32 166.916L354.305 156.468C354.344 156.366 354.443 156.299 354.552 156.299H358.426H360.715C360.859 156.299 360.979 156.416 360.979 156.56C360.979 156.704 360.859 156.821 360.715 156.821H358.718L359.729 166.981C360.895 167.171 363.226 167.267 366.702 167.267C368.008 167.267 374.397 167.62 376.235 167.791C378.331 167.985 381.814 167.821 386.674 167.296ZM386.962 167.616L386.98 167.788C381.954 168.338 378.359 168.513 376.186 168.311C374.365 168.142 367.991 167.79 366.702 167.79C362.983 167.79 360.567 167.681 359.429 167.458L359.433 167.447C358.253 167.568 357.302 168.471 357.137 169.639L356.926 171.134C356.908 171.273 356.897 171.413 356.897 171.552C356.897 173.224 358.267 174.58 359.958 174.58H387.744C389.688 174.58 391.266 173.021 391.266 171.098C391.266 169.175 389.688 167.616 387.744 167.616H386.962Z" fill="#132238"/>
<path d="M356.21 45.7418L355.186 56.4424C363.532 59.2476 368.871 61.6834 371.217 63.771C374.263 66.4785 382.067 82.1262 386.064 92.3954C387.272 95.4966 389.146 97.4611 393.689 101.097L394.069 101.403C398.633 105.054 400.496 107.026 401.641 110.159C403.402 114.997 406.931 116.16 412.372 113.667C412.505 113.607 412.664 113.664 412.724 113.794C412.784 113.925 412.727 114.081 412.594 114.141C406.885 116.756 403.018 115.481 401.141 110.336C400.046 107.323 398.228 105.401 393.738 101.809L393.354 101.503C388.741 97.811 386.825 95.7982 385.571 92.5829C381.609 82.4037 373.819 66.7877 370.864 64.1596C368.568 62.1182 363.212 59.6813 354.819 56.8709C354.703 56.8319 354.629 56.7192 354.64 56.5989L355.682 45.7418H352.615C352.47 45.7418 352.351 45.625 352.351 45.4806C352.351 45.3366 352.47 45.2194 352.615 45.2194H355.967C355.971 45.2194 355.971 45.2194 355.974 45.2194H361.838C365.473 45.2194 367.582 43.7585 368.684 40.8055C369.568 38.4326 369.783 35.69 369.783 29.827V25.834C369.783 25.7787 369.783 25.7338 369.783 25.6323C369.787 23.691 369.695 22.5724 369.273 20.867C369.266 20.857 369.251 20.8444 369.237 20.8298C369.195 20.7891 369.139 20.7359 369.065 20.6705H343.883C343.737 20.6705 343.619 20.5537 343.619 20.4097C343.619 20.2653 343.737 20.1484 343.883 20.1484H369.167C369.23 20.1484 369.294 20.1717 369.343 20.2138C369.653 20.4869 369.748 20.5787 369.776 20.6952C370.22 22.4764 370.315 23.6354 370.311 25.633C370.311 25.7345 370.311 25.779 370.311 25.834V29.827C370.311 35.7561 370.093 38.5331 369.177 40.9863C368.001 44.1439 365.694 45.7418 361.838 45.7418H356.21ZM433.361 139.424L433.868 139.571C429.445 154.428 424.744 163.089 419.714 165.568C411.794 169.471 402.113 169.771 394.231 165.949C393.189 165.444 392.372 164.738 391.541 163.654C390.949 162.881 390.368 161.951 389.435 160.337C389.192 159.914 388.262 158.288 388.124 158.05C387.54 157.033 387.036 156.167 386.501 155.265C385.765 154.029 384.719 151.302 383.356 147.063L383.856 146.905C385.208 151.106 386.247 153.81 386.955 155C387.494 155.905 388.001 156.773 388.586 157.792C388.723 158.031 389.649 159.657 389.892 160.078C390.815 161.674 391.389 162.589 391.963 163.339C392.745 164.362 393.502 165.013 394.464 165.48C402.194 169.228 411.702 168.933 419.478 165.101C424.331 162.709 428.977 154.146 433.361 139.424Z" fill="#132238"/>
<path fill-rule="evenodd" clip-rule="evenodd" d="M360.89 58.8869L364.059 60.1057C366.288 66.8379 367.993 72.5833 369.166 77.3422C370.338 82.1008 371.103 89.1812 371.455 98.5829L367.053 97.3641C367.405 89.8198 366.76 83.1457 365.116 77.3422C364.401 74.8142 362.992 68.6626 360.89 58.8869ZM333.948 59.5833L336.942 58.3645C337.646 63.5102 337.998 67.5729 337.998 70.552C337.998 73.5311 337.998 76.5488 337.998 79.6055L333.42 86.0473C334.124 83.9582 334.476 79.2574 334.476 71.9447C334.476 64.6323 334.3 60.512 333.948 59.5833Z" fill="#D1E4FA"/>
<path d="M360.809 58.9417L360.707 58.469L364.447 59.9076L364.485 60.0248C366.718 66.7629 368.423 72.5145 369.599 77.2808C370.779 82.0603 371.543 89.1559 371.895 98.574L371.909 98.9316L366.954 97.5601L366.965 97.3528C367.317 89.8345 366.673 83.1879 365.038 77.413C364.32 74.878 362.911 68.7236 360.809 58.9417ZM365.546 77.2721C367.183 83.0509 367.835 89.6832 367.504 97.1691L371.353 98.2356C370.997 89.0279 370.24 82.0825 369.085 77.4046C367.919 72.6804 366.232 66.9803 364.024 60.3048L361.425 59.3062C363.471 68.8015 364.845 74.7928 365.546 77.2721ZM333.877 59.6756L333.788 59.4387L337.334 57.9949L337.38 58.3302C338.086 63.4863 338.439 67.5597 338.439 70.5524V79.6884L332.775 87.6575L333.346 85.9653C334.038 83.9124 334.389 79.2286 334.389 71.9455C334.389 64.6905 334.212 60.5584 333.877 59.6756ZM334.917 71.9455C334.917 77.9827 334.678 82.2457 334.195 84.7521L337.91 79.5236V70.5524C337.91 67.6519 337.574 63.7121 336.902 58.7357L334.445 59.7357C334.764 61.0432 334.917 65.079 334.917 71.9455Z" fill="#132238"/>
<path d="M355.883 59.6572L356.39 59.509L380.345 139.449C381.711 146.514 386.645 150.031 395.228 150.031C403.814 150.031 410.871 144.365 416.411 132.982L416.887 133.209C411.269 144.755 404.046 150.553 395.228 150.553C386.406 150.553 381.243 146.874 379.831 139.572L355.883 59.6572ZM368.906 124.31L369.428 124.39C366.709 141.801 361.602 150.553 354.024 150.553C347.893 150.553 343.814 131.696 342.138 95.6349C341.822 88.8356 341.646 77.2256 341.609 60.8026L342.138 60.8012C342.174 77.2172 342.35 88.821 342.666 95.6109C344.32 131.202 348.393 150.031 354.024 150.031C361.236 150.031 366.223 141.489 368.906 124.31Z" fill="#132238"/>
<path fill-rule="evenodd" clip-rule="evenodd" d="M395.219 115.746L413.67 113.831L414.762 124.086L396.311 126.001L395.219 115.746ZM378.107 97.3621L376.371 81.0679C377.068 79.3061 378.9 78.271 381.872 77.9625C384.841 77.6543 386.852 78.2905 387.905 79.871L389.637 96.1649L378.107 97.3621ZM426.538 92.3343L415.008 93.5315L413.272 77.2373C413.969 75.4755 415.8 74.4404 418.773 74.1322C421.742 73.8237 423.753 74.4599 424.806 76.0404L426.538 92.3343Z" fill="#132238"/>
<path fill-rule="evenodd" clip-rule="evenodd" d="M376.657 115.455L373.977 90.2732C375.1 87.5452 378.037 85.9348 382.791 85.4416C387.542 84.948 390.754 85.9202 392.427 88.3581L395.107 113.54L376.657 115.455ZM432.008 109.709L413.557 111.625L410.877 86.4426C412.001 83.715 414.938 82.1042 419.692 81.611C424.443 81.1174 427.655 82.0896 429.328 84.5275L432.008 109.709Z" fill="white"/>
<path fill-rule="evenodd" clip-rule="evenodd" d="M376.541 115.525L373.861 90.3434C374.985 87.6158 377.922 86.005 382.676 85.5117C387.427 85.0185 390.639 85.9904 392.312 88.4283L394.992 113.61L376.541 115.525ZM431.893 109.78L413.442 111.695L410.762 86.5128C411.886 83.7851 414.823 82.1744 419.577 81.6811C424.328 81.1879 427.54 82.1601 429.213 84.5977L431.893 109.78Z" fill="white" stroke="#132238" stroke-width="0.528397" stroke-linecap="round" stroke-linejoin="round"/>
<path fill-rule="evenodd" clip-rule="evenodd" d="M376.091 143.365L372.988 114.234C374.594 111.046 378.662 109.113 385.198 108.435C391.731 107.757 396.119 108.812 398.359 111.6L401.458 140.732L376.091 143.365ZM438.359 136.901L412.992 139.535L409.889 110.403C411.495 107.215 415.563 105.283 422.099 104.604C428.632 103.926 433.02 104.981 435.26 107.77L438.359 136.901Z" fill="white"/>
<path d="M376.035 143.633C375.89 143.648 375.76 143.544 375.746 143.4L372.647 114.268C372.64 114.219 372.65 114.169 372.671 114.125C374.323 110.84 378.472 108.869 385.089 108.183C391.703 107.496 396.175 108.572 398.486 111.445C398.517 111.484 398.535 111.531 398.542 111.58L401.641 140.712C401.655 140.856 401.55 140.984 401.405 140.999L376.035 143.633ZM401.088 140.507L398.024 111.711C395.837 109.052 391.551 108.037 385.142 108.702C378.736 109.368 374.756 111.24 373.178 114.29L376.242 143.086L401.088 140.507ZM438.542 136.882C438.556 137.025 438.45 137.154 438.306 137.169L412.935 139.802C412.791 139.817 412.661 139.713 412.647 139.57L409.548 110.438C409.54 110.388 409.551 110.339 409.572 110.294C411.227 107.01 415.376 105.039 421.99 104.352C428.604 103.666 433.076 104.741 435.387 107.614C435.418 107.653 435.436 107.7 435.443 107.75L438.542 136.882ZM437.989 136.676L434.925 107.881C432.738 105.221 428.452 104.207 422.046 104.872C415.637 105.537 411.661 107.409 410.079 110.46L413.143 139.256L437.989 136.676Z" fill="#132238"/>
<path fill-rule="evenodd" clip-rule="evenodd" d="M389.146 146.33C382.141 147.057 376.26 145.733 376.006 143.374C375.756 141.014 381.233 138.511 388.237 137.784C395.242 137.057 401.127 138.38 401.377 140.74C401.63 143.1 396.154 145.603 389.146 146.33ZM426.05 142.499C419.042 143.227 413.161 141.903 412.911 139.543C412.657 137.183 418.133 134.681 425.138 133.953C432.146 133.226 438.028 134.55 438.278 136.909C438.531 139.269 433.055 141.772 426.05 142.499Z" fill="#132238"/>
<path d="M369.773 120.379C371.988 120.149 373.594 118.188 373.361 115.999C373.129 113.811 371.143 112.223 368.927 112.453C366.712 112.683 365.106 114.643 365.339 116.832C365.571 119.021 367.557 120.609 369.773 120.379ZM369.716 119.859C367.79 120.059 366.068 118.679 365.864 116.778C365.663 114.876 367.057 113.172 368.984 112.972C370.907 112.773 372.632 114.152 372.837 116.054C373.037 117.956 371.643 119.66 369.716 119.859Z" fill="#132238"/>
<path d="M285.221 124.688L288.78 123.408C288.917 123.359 289.068 123.429 289.118 123.565C289.168 123.7 289.097 123.85 288.96 123.9L285.796 125.037L289.004 126.911C289.13 126.984 289.171 127.145 289.097 127.269C289.023 127.393 288.861 127.434 288.735 127.361L285.154 125.268L285.086 125.292C285.055 125.303 285.023 125.309 284.992 125.308C278.525 133.823 277.029 142.224 280.486 150.541C283.856 158.649 285.371 161.543 287.924 164.041C290.868 166.921 294.921 168.417 301.929 169.184C315.146 170.63 322.865 166.3 326.303 156.647C328.452 150.616 329.68 146.393 329.988 143.991C330.007 143.848 330.139 143.747 330.284 143.765C330.428 143.783 330.531 143.914 330.512 144.057C330.198 146.506 328.961 150.757 326.802 156.821C323.279 166.712 315.323 171.175 301.871 169.703C294.755 168.925 290.595 167.388 287.553 164.412C284.929 161.846 283.397 158.917 279.997 150.74C276.446 142.196 278.012 133.556 284.677 124.853C285.395 116.016 288.639 107.745 294.407 100.044C300.158 92.367 306.084 86.5952 312.188 82.7308C316.313 71.9232 322.304 64.6853 330.161 61.0331C334.076 59.2136 337.014 58.0039 338.98 57.4032C340.298 57.0011 341.235 56.8529 341.759 57.0164L342.665 40.5914C342.673 40.4474 342.797 40.3371 342.943 40.3441C343.089 40.3528 343.2 40.4759 343.192 40.6199L342.25 57.7065C342.232 58.0446 341.722 58.031 341.722 57.6922C341.722 57.3726 340.908 57.3615 339.136 57.9023C337.198 58.4943 334.28 59.6957 330.386 61.5058C322.645 65.1037 316.733 72.2616 312.651 82.9959C312.631 83.0491 312.594 83.094 312.546 83.1242C306.475 86.9517 300.57 92.6947 294.832 100.355C289.166 107.918 285.964 116.028 285.221 124.688Z" fill="#132238"/>
<path fill-rule="evenodd" clip-rule="evenodd" d="M342.049 55.5791L339.575 61.7662C339.432 62.1235 339.609 62.5276 339.971 62.6688C340.114 62.7242 340.271 62.7325 340.418 62.6921L350.984 59.7968L357.978 62.2567C358.344 62.3857 358.745 62.1968 358.876 61.8348C358.957 61.6184 358.921 61.3777 358.784 61.192L354.903 55.9273C354.185 56.5461 352.642 56.8556 350.278 56.8556C347.914 56.8556 345.171 56.4302 342.049 55.5791Z" fill="white"/>
<path d="M350.82 59.9873L340.665 62.7696C340.462 62.8253 340.246 62.8141 340.05 62.7376C339.553 62.5432 339.309 61.9866 339.506 61.4948L341.979 55.3091C342.028 55.1849 342.165 55.1178 342.295 55.1532C345.396 55.9988 348.116 56.4207 350.454 56.4207C352.758 56.4207 354.248 56.1212 354.906 55.5564C355.023 55.4559 355.202 55.4757 355.294 55.5995L359.171 60.8625C359.358 61.1181 359.407 61.4496 359.302 61.7473C359.122 62.2458 358.569 62.5059 358.062 62.3286L351.349 59.9665C351.361 60.0656 351.375 60.1818 351.39 60.3153C351.457 60.8819 351.555 61.7599 351.688 62.9501C351.952 65.3299 352.35 68.9574 352.878 73.8326C352.892 73.9759 352.786 74.1045 352.642 74.1199C352.498 74.1352 352.367 74.0315 352.35 73.8882C351.823 69.0134 351.427 65.3863 351.162 63.0072C351.031 61.8179 350.931 60.9404 350.866 60.3752C350.848 60.2232 350.832 60.0938 350.82 59.9873ZM350.813 56.9407C350.871 57.1644 350.927 57.4138 350.979 57.6861C351.066 58.1296 351.134 58.5564 351.213 59.1195L351.247 59.3581C351.248 59.3647 351.249 59.371 351.25 59.3773L358.242 61.8364C358.47 61.9171 358.72 61.7988 358.801 61.5724C358.851 61.4371 358.83 61.2865 358.745 61.1703L355.023 56.1219C354.227 56.6472 352.829 56.9129 350.813 56.9407ZM350.73 59.4698C350.728 59.4576 350.726 59.4447 350.724 59.4312L350.69 59.1922C350.612 58.6371 350.545 58.2176 350.461 57.7846C350.399 57.468 350.335 57.1856 350.267 56.9421C347.979 56.9209 345.352 56.5129 342.383 55.7188L339.997 61.6868C339.907 61.9105 340.018 62.1633 340.244 62.2517C340.333 62.2865 340.432 62.2917 340.524 62.2663L350.73 59.4698Z" fill="#132238"/>
<path fill-rule="evenodd" clip-rule="evenodd" d="M314.756 115.349C329.368 92.3197 337.762 79.6098 339.936 77.2195C341.633 75.3541 344.54 75.2007 346.429 76.8769C347.843 78.1315 348.329 80.1155 347.653 81.8696L342.402 95.5009" fill="white"/>
<path d="M314.918 115.61C329.514 92.6077 337.913 79.8897 340.071 77.5172C341.672 75.7579 344.411 75.6146 346.191 77.1972C347.522 78.3812 347.98 80.2532 347.342 81.9078L342.093 95.5308L342.587 95.7165L347.836 82.0936C348.551 80.2372 348.038 78.1374 346.544 76.809C344.548 75.0334 341.474 75.1941 339.679 77.168C337.488 79.5756 329.1 92.2772 314.471 115.333L314.918 115.61Z" fill="#132238"/>
<path fill-rule="evenodd" clip-rule="evenodd" d="M347.396 30.6924C346.985 30.5728 346.55 30.5084 346.099 30.5084C343.571 30.5084 341.521 32.5352 341.521 35.035C341.521 37.1592 343.001 38.9418 344.996 39.4298L344.789 43.6416C344.734 44.7651 343.788 45.643 342.649 45.6274L337.215 45.5519C336.867 45.547 336.52 45.4959 336.186 45.3995C334.132 44.8086 332.952 42.6848 333.55 40.6559L339.522 20.4103H340.229L340.232 20.4065L341.061 20.4103H344.162L344.163 20.4249L351.529 20.4601C350.679 24.3237 349.915 26.9056 349.238 28.2054C348.755 29.1338 348.14 29.963 347.396 30.6924ZM372.424 20.4103C373.114 23.3119 372.044 24.763 369.205 24.763C366.363 24.763 362.105 23.3119 356.428 20.4103H372.424Z" fill="#132238"/>
<path fill-rule="evenodd" clip-rule="evenodd" d="M307.249 121.426L331.159 100.385C334.64 97.3217 339.155 95.6559 343.816 95.7154L371.043 96.0615C374.762 96.1088 377.801 99.0055 377.981 102.674C378.153 106.147 375.442 109.099 371.923 109.268C371.846 109.272 371.765 109.274 371.684 109.275L348.635 109.524C347.224 109.539 346.094 110.681 346.109 112.073V112.076C346.126 113.486 347.268 114.631 348.695 114.67L372.487 115.314C375.73 115.402 378.315 118.013 378.333 121.217C378.351 124.373 375.773 126.945 372.578 126.962C372.568 126.962 372.557 126.962 372.547 126.962H349.867C348.473 126.962 347.342 128.079 347.342 129.457C347.342 129.467 347.342 129.477 347.342 129.487C347.36 131.002 348.338 132.342 349.787 132.839L364.309 137.818C366.824 138.68 368.152 141.391 367.278 143.873C367.24 143.983 367.197 144.091 367.152 144.199C365.989 146.857 362.961 148.195 360.178 147.279L336.57 139.498L323.798 147.917C317.247 152.235 308.393 150.49 304.022 144.021C303.61 143.412 303.248 142.773 302.937 142.109C301.825 139.731 301.478 136.324 301.896 131.888C302.277 127.857 304.189 124.119 307.249 121.426Z" fill="white"/>
<path d="M306.298 146.155L310.752 143.324C309.224 141.881 307.99 140.109 306.947 138.048C305.437 135.061 305.934 129.349 308.409 120.875L307.565 121.617C304.551 124.27 302.666 127.956 302.293 131.929C301.881 136.316 302.224 139.674 303.312 142C303.615 142.649 303.969 143.273 304.37 143.867C304.94 144.713 305.588 145.477 306.298 146.155ZM306.698 146.522C311.339 150.62 318.36 151.277 323.778 147.705L325.01 146.893C320.114 147.767 316.131 147.053 312.94 145.028C312.304 144.625 311.71 144.178 311.154 143.69L306.698 146.522ZM308.69 119.928C308.691 119.927 308.691 119.925 308.692 119.924C308.722 119.824 308.806 119.756 308.903 119.74L331.12 100.189C334.649 97.0832 339.225 95.3945 343.949 95.4547L371.188 95.8008C375.041 95.8498 378.193 98.8554 378.379 102.662C378.559 106.279 375.738 109.353 372.079 109.529C371.998 109.533 371.913 109.536 371.829 109.536L348.77 109.786C347.507 109.799 346.495 110.822 346.509 112.071V112.073C346.524 113.343 347.551 114.374 348.835 114.409L372.635 115.053C376.016 115.145 378.714 117.872 378.731 121.216C378.749 124.517 376.058 127.206 372.72 127.224H372.688H350C348.752 127.224 347.741 128.224 347.741 129.457C347.741 129.471 347.741 129.471 347.741 129.484C347.758 130.889 348.665 132.132 350.007 132.592L364.535 137.574C367.184 138.481 368.585 141.339 367.666 143.956C367.624 144.073 367.578 144.189 367.529 144.303C366.31 147.086 363.144 148.487 360.235 147.528L336.744 139.787L324.071 148.14C317.397 152.539 308.38 150.756 303.93 144.157C303.514 143.54 303.147 142.892 302.833 142.22C301.699 139.796 301.347 136.351 301.767 131.881C302.153 127.776 304.099 123.968 307.214 121.227L308.69 119.928ZM309.154 120.22C306.51 129.014 305.942 134.893 307.42 137.815C308.88 140.702 310.719 142.998 313.225 144.589C316.488 146.659 320.618 147.309 325.793 146.207C325.865 146.192 325.937 146.207 325.994 146.245L336.666 139.21L360.401 147.033C363.049 147.906 365.937 146.63 367.043 144.095C367.088 143.993 367.131 143.889 367.166 143.784C367.99 141.44 366.733 138.88 364.363 138.067L349.834 133.086C348.281 132.553 347.233 131.115 347.213 129.49C347.213 129.474 347.213 129.474 347.213 129.457C347.213 127.935 348.461 126.702 350 126.702H372.688L372.716 126.701C375.763 126.686 378.221 124.231 378.203 121.219C378.189 118.157 375.717 115.659 372.621 115.575L348.821 114.931C347.253 114.889 345.999 113.63 345.98 112.08V112.077C345.963 110.54 347.21 109.28 348.764 109.263L371.825 109.014C371.899 109.013 371.977 109.011 372.054 109.007C375.421 108.845 378.016 106.016 377.851 102.688C377.678 99.1566 374.755 96.3684 371.181 96.3232L343.942 95.9768C339.35 95.9183 334.902 97.5601 331.472 100.579L309.154 120.22Z" fill="#132238"/>
<path fill-rule="evenodd" clip-rule="evenodd" d="M426.424 102.141L426.427 102.849C426.445 106.459 429.41 109.378 433.069 109.378H438.077C433.939 109.692 431.238 111.027 429.977 113.382C427.995 117.091 429.431 121.687 433.189 123.646C434.295 124.223 435.528 124.525 436.778 124.525H438.958L438.363 124.814C434.175 126.845 432.443 131.845 434.499 135.983C434.622 136.233 434.76 136.476 434.908 136.712C436.912 139.466 440.796 140.096 443.582 138.119C443.768 137.987 443.948 137.845 444.117 137.693L448.005 134.234C450.153 132.323 451.161 129.463 450.682 126.648C450.65 126.443 450.615 126.258 450.579 126.092C450.379 125.077 449.674 123.568 448.466 121.565C449.291 119.94 449.523 117.967 449.171 115.646C448.819 113.324 447.822 111.293 446.177 109.552C446.98 107.525 447.096 105.262 446.529 102.762C446.308 101.772 445.998 100.928 445.6 100.231C444.874 98.9513 443.564 98.1001 442.085 97.9471L432.256 96.9276C429.354 96.6268 426.755 98.7061 426.452 101.572C426.431 101.761 426.424 101.951 426.424 102.141Z" fill="white"/>
<path d="M439.031 124.09L448.395 121.175C449.149 119.621 449.364 117.734 449.025 115.51C448.68 113.247 447.712 111.269 446.113 109.57V109.639L437.995 109.482C434.062 109.819 431.515 111.107 430.325 113.33C428.413 116.91 429.793 121.347 433.417 123.239C434.484 123.798 435.675 124.09 436.882 124.09H439.031ZM439.172 124.594L438.587 124.876C434.537 126.84 432.861 131.681 434.847 135.688C434.97 135.932 435.1 136.17 435.238 136.386C437.157 139.026 440.876 139.627 443.546 137.73C443.722 137.604 443.891 137.469 444.053 137.325L447.937 133.87C450.022 132.016 451.001 129.237 450.533 126.505C450.501 126.307 450.466 126.129 450.434 125.968C450.247 125.019 449.589 123.593 448.462 121.702L439.172 124.594ZM438.193 108.963L446.109 109.116C446.831 107.183 446.926 105.027 446.388 102.645C446.169 101.679 445.866 100.86 445.486 100.187C444.799 98.98 443.567 98.1768 442.172 98.0325L432.343 97.013C429.585 96.7271 427.117 98.7048 426.828 101.43C426.81 101.61 426.8 101.79 426.8 101.971L426.803 102.673C426.821 106.14 429.666 108.942 433.174 108.942H438.193V108.963ZM429.86 113.086C430.8 111.328 432.501 110.123 434.953 109.465H433.174C429.378 109.465 426.293 106.43 426.275 102.676L426.271 101.974C426.271 101.774 426.282 101.574 426.303 101.376C426.624 98.3636 429.353 96.1779 432.399 96.4937L442.228 97.5132C443.792 97.6749 445.176 98.5765 445.947 99.9309C446.356 100.652 446.673 101.518 446.902 102.531C447.465 105.017 447.363 107.282 446.599 109.319C448.212 111.073 449.194 113.112 449.547 115.432C449.899 117.743 449.677 119.727 448.881 121.379C450.057 123.345 450.748 124.837 450.955 125.867C450.987 126.032 451.022 126.216 451.054 126.418C451.551 129.327 450.508 132.284 448.289 134.258L444.408 137.714C444.232 137.87 444.046 138.018 443.855 138.154C440.947 140.22 436.897 139.565 434.798 136.676C434.643 136.43 434.502 136.178 434.375 135.918C432.325 131.785 433.935 126.819 437.96 124.612H436.882C435.586 124.612 434.312 124.299 433.167 123.701C429.29 121.673 427.807 116.921 429.86 113.086ZM433.167 98.4036C433.311 98.4015 433.431 98.5167 433.435 98.661C433.435 98.8054 433.318 98.9236 433.174 98.9257C431.227 98.9532 430.364 100.103 430.529 102.513C430.698 104.933 431.565 106.019 433.153 105.909C433.301 105.899 433.424 106.007 433.435 106.151C433.445 106.295 433.336 106.42 433.192 106.43C431.258 106.563 430.188 105.223 430.005 102.548C429.818 99.8621 430.888 98.4353 433.167 98.4036ZM435.692 113.296C435.837 113.284 435.963 113.391 435.977 113.534C435.988 113.678 435.882 113.805 435.734 113.816C433.794 113.978 433.016 115.185 433.35 117.577C433.688 119.979 434.632 121.003 436.21 120.784C436.354 120.764 436.488 120.863 436.506 121.006C436.527 121.149 436.425 121.281 436.28 121.301C434.364 121.567 433.202 120.305 432.829 117.649C432.452 114.982 433.421 113.485 435.692 113.296ZM439.393 128.526C439.538 128.496 439.675 128.587 439.707 128.728C439.735 128.869 439.644 129.007 439.503 129.037C437.597 129.431 436.97 130.723 437.601 133.056C438.231 135.4 439.291 136.303 440.83 135.895C440.971 135.858 441.116 135.941 441.154 136.08C441.193 136.22 441.109 136.363 440.968 136.4C439.098 136.895 437.788 135.781 437.09 133.19C436.386 130.589 437.164 128.986 439.393 128.526Z" fill="#132238"/>
<path fill-rule="evenodd" clip-rule="evenodd" d="M210.589 175.257L219.14 263.451H223.542L219.349 174.407C219.239 172.071 217.232 170.265 214.866 170.373C214.794 170.377 214.722 170.382 214.649 170.389C212.168 170.628 210.352 172.806 210.589 175.257Z" fill="white"/>
<path d="M210.327 175.118L218.9 263.547H223.819L219.614 174.231C219.497 171.751 217.366 169.833 214.855 169.949C214.778 169.952 214.701 169.958 214.624 169.965C211.998 170.218 210.075 172.523 210.327 175.118ZM219.38 263.026L210.853 175.068C210.629 172.76 212.339 170.709 214.676 170.484C214.743 170.478 214.811 170.473 214.879 170.47C217.099 170.368 218.983 172.063 219.086 174.255L223.266 263.026H219.38Z" fill="#132238"/>
<path d="M216.983 265.997C216.928 266.13 216.773 266.194 216.638 266.14C216.503 266.085 216.439 265.933 216.494 265.8C219.979 257.384 222.007 251.504 222.578 248.174C222.602 248.032 222.739 247.936 222.882 247.96C223.027 247.984 223.123 248.119 223.099 248.261C222.52 251.64 220.482 257.547 216.983 265.997ZM222.385 236.553C222.431 236.689 222.356 236.837 222.218 236.883C222.08 236.929 221.93 236.855 221.884 236.718C220.333 232.151 217.199 228.254 212.475 225.024C212.355 224.942 212.325 224.779 212.408 224.661C212.491 224.543 212.656 224.513 212.776 224.595C217.59 227.886 220.796 231.873 222.385 236.553ZM218.595 255.05C218.535 255.182 218.379 255.24 218.246 255.18C218.113 255.121 218.054 254.966 218.114 254.835C218.585 253.808 218.901 252.971 219.06 252.329C221.253 243.5 219.894 237.049 216.012 232.464C215.919 232.353 215.933 232.188 216.045 232.096C216.157 232.004 216.324 232.018 216.418 232.129C220.41 236.845 221.804 243.468 219.573 252.453C219.405 253.132 219.079 253.996 218.595 255.05ZM212.369 170.945C212.351 170.802 212.453 170.672 212.598 170.654C212.742 170.635 212.875 170.736 212.893 170.879C215.182 188.6 223.771 197.972 238.699 199.072C238.844 199.083 238.953 199.208 238.942 199.352C238.931 199.495 238.805 199.603 238.659 199.592C223.464 198.472 214.688 188.897 212.369 170.945ZM216.236 170.676C216.223 170.533 216.329 170.406 216.474 170.392C216.62 170.379 216.749 170.484 216.762 170.627C218.263 186.232 225.405 194.367 238.237 195.299C238.382 195.31 238.491 195.435 238.481 195.578C238.47 195.722 238.343 195.83 238.198 195.819C225.089 194.867 217.759 186.518 216.236 170.676Z" fill="#132238"/>
<path fill-rule="evenodd" clip-rule="evenodd" d="M356.841 32.248C356.161 32.248 355.608 31.6244 355.608 30.8553C355.608 30.0859 356.161 29.4623 356.841 29.4623C357.52 29.4623 358.073 30.0859 358.073 30.8553C358.073 31.6244 357.52 32.248 356.841 32.248ZM367.758 32.248C367.078 32.248 366.525 31.6244 366.525 30.8553C366.525 30.0859 367.078 29.4623 367.758 29.4623C368.438 29.4623 368.991 30.0859 368.991 30.8553C368.991 31.6244 368.438 32.248 367.758 32.248ZM354.4 29.6313C354.305 29.7412 354.139 29.7548 354.03 29.6616C353.918 29.5684 353.903 29.4038 353.999 29.2936C354.041 29.2445 354.115 29.1628 354.22 29.0595C354.397 28.8884 354.59 28.7172 354.805 28.5572C355.432 28.0911 356.087 27.8083 356.749 27.8083C357.707 27.8083 358.228 28.0344 358.756 28.608C358.841 28.6984 358.925 28.7972 359.038 28.9329C359.07 28.9725 359.271 29.2209 359.334 29.2974C359.426 29.4094 359.408 29.5739 359.295 29.6651C359.183 29.7558 359.017 29.7391 358.925 29.6275C358.862 29.5489 358.658 29.3002 358.626 29.2619C358.52 29.1336 358.443 29.0414 358.369 28.9597C357.939 28.4953 357.559 28.3308 356.749 28.3308C356.224 28.3308 355.668 28.5704 355.126 28.9746C354.928 29.1193 354.752 29.2748 354.594 29.4303C354.499 29.5224 354.432 29.593 354.4 29.6313ZM365.677 29.624C365.585 29.7374 365.42 29.7569 365.307 29.6678C365.191 29.5784 365.17 29.4143 365.261 29.3009C365.3 29.2518 365.37 29.1701 365.469 29.0664C365.631 28.895 365.814 28.7235 366.015 28.5631C366.599 28.0936 367.212 27.8083 367.835 27.8083C368.734 27.8083 369.23 28.0379 369.723 28.615C369.801 28.7057 369.878 28.8045 369.98 28.9402C370.012 28.9798 370.199 29.2282 370.258 29.3047C370.346 29.4198 370.322 29.5837 370.206 29.6706C370.089 29.7576 369.924 29.735 369.836 29.6198C369.776 29.5416 369.589 29.2925 369.561 29.2543C369.463 29.1263 369.389 29.0341 369.318 28.9524C368.924 28.4918 368.579 28.3308 367.835 28.3308C367.357 28.3308 366.846 28.5677 366.346 28.9687C366.166 29.113 366.001 29.2682 365.856 29.4233C365.768 29.5155 365.708 29.5857 365.677 29.624ZM363.824 34.4244H365.902L363.578 28.5124C363.525 28.3781 363.592 28.2268 363.726 28.1743C363.863 28.1221 364.014 28.1885 364.067 28.3231L366.532 34.591C366.603 34.7621 366.473 34.9468 366.289 34.9468H363.824C363.676 34.9468 363.56 34.8299 363.56 34.6856C363.56 34.5412 363.676 34.4244 363.824 34.4244ZM362.539 38.0497C362.409 38.1179 362.25 38.0699 362.18 37.943C362.113 37.8157 362.162 37.6574 362.289 37.5892C363.247 37.0824 364.166 37.0824 365.018 37.5969C365.141 37.672 365.18 37.8327 365.106 37.9558C365.029 38.079 364.867 38.1176 364.74 38.0421C364.057 37.6278 363.335 37.6278 362.539 38.0497Z" fill="#132238"/>
<path fill-rule="evenodd" clip-rule="evenodd" d="M168.252 191.018L182.339 234.022L251.893 224.794V174.478L183.181 188.066L182.339 193.978L177.832 189.123L168.252 191.018Z" fill="white"/>
<path d="M178.026 188.788C177.964 188.72 177.87 188.69 177.779 188.708L168.199 190.603C168.044 190.633 167.951 190.791 167.999 190.939L182.086 233.943C182.126 234.063 182.246 234.138 182.373 234.121L251.927 224.894C252.058 224.876 252.156 224.766 252.156 224.635V174.319C252.156 174.154 252.004 174.03 251.84 174.063L183.128 187.65C183.018 187.672 182.934 187.76 182.918 187.87L182.154 193.234L178.026 188.788ZM177.737 189.249L182.143 193.995C182.294 194.157 182.568 194.073 182.599 193.855L183.415 188.126L251.628 174.637V224.407L182.521 233.575L168.593 191.057L177.737 189.249Z" fill="#132238"/>
<path fill-rule="evenodd" clip-rule="evenodd" d="M152.756 310.725H176.175C185.4 286.989 193.87 272.169 201.584 266.263C202.04 265.915 199.322 262.048 193.432 254.664C197.25 257.65 199.892 259.565 201.356 260.41C202.045 260.808 202.104 255.121 201.532 243.348L207.837 262.22C210.238 261.028 212.069 260.192 213.33 259.714C231.056 252.981 245.613 269.984 256.999 310.725H495.069" fill="white"/>
<path d="M201.223 260.553C201.474 260.697 201.701 260.563 201.825 260.302C201.905 260.132 201.967 259.875 202.017 259.521C202.112 258.846 202.167 257.795 202.182 256.363C202.208 253.829 202.109 250.093 201.886 245.154L207.587 262.219C207.638 262.37 207.812 262.442 207.956 262.37C210.35 261.182 212.174 260.35 213.425 259.874C230.943 253.222 245.395 270.103 256.745 310.712C256.777 310.827 256.881 310.903 257 310.903H495.069C495.214 310.903 495.333 310.788 495.333 310.642C495.333 310.5 495.214 310.381 495.069 310.381H257.201C245.785 269.647 231.142 252.587 213.236 259.388C212.013 259.852 210.267 260.645 207.993 261.768L201.783 243.183C201.687 242.895 201.254 242.974 201.269 243.278C201.555 249.159 201.683 253.52 201.654 256.358C201.639 257.769 201.585 258.801 201.494 259.449C201.456 259.714 201.412 259.911 201.367 260.031C199.893 259.159 197.3 257.273 193.596 254.377C193.351 254.185 193.031 254.5 193.225 254.743C196.167 258.431 198.316 261.24 199.671 263.168C200.345 264.127 200.821 264.866 201.098 265.382C201.231 265.63 201.315 265.822 201.352 265.954C201.359 265.979 201.363 266.001 201.366 266.018C193.635 271.974 185.188 286.757 175.995 310.381H152.756C152.611 310.381 152.492 310.5 152.492 310.642C152.492 310.788 152.611 310.903 152.756 310.903H176.176C176.285 310.903 176.383 310.837 176.422 310.736C185.631 287.042 194.082 272.253 201.746 266.387C202.179 266.056 201.649 265.068 200.105 262.871C198.96 261.241 197.255 258.991 194.989 256.12C197.901 258.357 199.977 259.833 201.223 260.553Z" fill="#132238"/>
<path d="M359.562 3.78271H349.557C345.063 3.78271 341.414 7.36289 341.369 11.7963L335.43 20.261C335.309 20.4342 335.434 20.6711 335.647 20.6711H375.797C376.029 20.6711 376.146 20.3942 375.987 20.2286L367.394 11.4241C367.338 7.19419 363.851 3.78271 359.562 3.78271ZM341.85 12.0276C341.881 11.9838 341.897 11.9319 341.897 11.8787C341.897 7.69576 345.326 4.30515 349.557 4.30515H359.562C363.598 4.30515 366.869 7.53993 366.869 11.5305C366.869 11.598 366.894 11.6631 366.943 11.7118L375.174 20.1486H336.152L341.85 12.0276Z" fill="#132238"/>
<path fill-rule="evenodd" clip-rule="evenodd" d="M367.025 11.7046L341.521 12.0528L339.76 14.6646H369.871L367.025 11.7046Z" fill="#D1E4FA"/>
<path d="M367.198 11.2696L341.694 11.6177C341.607 11.6191 341.526 11.6626 341.478 11.7339L339.717 14.3457C339.6 14.5193 339.725 14.7516 339.936 14.7516H370.047C370.28 14.7516 370.399 14.4769 370.237 14.3106L367.392 11.3506C367.343 11.2981 367.272 11.2685 367.198 11.2696ZM369.431 14.2292H340.43L341.84 12.1381L367.089 11.7934L369.431 14.2292Z" fill="#132238"/>
<path fill-rule="evenodd" clip-rule="evenodd" d="M295.562 303.852L292.568 318.131H304.19H349.268C346.669 312.705 343.617 308.934 340.112 306.812C336.607 304.694 330.209 303.706 320.918 303.852L325.673 279.48L297.147 279.654L296.794 297.932L295.562 303.852Z" fill="white"/>
<path fill-rule="evenodd" clip-rule="evenodd" d="M372.161 301.766V318.305L379.204 318.131H424.283C421.684 312.705 418.63 308.934 415.126 306.813C411.622 304.694 405.223 303.706 395.933 303.853L400.335 279.87L369.52 279.654L371.809 297.933L372.161 301.766Z" fill="white"/>
<path fill-rule="evenodd" clip-rule="evenodd" d="M296.795 298.109C299.491 298.537 301.604 300.22 303.134 303.156C304.664 306.092 305.486 310.036 305.6 314.996L293.273 314.822" fill="#D1E4FA"/>
<path fill-rule="evenodd" clip-rule="evenodd" d="M372.16 298.109C376.971 299.236 380.14 301.267 381.669 304.2C383.197 307.135 383.902 310.735 383.782 314.996L372.16 314.822V298.109Z" fill="#D1E4FA"/>
<path d="M305.554 279.515L307.515 266.159H303.31V265.638H307.591L308.639 258.499H304.895V257.977H325.321V258.499H321.226L319.887 265.638H323.736V266.159H319.789L317.297 279.442L325.993 279.39L322.098 299.359L323.443 295.717C323.5 295.564 323.57 295.414 323.653 295.275C324.417 293.992 326.091 293.56 327.393 294.315C327.612 294.44 327.809 294.6 327.977 294.788C328.861 295.776 328.768 297.279 327.771 298.152L321.511 303.63C322.689 303.338 325.582 302.604 329.832 301.512C329.974 301.477 330.118 301.56 330.155 301.699C330.191 301.839 330.107 301.981 329.966 302.016C326.869 302.813 324.636 303.383 323.163 303.755C331.293 303.79 336.984 304.788 340.25 306.764C343.804 308.917 346.887 312.726 349.507 318.193L349.686 318.566H292.244L295.303 303.974L296.531 298.079L296.888 279.567L305.554 279.515ZM306.088 279.512L311.196 279.48L313.26 266.159H308.048L306.088 279.512ZM311.731 279.477L316.759 279.446L319.252 266.159H313.795L311.731 279.477ZM321.142 304.284C321.12 304.291 321.096 304.291 321.073 304.291L315.115 304.461C314.97 304.468 314.848 304.353 314.843 304.211C314.839 304.065 314.954 303.946 315.1 303.939L320.42 303.786L313.979 298.152C312.982 297.279 312.889 295.776 313.773 294.788C313.941 294.6 314.138 294.44 314.357 294.315C315.659 293.56 317.333 293.992 318.097 295.275C318.18 295.414 318.25 295.564 318.307 295.717L320.875 302.673L320.958 302.447L325.352 279.915L297.406 280.086L297.063 297.912C302.546 299.522 305.689 305.094 305.859 314.562H346.934C344.854 311.209 342.534 308.757 339.974 307.209C336.55 305.139 330.268 304.159 321.142 304.284ZM321.468 302.586L321.379 303.046L327.421 297.762C328.2 297.08 328.272 295.905 327.582 295.136C327.45 294.99 327.296 294.865 327.125 294.764C326.075 294.155 324.725 294.503 324.109 295.539C324.042 295.654 323.985 295.772 323.939 295.894L321.468 302.586ZM347.251 315.084H293.514L292.893 318.044H348.849C348.334 316.993 347.801 316.006 347.251 315.084ZM293.623 314.562H305.331C305.164 305.355 302.159 300.002 296.996 298.437L295.82 304.082L293.623 314.562ZM317.811 295.894C317.765 295.772 317.708 295.654 317.641 295.539C317.025 294.503 315.675 294.155 314.625 294.764C314.454 294.865 314.3 294.99 314.168 295.136C313.478 295.905 313.55 297.08 314.329 297.762L320.489 303.15L317.811 295.894ZM320.689 258.499H314.982L313.876 265.638H319.35L320.689 258.499ZM314.448 258.499H309.173L308.125 265.638H313.341L314.448 258.499Z" fill="#132238"/>
<path fill-rule="evenodd" clip-rule="evenodd" d="M294.506 93.708H288.695L295.034 83.7842" fill="#D1E4FA"/>
<path d="M375.709 279.428L373.758 266.159H370.398V265.638H373.684L372.634 258.499H369.342V257.977H390.648V258.499H386.098L386.827 265.638H390.824V266.159H386.88L388.239 279.498L400.646 279.567L396.628 302.569L399.16 295.717C399.217 295.564 399.287 295.414 399.371 295.275C400.132 293.992 401.809 293.56 403.108 294.315C403.33 294.44 403.527 294.6 403.693 294.788C404.577 295.776 404.485 297.279 403.488 298.152L397.508 303.383C398.998 303.011 401.502 302.371 404.844 301.512C404.985 301.477 405.13 301.56 405.168 301.699C405.203 301.839 405.119 301.981 404.978 302.016C401.882 302.813 399.65 303.383 398.178 303.752C406.401 303.776 412.148 304.774 415.438 306.764C418.991 308.917 422.076 312.726 424.696 318.193L424.872 318.566H371.898L371.895 318.308L371.722 298.141L369.215 279.39L375.709 279.428ZM376.241 279.432L381.544 279.459L380.354 266.159H374.293L376.241 279.432ZM382.076 279.463L387.707 279.494L386.348 266.159H380.882L382.076 279.463ZM372.212 297.853C379.865 299.376 383.812 304.973 384.041 314.562H422.122C420.044 311.209 417.723 308.757 415.163 307.209C411.75 305.146 405.503 304.166 396.431 304.284C396.396 304.291 396.36 304.291 396.325 304.284C396.262 304.287 396.198 304.287 396.135 304.287C396.121 304.291 396.103 304.291 396.086 304.291L390.127 304.461C389.983 304.468 389.859 304.353 389.856 304.211C389.852 304.065 389.965 303.946 390.113 303.939L395.434 303.786L388.993 298.152C387.993 297.279 387.901 295.776 388.785 294.788C388.954 294.6 389.151 294.44 389.37 294.315C390.673 293.56 392.346 293.992 393.11 295.275C393.191 295.414 393.261 295.564 393.318 295.717L396.015 303.018L400.019 280.086L369.821 279.915L372.212 297.853ZM372.251 298.392L372.391 314.562H383.51C383.288 305.265 379.541 299.901 372.251 298.392ZM422.439 315.084H372.395L372.42 318.044H424.038C423.524 316.993 422.988 316.006 422.439 315.084ZM392.825 295.894C392.779 295.772 392.719 295.654 392.652 295.539C392.036 294.503 390.687 294.155 389.637 294.764C389.465 294.865 389.313 294.99 389.18 295.136C388.489 295.905 388.563 297.08 389.342 297.762L395.501 303.15L392.825 295.894ZM399.657 295.894L396.977 303.15L403.136 297.762C403.918 297.08 403.988 295.905 403.298 295.136C403.168 294.99 403.013 294.865 402.84 294.764C401.791 294.155 400.442 294.503 399.826 295.539C399.759 295.654 399.703 295.772 399.657 295.894ZM385.566 258.499H380.196L380.837 265.638H386.295L385.566 258.499ZM379.664 258.499H373.17L374.216 265.638H380.305L379.664 258.499Z" fill="#132238"/>
<path d="M203.877 209.641L204.397 212.882L201.377 213.355L201.767 215.786L197.886 216.392L197.496 213.962L186.842 215.628L186.322 212.387L195.492 201.466L199.374 200.859L200.858 210.114L203.877 209.641ZM190.506 211.733L196.976 210.72L196.107 205.304L190.506 211.733ZM214.676 213.984C208.681 214.923 205.397 212.638 204.6 207.67C203.807 202.723 206.219 199.57 212.214 198.632C218.188 197.698 221.494 199.978 222.284 204.904C223.077 209.851 220.65 213.05 214.676 213.984ZM214.16 210.765C217.567 210.232 218.85 208.304 218.402 205.511C217.958 202.739 216.138 201.319 212.731 201.852C209.323 202.385 208.034 204.269 208.482 207.063C208.933 209.877 210.753 211.298 214.16 210.765ZM241.402 203.771L241.921 207.012L238.902 207.485L239.292 209.915L235.41 210.523L235.021 208.092L224.367 209.758L223.847 206.517L233.017 195.596L236.898 194.989L238.382 204.243L241.402 203.771ZM228.031 205.863L234.501 204.851L233.632 199.435L228.031 205.863Z" fill="#D1E4FA"/>
<path d="M204.265 209.172L204.867 212.929L201.848 213.401L202.238 215.832L197.834 216.521L197.445 214.09L186.791 215.756L186.211 212.141L195.52 201.054L199.762 200.39L201.246 209.645L204.265 209.172ZM200.806 210.242L199.322 200.987L195.8 201.538L186.77 212.293L187.23 215.16L197.884 213.493L198.273 215.924L201.633 215.398L201.244 212.968L204.263 212.495L203.826 209.769L200.806 210.242ZM190.005 211.931L196.447 204.537L197.446 210.767L190.005 211.931ZM196.842 210.333L196.104 205.731L191.344 211.194L196.842 210.333ZM214.886 214.072C208.859 215.015 205.343 212.752 204.507 207.541C203.676 202.353 206.312 199.147 212.342 198.204C218.349 197.264 221.885 199.525 222.713 204.693C223.546 209.884 220.891 213.133 214.886 214.072ZM214.804 213.557C220.531 212.661 222.977 209.669 222.192 204.774C221.411 199.905 218.155 197.823 212.424 198.719C206.671 199.619 204.245 202.569 205.029 207.459C205.818 212.374 209.053 214.456 214.804 213.557ZM214.37 210.852C210.927 211.391 208.88 209.993 208.389 206.933C207.902 203.898 209.413 201.963 212.858 201.424C216.294 200.886 218.347 202.278 218.831 205.3C219.32 208.346 217.805 210.315 214.37 210.852ZM214.287 210.337C217.439 209.844 218.751 208.138 218.309 205.381C217.872 202.65 216.095 201.445 212.94 201.939C209.777 202.434 208.471 204.108 208.911 206.852C209.355 209.621 211.127 210.831 214.287 210.337ZM241.79 203.302L242.392 207.059L239.373 207.531L239.763 209.962L235.359 210.651L234.969 208.22L224.316 209.886L223.736 206.271L233.045 195.184L237.286 194.521L238.77 203.775L241.79 203.302ZM238.331 204.372L236.847 195.117L233.325 195.668L224.295 206.422L224.755 209.29L235.408 207.623L235.798 210.054L239.158 209.528L238.768 207.098L241.788 206.625L241.35 203.899L238.331 204.372ZM227.529 206.061L233.972 198.667L234.971 204.897L227.529 206.061ZM234.367 204.463L233.629 199.861L228.869 205.324L234.367 204.463Z" fill="#132238"/>
<path d="M294.964 83.5044C294.996 83.3858 295.023 83.2752 295.046 83.1733L295.335 77.1524C295.813 67.1716 304.137 59.3225 314.243 59.3225H334.124V59.8449H314.243C304.419 59.8449 296.328 67.4749 295.862 77.1771L295.778 78.9277C296.712 75.3872 298.513 72.2199 301.183 69.4999C305.207 65.4001 310.191 67.4436 316.026 75.4488C316.111 75.5656 316.084 75.7291 315.966 75.8133C315.847 75.8978 315.682 75.871 315.597 75.7542C309.927 67.974 305.285 66.071 301.562 69.8637C298.058 73.4335 296.091 77.7865 295.648 82.7625C295.636 82.9009 295.611 83.0602 295.572 83.2415L294.768 99.9886L294.241 99.9639L294.537 93.7956H288.87C288.662 93.7956 288.536 93.5688 288.647 93.3949L294.964 83.5044ZM294.562 93.2731L294.985 84.4505L289.349 93.2731H294.562Z" fill="#132238"/>
<path d="M372.92 106.879C372.775 106.874 372.659 106.752 372.666 106.608C372.67 106.464 372.793 106.351 372.941 106.357C374.885 106.43 375.811 105.326 375.769 102.912C375.73 100.486 374.924 99.357 373.332 99.3845C373.184 99.3872 373.064 99.2721 373.061 99.1281C373.061 98.9838 373.177 98.8648 373.321 98.8624C375.258 98.829 376.255 100.222 376.297 102.903C376.343 105.596 375.195 106.965 372.92 106.879ZM372.356 125.25C372.212 125.237 372.103 125.11 372.117 124.966C372.131 124.822 372.258 124.716 372.406 124.73C374.343 124.903 375.325 123.848 375.413 121.435C375.501 119.011 374.755 117.842 373.163 117.787C373.018 117.782 372.902 117.661 372.909 117.517C372.913 117.372 373.036 117.26 373.18 117.265C375.117 117.332 376.04 118.774 375.941 121.454C375.843 124.145 374.624 125.453 372.356 125.25ZM360.812 145.577C360.678 145.519 360.615 145.366 360.675 145.233C360.735 145.101 360.889 145.041 361.023 145.099C362.816 145.876 364.013 145.366 364.739 143.511C365.468 141.644 365.084 140.492 363.587 139.924C363.45 139.872 363.383 139.721 363.436 139.586C363.489 139.452 363.64 139.384 363.777 139.436C365.573 140.117 366.059 141.581 365.232 143.699C364.401 145.829 362.883 146.475 360.812 145.577ZM341.793 76.0554L342.303 76.19C341.34 79.7629 339.329 81.8714 336.289 82.4725L336.186 81.9605C339.015 81.4008 340.878 79.4467 341.793 76.0554Z" fill="#132238"/>
<path d="M312.212 82.9804L312.917 85.5919C312.954 85.7314 313.099 85.8142 313.24 85.7769C313.381 85.7397 313.465 85.5968 313.427 85.4573L312.723 82.8458C312.685 82.7063 312.54 82.6235 312.399 82.6608C312.258 82.698 312.174 82.8409 312.212 82.9804Z" fill="#132238"/>
<path d="M312.406 83.1674L314.696 83.6899C314.838 83.7222 314.98 83.6346 315.013 83.4941C315.045 83.3535 314.957 83.2134 314.815 83.181L312.525 82.6586C312.383 82.6262 312.241 82.7139 312.208 82.8544C312.175 82.9949 312.264 83.1351 312.406 83.1674Z" fill="#132238"/>
<path d="M411.804 84.8209C410.025 82.6974 406.93 82.4731 404.377 84.1333C403.38 84.7799 402.658 85.7013 402.316 86.7538C401.457 89.4066 404.831 96.1854 412.441 107.261C412.522 107.38 412.688 107.411 412.808 107.33C412.927 107.249 412.959 107.086 412.878 106.967C405.391 96.072 402.038 89.3305 402.82 86.9131C403.123 85.9764 403.771 85.1517 404.665 84.5694C407.007 83.0473 409.8 83.2498 411.399 85.1545C411.491 85.2654 411.66 85.2807 411.769 85.1886C411.881 85.0967 411.899 84.9319 411.804 84.8209Z" fill="#132238"/>
</svg>
