<svg width="24" height="25" viewBox="0 0 24 25" fill="none" xmlns="http://www.w3.org/2000/svg">
<path d="M7.28924 5.33913C10.4239 5.06664 13.5763 5.06664 16.7109 5.33913L18.2211 5.47041C19.2265 5.55781 20.0876 6.15748 20.5337 7.01525C20.5908 7.12499 20.548 7.25785 20.4428 7.32296L14.1769 11.2019C12.833 12.0338 11.1385 12.0513 9.77778 11.2472L3.46995 7.51985C3.36804 7.45963 3.32126 7.33566 3.36719 7.22656C3.77535 6.257 4.69298 5.56482 5.77901 5.47041L7.28924 5.33913Z" fill="white"/>
<path d="M3.36206 9.1984C3.20609 9.10624 3.00709 9.20541 2.98891 9.38566C2.73518 11.9013 2.79659 14.4407 3.17314 16.9448C3.37166 18.265 4.44907 19.277 5.77901 19.3926L7.28924 19.5239C10.4239 19.7964 13.5763 19.7964 16.7109 19.5239L18.2211 19.3926C19.5511 19.277 20.6285 18.265 20.827 16.9448C21.2145 14.3678 21.2683 11.7533 20.9882 9.16579C20.9686 8.98428 20.7662 8.88693 20.611 8.98303L14.9664 12.4773C13.1482 13.6028 10.8557 13.6264 9.01468 12.5386L3.36206 9.1984Z" fill="white"/>
</svg>
