<svg width="20" height="20" viewBox="0 0 20 20" fill="none" xmlns="http://www.w3.org/2000/svg">
<path d="M18.316 12.3064C16.8435 12.7194 15.2876 12.7329 13.8081 12.3457C12.3287 11.9584 10.979 11.1844 9.89758 10.103C8.8162 9.0216 8.04214 7.67187 7.6549 6.19241C7.26766 4.71295 7.28119 3.15707 7.69411 1.68457C6.24235 2.08864 4.92181 2.86603 3.86399 3.93929C2.80618 5.01255 2.04802 6.34423 1.66504 7.80169C1.28205 9.25915 1.2876 10.7915 1.68114 12.2462C2.07468 13.7008 2.84247 15.0269 3.90804 16.0925C4.9736 17.1581 6.29976 17.9259 7.7544 18.3194C9.20904 18.713 10.7414 18.7185 12.1989 18.3355C13.6563 17.9525 14.988 17.1944 16.0613 16.1366C17.1345 15.0787 17.9119 13.7582 18.316 12.3064Z" stroke="#697484" stroke-width="1.5" stroke-linecap="round" stroke-linejoin="round"/>
</svg>
