<svg width="36" height="36" viewBox="0 0 36 36" fill="none" xmlns="http://www.w3.org/2000/svg">
<path d="M22.416 5.625C24.3242 6.13712 26.0642 7.14214 27.4612 8.53919C28.8583 9.93624 29.8633 11.6762 30.3754 13.5844" stroke="#132238" stroke-width="2" stroke-linecap="round" stroke-linejoin="round"/>
<path d="M21.248 9.97021C22.3957 10.275 23.4424 10.8778 24.2821 11.7174C25.1217 12.5571 25.7245 13.6038 26.0293 14.7515" stroke="#132238" stroke-width="2" stroke-linecap="round" stroke-linejoin="round"/>
<path d="M13.0078 17.5502C14.1655 19.9408 16.0986 21.869 18.4922 23.0205C18.6687 23.1041 18.864 23.1403 19.0588 23.1255C19.2536 23.1107 19.4412 23.0454 19.6031 22.9361L23.1187 20.5877C23.2741 20.4823 23.4536 20.418 23.6404 20.4008C23.8273 20.3836 24.0155 20.414 24.1875 20.4892L30.7687 23.3158C30.9937 23.4094 31.1816 23.5744 31.3036 23.7853C31.4255 23.9962 31.4748 24.2413 31.4437 24.483C31.2352 26.1111 30.4405 27.6073 29.2084 28.6918C27.9764 29.7764 26.3914 30.3748 24.75 30.3752C19.6777 30.3752 14.8132 28.3602 11.2266 24.7736C7.63995 21.187 5.625 16.3224 5.625 11.2502C5.62537 9.60879 6.2238 8.02378 7.30832 6.79173C8.39283 5.55968 9.88912 4.76501 11.5172 4.55642C11.7588 4.52538 12.004 4.57463 12.2149 4.6966C12.4258 4.81857 12.5908 5.00649 12.6844 5.23142L15.5109 11.8267C15.5844 11.996 15.6152 12.1807 15.6005 12.3646C15.5858 12.5485 15.526 12.726 15.4266 12.8814L13.0781 16.4533C12.9736 16.6148 12.9122 16.8005 12.8999 16.9926C12.8876 17.1846 12.9247 17.3766 13.0078 17.5502V17.5502Z" stroke="#132238" stroke-width="2" stroke-linecap="round" stroke-linejoin="round"/>
</svg>
