<svg width="28" height="28" viewBox="0 0 28 28" fill="none" xmlns="http://www.w3.org/2000/svg">
<path d="M24.7451 18.5384C24.0029 20.2937 22.8421 21.8403 21.364 23.0433C19.8859 24.2462 18.1357 25.0688 16.2663 25.439C14.3969 25.8093 12.4653 25.7159 10.6403 25.1672C8.81533 24.6185 7.15254 23.631 5.79733 22.2912C4.44213 20.9514 3.43576 19.3 2.86622 17.4814C2.29668 15.6628 2.1813 13.7323 2.53018 11.8588C2.87905 9.98534 3.68156 8.22582 4.86753 6.73413C6.05351 5.24243 7.58684 4.06396 9.33348 3.30176" stroke="#008AFF" stroke-width="2" stroke-linecap="round" stroke-linejoin="round"/>
<path d="M25.6667 13.9999C25.6667 12.4678 25.3649 10.9507 24.7786 9.53528C24.1923 8.11981 23.3329 6.83369 22.2496 5.75034C21.1662 4.66699 19.8801 3.80763 18.4646 3.22132C17.0492 2.63502 15.5321 2.33325 14 2.33325V13.9999H25.6667Z" stroke="#008AFF" stroke-width="2" stroke-linecap="round" stroke-linejoin="round"/>
</svg>
