<svg width="45" height="45" viewBox="0 0 45 45" fill="none" xmlns="http://www.w3.org/2000/svg">
<g clip-path="url(#clip0_223_5953)">
<path d="M23.2742 1.54827C19.7979 1.54827 16.3709 2.38581 13.2997 3.97756L9.70854 0.386253C9.39093 0.0684669 8.9333 -0.0658286 8.49433 0.0297447C8.05536 0.125318 7.69507 0.437648 7.53816 0.858663L5.72473 5.72437L0.859116 7.53771C0.438101 7.69462 0.125772 8.05491 0.0301982 8.49388C-0.0652871 8.93285 0.0689203 9.39039 0.386706 9.70809L3.97792 13.2994C2.38618 16.3706 1.54863 19.7976 1.54863 23.2739C1.54863 35.2535 11.2946 44.9996 23.2742 44.9996C35.2538 44.9996 45 35.2535 45 23.2739C45 11.2943 35.2538 1.54827 23.2742 1.54827ZM23.2742 30.4241C27.2169 30.4241 30.4245 27.2166 30.4245 23.2739C30.4245 19.3312 27.2169 16.1236 23.2742 16.1236C21.7788 16.1236 20.3899 16.5858 19.241 17.3738L15.9217 14.0545C17.9397 12.4419 20.4962 11.476 23.2742 11.476C29.7795 11.476 35.0721 16.7685 35.0721 23.2739C35.0721 29.7792 29.7795 35.0717 23.2742 35.0717C16.7689 35.0717 11.4765 29.7792 11.4765 23.2739C11.4765 20.4958 12.4422 17.9394 14.0548 15.9213L17.3741 19.2406C16.5862 20.3895 16.124 21.7785 16.124 23.2739C16.124 27.2165 19.3316 30.4241 23.2742 30.4241ZM24.2077 22.3404L21.1592 19.2919C21.7905 18.9553 22.5103 18.7637 23.2742 18.7637C25.7612 18.7637 27.7844 20.7869 27.7844 23.2738C27.7844 25.7606 25.7612 27.7839 23.2742 27.7839C20.7874 27.7839 18.7642 25.7606 18.7642 23.2738C18.7642 22.5098 18.9557 21.7901 19.2924 21.1588L22.3408 24.2073C22.5986 24.465 22.9365 24.5939 23.2742 24.5939C23.6121 24.5939 23.9499 24.4649 24.2076 24.2073C24.7232 23.6918 24.7232 22.8559 24.2077 22.3404ZM9.29456 3.70597L13.7367 8.1482L13.1656 11.2983L8.28418 6.41697L9.29456 3.70597ZM3.70643 9.29411L6.41742 8.28381L11.2989 13.1652L8.14865 13.7363L3.70643 9.29411ZM23.2742 42.3594C12.7505 42.3594 4.18878 33.7977 4.18878 23.2739C4.18878 20.5036 4.79443 17.7694 5.95073 15.2721L6.77049 16.0919C7.02025 16.3417 7.35696 16.4786 7.70387 16.4786C7.78211 16.4786 7.86087 16.4716 7.93937 16.4574L10.8484 15.9301C9.57107 18.0832 8.83641 20.5941 8.83641 23.2739C8.83641 31.235 15.3132 37.7119 23.2743 37.7119C31.2354 37.7119 37.7123 31.235 37.7123 23.2739C37.7123 15.3128 31.2354 8.83587 23.2743 8.83587C20.5946 8.83587 18.0836 9.57062 15.9306 10.8479L16.4579 7.93892C16.5351 7.51298 16.3985 7.07612 16.0924 6.77004L15.2726 5.95028C17.7699 4.79398 20.504 4.18833 23.2744 4.18833C33.7982 4.18833 42.3599 12.7501 42.3599 23.2738C42.3598 33.7977 33.798 42.3594 23.2742 42.3594Z" fill="#008AFF"/>
</g>
<defs>
<clipPath id="clip0_223_5953">
<rect width="45" height="45" fill="white"/>
</clipPath>
</defs>
</svg>
