<svg width="136" height="28" viewBox="0 0 136 28" fill="none" xmlns="http://www.w3.org/2000/svg">
<g clip-path="url(#clip0_837_4601)">
<path d="M131.224 20.2774C129.064 20.2774 127.314 21.9923 127.314 24.1072C127.314 26.2202 129.064 27.9353 131.224 27.9353C133.385 27.9353 135.135 26.2202 135.135 24.1072C135.135 21.9923 133.385 20.2774 131.224 20.2774ZM109.811 22.456L109.817 0.000610352H107.455C107.455 0.000610352 103.53 1.41995 100.704 1.7218V5.9635H102.489C103.062 5.9635 103.303 6.20846 103.312 6.7444V22.4563C103.312 23.0098 102.986 23.3133 102.46 23.3476C102.009 23.3777 100.999 23.4428 100.999 23.4428V27.6851H112.125V23.4428C112.125 23.4428 111.113 23.3775 110.664 23.3476C110.136 23.3131 109.811 23.0096 109.811 22.456ZM132.301 11.3107C132.084 6.57872 125.675 6.36095 122.326 9.55755L121.714 7.72528H113.969V12.0619L115.593 12.0596C116.169 12.0596 116.381 12.304 116.389 12.8397V22.4563C116.389 23.0098 116.063 23.3133 115.537 23.3476C115.086 23.3777 114.178 23.4419 114.178 23.4419V27.6851H125.084V23.4419C125.084 23.4419 124.182 23.3773 123.732 23.3476C123.205 23.3133 122.878 23.0102 122.878 22.4563L122.876 15.9361C122.876 14.714 123.156 12.6747 125.312 12.1529C125.578 14.1923 127.548 14.8015 128.51 14.8015C130.937 14.801 132.301 12.9838 132.301 11.3107ZM91.2122 7.45982C89.5607 7.5322 87.8184 8.16415 86.5532 9.26385V0.000610352H84.2153C84.2153 0.000610352 80.3928 1.35866 77.4335 1.7218L77.337 5.9635L79.2074 5.96622C79.7816 5.96622 80.0291 6.21076 80.0368 6.74732V27.6874L85.3824 27.6822L86.147 25.9637C86.3099 26.0553 88.7631 28.3608 92.6797 27.8997C97.6108 27.3184 100.201 23.4139 100.201 17.4899C100.201 14.3818 99.2479 7.10859 91.2122 7.45982ZM90.2232 23.0556C89.3147 23.1223 87.6339 22.9698 86.553 21.0727V18.2934L86.5538 18.2917H86.553V15.0782C86.553 13.689 87.8366 12.4694 89.8224 12.3958C91.8331 12.3213 93.6139 13.694 93.6139 17.5711C93.6139 22.8016 91.3195 22.974 90.2232 23.0556ZM75.8185 22.473L75.819 16.4183C75.819 14.2607 75.793 12.0306 74.3647 10.2102C73.0564 8.54445 70.8861 7.3228 67.5908 7.48136C65.4023 7.58679 63.0679 8.60386 61.7791 10.3456L61.576 10.602L61.4524 10.4535C60.1276 8.54027 58.0123 7.32301 54.7174 7.48136C52.5282 7.58679 50.1939 8.60386 48.9051 10.3456L48.7116 7.74515H40.6361V12.0826L42.4945 12.1101C43.0694 12.1101 43.3118 12.3546 43.3198 12.8909L43.32 21.3789V22.4728C43.32 23.0265 42.9943 23.3302 42.4682 23.365C42.0174 23.3947 41.1045 23.4591 41.1045 23.4591V27.7012L52.0241 27.7052V23.4593C52.0241 23.4593 51.1637 23.3984 50.66 23.3652C50.1334 23.3292 49.8088 23.0269 49.8088 22.473C49.8088 22.473 49.8176 17.0552 49.8176 15.9702C49.8176 14.8868 50.7142 12.6631 53.5608 12.6631C55.8572 12.6631 56.3277 14.0626 56.3277 15.6913C56.3277 17.3194 56.3302 22.4738 56.3302 22.4738C56.3302 23.0275 56.0051 23.3304 55.479 23.3652C55.0282 23.3955 54.1151 23.4608 54.1151 23.4608V27.7014H65.0232V23.4593C65.0232 23.4593 64.1632 23.3984 63.6591 23.3652C63.1328 23.3292 62.8125 23.0269 62.8125 22.473H62.7962C62.7962 22.473 62.8056 17.0552 62.8056 15.9702C62.8056 14.8868 63.6049 12.6631 66.4522 12.6631C68.7484 12.6631 69.3231 14.0626 69.3231 15.6913V21.3789L69.3218 22.4734C69.3218 23.0271 68.9957 23.3302 68.4704 23.3645C68.0192 23.3951 67.1063 23.4601 67.1063 23.4601V27.701H78.0286V23.4593C78.0286 23.4593 77.1684 23.3984 76.6651 23.3652C76.1384 23.3292 75.8185 23.0267 75.8185 22.473ZM37.0898 22.5144V7.74619H28.0148V12.0824L29.7632 12.0829C30.3389 12.0829 30.5803 12.3276 30.588 12.8638L30.579 19.6006C30.579 20.2608 30.1031 22.741 26.7967 22.8031C24.5438 22.8464 24.0699 21.5176 24.0699 19.7751V7.74619H17.3875V20.1188C17.3875 23.2495 18.8172 28.1746 25.4884 27.9945C27.6788 27.9342 30.1878 26.8325 31.4917 25.2173L31.5463 27.7054H38.993V23.4633C38.993 23.4633 38.3907 23.4162 37.9397 23.3863C37.4132 23.3518 37.0898 23.069 37.0898 22.5144ZM12.3515 23.0062C10.1341 23.0631 9.70525 21.4812 9.68622 20.3328V12.364H14.8538V7.74578H9.70693V0.881708H5.64911C5.58259 0.881708 5.46628 0.939234 5.44996 1.08462C5.21191 3.19825 4.20069 6.90882 0 8.39091V12.364H3.19764V20.7522C3.19764 23.785 5.08911 28.0934 11.1219 27.992C13.1577 27.9585 15.4192 27.1236 15.9198 26.404L14.5877 22.5376C14.0718 22.7774 13.0878 22.9868 12.3515 23.0062Z" fill="#A5ACB5"/>
</g>
<defs>
<clipPath id="clip0_837_4601">
<rect width="135.135" height="28" fill="white"/>
</clipPath>
</defs>
</svg>
