<svg width="134" height="40" viewBox="0 0 134 40" fill="none" xmlns="http://www.w3.org/2000/svg">
<g clip-path="url(#clip0_837_1099)">
<path d="M20.0032 0C8.95596 0 0 8.95424 0 19.9996C0 31.0462 8.95596 40 20.0032 40C31.0509 40 40.0063 31.0462 40.0063 19.9996C40.0063 8.95495 31.0513 0.000954567 20.0029 0.000954567L20.0032 0ZM29.1765 28.8452C28.8172 29.4344 28.0495 29.619 27.4622 29.26C22.7649 26.3896 16.8525 25.7412 9.88966 27.3315C9.2187 27.4854 8.54988 27.0648 8.39702 26.3941C8.24342 25.7233 8.66214 25.0546 9.33478 24.9018C16.9545 23.16 23.4906 23.9097 28.763 27.1309C29.3506 27.4916 29.5369 28.2582 29.1762 28.8457L29.1765 28.8452ZM31.6248 23.4003C31.1724 24.1342 30.2127 24.3644 29.4796 23.9137C24.104 20.6098 15.9069 19.6529 9.54714 21.5831C8.72234 21.8321 7.85121 21.3674 7.60088 20.5442C7.35246 19.7195 7.81753 18.8502 8.64089 18.5994C15.9055 16.3955 24.9364 17.4631 31.111 21.2568C31.8444 21.7082 32.076 22.6683 31.6246 23.4005L31.6248 23.4003ZM31.835 17.7296C25.3871 13.901 14.7515 13.549 8.5962 15.4168C7.6078 15.7165 6.56253 15.1587 6.26299 14.1704C5.96346 13.1817 6.52096 12.1373 7.51009 11.8368C14.5759 9.69221 26.3221 10.1066 33.7445 14.5122C34.6336 15.0397 34.9252 16.1877 34.3983 17.0755C33.8728 17.9644 32.7214 18.2574 31.8353 17.7296H31.835ZM54.422 18.4633C50.9683 17.6398 50.3534 17.0619 50.3534 15.8474C50.3534 14.7001 51.4338 13.928 53.0404 13.928C54.5978 13.928 56.142 14.5143 57.7611 15.7213C57.81 15.7579 57.8714 15.7724 57.9319 15.7629C57.9923 15.7538 58.0458 15.7206 58.0812 15.6707L59.7675 13.2939C59.8368 13.196 59.8179 13.0611 59.7245 12.9863C57.7976 11.4404 55.6278 10.6888 53.0915 10.6888C49.3624 10.6888 46.7576 12.9264 46.7576 16.1278C46.7576 19.5609 49.0046 20.7765 52.8876 21.7149C56.1925 22.476 56.7502 23.1137 56.7502 24.2536C56.7502 25.5167 55.6223 26.302 53.8072 26.302C51.7912 26.302 50.1468 25.623 48.3073 24.0303C48.2617 23.9909 48.1991 23.973 48.1413 23.9763C48.0804 23.9813 48.0248 24.0095 47.9861 24.0561L46.0952 26.306C46.0159 26.3994 46.026 26.5389 46.1177 26.6196C48.2579 28.53 50.8902 29.539 53.7308 29.539C57.7492 29.539 60.3458 27.3437 60.3458 23.946C60.353 21.0777 58.6356 19.4895 54.4292 18.4664L54.422 18.4633ZM69.437 15.0576C67.6952 15.0576 66.2665 15.7435 65.0885 17.149V15.567C65.0885 15.4421 64.9872 15.3404 64.8625 15.3404H61.7699C61.645 15.3404 61.544 15.4421 61.544 15.567V33.145C61.544 33.2699 61.645 33.3716 61.7699 33.3716H64.8625C64.9872 33.3716 65.0885 33.2699 65.0885 33.145V27.5964C66.2668 28.9185 67.6957 29.5646 69.437 29.5646C72.6733 29.5646 75.9496 27.0736 75.9496 22.3119C75.9544 17.5491 72.6772 15.0574 69.4406 15.0574L69.437 15.0576ZM72.3535 22.3119C72.3535 24.7367 70.8596 26.4288 68.7206 26.4288C66.606 26.4288 65.0108 24.6598 65.0108 22.3119C65.0108 19.9643 66.606 18.1951 68.7206 18.1951C70.825 18.1948 72.3538 19.9258 72.3538 22.3117L72.3535 22.3119ZM84.3469 15.0576C80.1789 15.0576 76.9137 18.2665 76.9137 22.3638C76.9137 26.4164 80.1565 29.5915 84.2958 29.5915C88.4785 29.5915 91.7538 26.3934 91.7538 22.3119C91.7538 18.2445 88.5005 15.0581 84.3466 15.0581L84.3469 15.0576ZM84.3469 26.4529C82.13 26.4529 80.4586 24.672 80.4586 22.3107C80.4586 19.9394 82.0722 18.2187 84.2957 18.2187C86.527 18.2187 88.2095 19.9996 88.2095 22.3626C88.2095 24.7334 86.5853 26.4529 84.3471 26.4529H84.3469ZM100.654 15.3404H97.251V11.8617C97.251 11.737 97.1502 11.6353 97.0253 11.6353H93.9332C93.808 11.6353 93.7065 11.737 93.7065 11.8617V15.3404H92.2196C92.0951 15.3404 91.9943 15.4421 91.9943 15.5671V18.2245C91.9943 18.3491 92.0951 18.4511 92.2196 18.4511H93.7065V25.3271C93.7065 28.1058 95.0898 29.5147 97.8178 29.5147C98.9271 29.5147 99.8474 29.2856 100.715 28.7939C100.785 28.7545 100.829 28.6785 100.829 28.5978V26.0672C100.829 25.9891 100.788 25.9153 100.721 25.8745C100.654 25.8322 100.57 25.8301 100.501 25.8642C99.9055 26.1639 99.3296 26.3022 98.6858 26.3022C97.6936 26.3022 97.251 25.8518 97.251 24.8423V18.4523H100.654C100.779 18.4523 100.88 18.3506 100.88 18.2257V15.5685C100.884 15.4436 100.784 15.3419 100.657 15.3419L100.654 15.3404ZM112.511 15.354V14.9268C112.511 13.6698 112.993 13.1093 114.074 13.1093C114.719 13.1093 115.237 13.2373 115.817 13.4308C115.888 13.4532 115.963 13.442 116.021 13.3992C116.081 13.3565 116.114 13.2879 116.114 13.2153V10.6098C116.114 10.5102 116.05 10.422 115.954 10.3927C115.342 10.2104 114.558 10.0234 113.384 10.0234C110.528 10.0234 109.018 11.6317 109.018 14.6726V15.327H107.532C107.407 15.327 107.305 15.4288 107.305 15.5534V18.2244C107.305 18.3491 107.407 18.4511 107.532 18.4511H109.018V29.057C109.018 29.1819 109.118 29.2837 109.243 29.2837H112.336C112.461 29.2837 112.562 29.1819 112.562 29.057V18.4518H115.45L119.873 29.0552C119.371 30.1693 118.877 30.3909 118.203 30.3909C117.658 30.3909 117.084 30.2282 116.498 29.9073C116.443 29.8769 116.377 29.8719 116.318 29.8903C116.259 29.9111 116.209 29.955 116.184 30.0123L115.136 32.3115C115.086 32.4202 115.129 32.5477 115.233 32.6041C116.327 33.1966 117.315 33.4495 118.536 33.4495C120.819 33.4495 122.082 32.386 123.194 29.5249L128.559 15.6635C128.586 15.5938 128.578 15.515 128.535 15.4531C128.493 15.3917 128.424 15.3547 128.349 15.3547H125.13C125.034 15.3547 124.947 15.4161 124.916 15.5066L121.618 24.9254L118.005 15.5004C117.972 15.4128 117.888 15.3547 117.794 15.3547H112.511L112.511 15.354ZM105.637 15.3404H102.544C102.419 15.3404 102.318 15.4421 102.318 15.5671V29.057C102.318 29.1819 102.419 29.2837 102.544 29.2837H105.637C105.761 29.2837 105.863 29.1819 105.863 29.057V15.568C105.864 15.5382 105.858 15.5087 105.846 15.4811C105.835 15.4536 105.818 15.4286 105.797 15.4075C105.776 15.3864 105.751 15.3698 105.723 15.3584C105.696 15.3471 105.666 15.3413 105.637 15.3414L105.637 15.3404ZM104.108 9.19809C102.883 9.19809 101.889 10.1897 101.889 11.4146C101.889 12.6403 102.883 13.6331 104.108 13.6331C105.333 13.6331 106.326 12.6403 106.326 11.4146C106.326 10.1899 105.332 9.19809 104.109 9.19809H104.108ZM131.2 19.6777C129.976 19.6777 129.024 18.6949 129.024 17.5015C129.024 16.3081 129.988 15.3141 131.211 15.3141C132.435 15.3141 133.388 16.2967 133.388 17.4891C133.388 18.6825 132.423 19.6777 131.2 19.6777H131.2ZM131.212 15.5305C130.097 15.5305 129.254 16.4165 129.254 17.5015C129.254 18.586 130.091 19.4601 131.201 19.4601C132.315 19.4601 133.16 18.5748 133.16 17.4891C133.16 16.4046 132.321 15.5305 131.213 15.5305H131.212ZM131.694 17.7129L132.31 18.5746H131.791L131.237 17.7841H130.76V18.5746H130.326V16.2905H131.345C131.875 16.2905 132.224 16.562 132.224 17.0191C132.227 17.3936 132.009 17.6224 131.696 17.7129H131.694V17.7129ZM131.327 16.6824H130.76V17.4048H131.327C131.609 17.4048 131.778 17.2665 131.778 17.0432C131.778 16.8082 131.609 16.6824 131.327 16.6824H131.327V16.6824Z" fill="#A5ACB5"/>
</g>
<defs>
<clipPath id="clip0_837_1099">
<rect width="133.388" height="40" fill="white"/>
</clipPath>
</defs>
</svg>
