<svg width="50" height="44" viewBox="0 0 50 44" fill="none" xmlns="http://www.w3.org/2000/svg">
<path d="M29.1658 10.4752C29.1658 16.2606 24.5027 20.9503 18.7501 20.9503C12.9976 20.9503 8.33447 16.2606 8.33447 10.4752C8.33447 4.68973 12.9976 0 18.7501 0C24.5027 0 29.1658 4.68973 29.1658 10.4752Z" fill="#008AFF"/>
<path d="M27.6031 25.1429H9.8938C4.44031 25.1429 0 29.6086 0 35.0963V42.4286C0 43.2956 0.700379 44 1.5625 44H35.9375C36.7996 44 37.5 43.2956 37.5 42.4286V35.0963C37.5 29.6086 33.0597 25.1429 27.6031 25.1429Z" fill="#008AFF"/>
<path d="M49.5032 17.7039L42.2126 10.8933C41.9188 10.6163 41.5374 10.4752 41.1498 10.4752C40.1183 10.4752 39.5873 11.3583 39.5873 12.0435V16.7578H31.2499C30.1001 16.7578 29.1655 17.6977 29.1655 18.8541C29.1655 20.0104 30.0971 20.9503 31.2499 20.9503H39.5842V25.6646C39.5842 26.5355 40.2877 27.236 41.1467 27.236C41.5343 27.236 41.9158 27.0918 42.2095 26.8179L49.5002 20.0073C49.8183 19.7119 49.9999 19.2937 49.9999 18.8571C49.9999 18.4205 49.8183 18.0024 49.5032 17.7039Z" fill="#8ECBFF"/>
</svg>
