<svg width="61" height="56" viewBox="0 0 61 56" fill="none" xmlns="http://www.w3.org/2000/svg">
<circle cx="20" cy="20" r="20" fill="#EBF6FF"/>
<path d="M39.502 47.4004C43.9202 47.4004 47.502 43.8187 47.502 39.4004C47.502 34.9821 43.9202 31.4004 39.502 31.4004C35.0837 31.4004 31.502 34.9821 31.502 39.4004C31.502 43.8187 35.0837 47.4004 39.502 47.4004Z" stroke="#008AFF" stroke-width="2" stroke-miterlimit="10" stroke-linecap="round" stroke-linejoin="round"/>
<path d="M40.002 36.9004V38.7604C40.002 39.4604 39.642 40.1204 39.022 40.4804L37.502 41.4004" stroke="#008AFF" stroke-width="2" stroke-miterlimit="10" stroke-linecap="round" stroke-linejoin="round"/>
<path d="M31.5016 55H47.5016C55.5416 55 56.9816 51.78 57.4016 47.86L58.9016 31.86C59.4416 26.98 58.0416 23 49.5016 23H29.5016C20.9616 23 19.5616 26.98 20.1016 31.86L21.6016 47.86C22.0216 51.78 23.4616 55 31.5016 55Z" stroke="#008AFF" stroke-width="2" stroke-miterlimit="10" stroke-linecap="round" stroke-linejoin="round"/>
<path d="M31.502 23V21.4C31.502 17.86 31.502 15 37.902 15H41.102C47.502 15 47.502 17.86 47.502 21.4V23" stroke="#008AFF" stroke-width="2" stroke-miterlimit="10" stroke-linecap="round" stroke-linejoin="round"/>
<path d="M58.8015 33C55.3415 35.52 51.5015 37.28 47.5215 38.28" stroke="#008AFF" stroke-width="2" stroke-miterlimit="10" stroke-linecap="round" stroke-linejoin="round"/>
<path d="M20.7422 33.54C24.0822 35.82 27.7222 37.44 31.5022 38.36" stroke="#008AFF" stroke-width="2" stroke-miterlimit="10" stroke-linecap="round" stroke-linejoin="round"/>
</svg>
