<svg width="57" height="56" viewBox="0 0 57 56" fill="none" xmlns="http://www.w3.org/2000/svg">
<circle cx="20" cy="20" r="20" fill="#EBF6FF"/>
<path d="M39.5633 27.2222L37.5272 30.7854C37.0705 31.5708 37.4511 32.2222 38.3454 32.2222H40.7621C41.6754 32.2222 42.037 32.8735 41.5803 33.659L39.5633 37.2222" stroke="#008AFF" stroke-width="2" stroke-linecap="round" stroke-linejoin="round"/>
<path d="M32.2614 46.4696V44.1943C27.7265 41.4679 24 36.1524 24 30.5034C24 20.7943 32.9712 13.1839 43.1057 15.3807C47.5617 16.3614 51.4657 19.3036 53.4965 23.3638C57.6174 31.6019 53.2797 40.3499 46.9111 44.1747V46.45C46.9111 47.0188 47.128 48.333 45.0183 48.333H34.1542C31.9854 48.3526 32.2614 47.5092 32.2614 46.4696Z" stroke="#008AFF" stroke-width="2" stroke-linecap="round" stroke-linejoin="round"/>
<path d="M32.8889 54.9998C37.2508 53.5183 41.8603 53.5183 46.2222 54.9998" stroke="#008AFF" stroke-width="2" stroke-linecap="round" stroke-linejoin="round"/>
</svg>
