<svg width="20" height="20" viewBox="0 0 20 20" fill="none" xmlns="http://www.w3.org/2000/svg">
<path d="M0 2.52683C0 1.88498 0.225232 1.35547 0.675676 0.938288C1.12612 0.52109 1.71172 0.3125 2.43243 0.3125C3.14029 0.3125 3.71299 0.517874 4.15058 0.92866C4.60102 1.35227 4.82625 1.90423 4.82625 2.58459C4.82625 3.20075 4.60747 3.71421 4.16988 4.12499C3.71944 4.5486 3.12741 4.76041 2.39382 4.76041H2.37452C1.66666 4.76041 1.09396 4.5486 0.656371 4.12499C0.218784 3.70138 0 3.16865 0 2.52683ZM0.250965 19.375V6.51261H4.53668V19.375H0.250965ZM6.9112 19.375H11.1969V12.1928C11.1969 11.7435 11.2484 11.397 11.3513 11.1531C11.5315 10.7166 11.805 10.3476 12.1718 10.0459C12.5386 9.74424 12.9987 9.59342 13.5521 9.59342C14.9936 9.59342 15.7143 10.5626 15.7143 12.5009V19.375H20V12.0003C20 10.1005 19.5496 8.65955 18.6486 7.67754C17.7477 6.69554 16.5573 6.20453 15.0772 6.20453C13.417 6.20453 12.1236 6.91697 11.1969 8.34184V8.38035H11.1776L11.1969 8.34184V6.51261H6.9112C6.93693 6.92338 6.94981 8.20062 6.94981 10.3444C6.94981 12.4881 6.93693 15.4983 6.9112 19.375Z" fill="white"/>
</svg>
