<svg width="20" height="12" viewBox="0 0 20 12" fill="none" xmlns="http://www.w3.org/2000/svg">
<path d="M5.64062 0.349121C8.75602 0.349121 11.2812 2.87939 11.2812 6.0003C11.2812 9.12129 8.75578 11.6513 5.64062 11.6513C2.52562 11.6513 0 9.12129 0 6.0003C0 2.87946 2.52539 0.349121 5.64062 0.349121ZM14.6484 0.680126C16.2061 0.680126 17.4688 3.06183 17.4688 6.0003H17.4691C17.4691 8.93806 16.2063 11.3205 14.6488 11.3205C13.0912 11.3205 11.8284 8.93806 11.8284 6.0003C11.8284 3.06261 13.0909 0.680126 14.6485 0.680126H14.6484ZM19.008 1.23431C19.5558 1.23431 20 3.36812 20 6.00037C20 8.63177 19.5559 10.7664 19.008 10.7664C18.4602 10.7664 18.0163 8.6324 18.0163 6.00037C18.0163 3.36827 18.4604 1.23431 19.008 1.23431Z" fill="white"/>
</svg>
