<svg width="22" height="18" viewBox="0 0 22 18" fill="none" xmlns="http://www.w3.org/2000/svg">
<path d="M7.25987 17.1791C14.8266 17.1791 18.9645 10.8982 18.9645 5.45171C18.9645 5.27333 18.9609 5.09578 18.9529 4.91895C19.758 4.33523 20.4529 3.61248 21.0049 2.7846C20.2678 3.11294 19.4746 3.33392 18.6425 3.43356C19.4918 2.9233 20.1438 2.11605 20.4515 1.15382C19.6439 1.63379 18.7605 1.97214 17.8393 2.1543C17.0886 1.35313 16.0199 0.852051 14.8365 0.852051C12.5647 0.852051 10.7225 2.6979 10.7225 4.9732C10.7225 5.29668 10.7586 5.61122 10.8292 5.91303C7.41017 5.74065 4.37842 4.10052 2.34942 1.60661C1.98398 2.23562 1.79177 2.95051 1.7924 3.67826C1.7924 5.10827 2.51863 6.37063 3.62306 7.10919C2.96978 7.0892 2.33084 6.9124 1.75996 6.59366C1.75935 6.61097 1.75935 6.62782 1.75935 6.64631C1.75935 8.64242 3.17733 10.309 5.05966 10.6867C4.70614 10.7832 4.34133 10.8319 3.97492 10.8317C3.71031 10.8317 3.45242 10.8056 3.20179 10.7574C3.72551 12.3951 5.24415 13.5869 7.04469 13.6202C5.63669 14.7259 3.86305 15.3845 1.93537 15.3845C1.60744 15.3847 1.27979 15.3657 0.954102 15.3274C2.77473 16.4966 4.93654 17.1788 7.26007 17.1788" fill="white"/>
</svg>
