<svg width="26" height="26" viewBox="0 0 26 26" fill="none" xmlns="http://www.w3.org/2000/svg">
<path d="M10 15.1001C10 16.2641 10.9 17.2001 12.004 17.2001H14.26C15.22 17.2001 16 16.3841 16 15.3641C16 14.2721 15.52 13.8761 14.812 13.6241L11.2 12.3641C10.492 12.1121 10.012 11.7281 10.012 10.6241C10.012 9.61608 10.792 8.78809 11.752 8.78809H14.008C15.112 8.78809 16.012 9.72409 16.012 10.8881" stroke="#008AFF" stroke-width="2" stroke-linecap="round" stroke-linejoin="round"/>
<path d="M13 7.6001V18.4001" stroke="#008AFF" stroke-width="2" stroke-linecap="round" stroke-linejoin="round"/>
<path d="M25 13C25 19.624 19.624 25 13 25C6.376 25 1 19.624 1 13C1 6.376 6.376 1 13 1" stroke="#008AFF" stroke-width="2" stroke-linecap="round" stroke-linejoin="round"/>
<path d="M25.0002 5.8V1H20.2002" stroke="#008AFF" stroke-width="2" stroke-linecap="round" stroke-linejoin="round"/>
<path d="M19 7L25 1" stroke="#008AFF" stroke-width="2" stroke-linecap="round" stroke-linejoin="round"/>
</svg>
