<svg width="26" height="27" viewBox="0 0 26 27" fill="none" xmlns="http://www.w3.org/2000/svg">
<path d="M19.5933 15.8367C19.0908 16.3299 18.8036 17.0395 18.8754 17.7972C18.9831 19.0962 20.1676 20.0463 21.4598 20.0463H23.7332V21.4776C23.7332 23.9673 21.7111 25.9999 19.2344 25.9999H5.49877C3.02205 25.9999 1 23.9673 1 21.4776V13.3832C1 10.8935 3.02205 8.86084 5.49877 8.86084H19.2344C21.7111 8.86084 23.7332 10.8935 23.7332 13.3832V15.1151H21.3163C20.6462 15.1151 20.036 15.3797 19.5933 15.8367Z" stroke="#008AFF" stroke-width="2" stroke-linecap="round" stroke-linejoin="round"/>
<path d="M1 14.4657V8.96923C1 7.53796 1.87343 6.26301 3.20153 5.75785L12.7016 2.14963C14.1852 1.58434 15.7765 2.6909 15.7765 4.29054V8.86095" stroke="#008AFF" stroke-width="2" stroke-linecap="round" stroke-linejoin="round"/>
<path d="M25.0002 16.342V18.8197C25.0002 19.4812 24.4737 20.0224 23.8037 20.0464H21.4586C20.1664 20.0464 18.9819 19.0963 18.8742 17.7973C18.8024 17.0396 19.0896 16.33 19.5921 15.8369C20.0348 15.3798 20.645 15.1152 21.315 15.1152H23.8037C24.4737 15.1393 25.0002 15.6805 25.0002 16.342Z" stroke="#008AFF" stroke-width="2" stroke-linecap="round" stroke-linejoin="round"/>
<path d="M6.38379 13.9727H14.7592" stroke="#008AFF" stroke-width="2" stroke-linecap="round" stroke-linejoin="round"/>
</svg>
