<svg width="30" height="34" viewBox="0 0 30 34" fill="none" xmlns="http://www.w3.org/2000/svg">
<g clip-path="url(#clip0_223_3139)">
<path d="M26.7956 13.6203C28.3837 13.6203 29.6758 12.3186 29.6758 10.7187V5.95006C29.6758 4.6268 28.7876 3.47147 27.5157 3.14059L15.8705 0.110998C15.3017 -0.0369993 14.7003 -0.0369993 14.1315 0.110998L2.48626 3.14059C1.21443 3.4714 0.326172 4.62673 0.326172 5.95006V10.7187C0.326172 12.3186 1.61828 13.6203 3.20644 13.6203H3.75999V26.6928H3.04797C1.54717 26.6928 0.326172 27.9228 0.326172 29.4347V31.2581C0.326172 32.77 1.54717 34.0001 3.04797 34.0001H26.954C28.4548 34.0001 29.6758 32.77 29.6758 31.2581V29.4347C29.6758 27.9228 28.4548 26.6928 26.954 26.6928H26.242V13.6203H26.7956ZM2.50361 10.7187V5.95006C2.50361 5.62713 2.7204 5.34519 3.03075 5.26451C15.5409 2.00994 14.8727 2.11708 15.3261 2.23499L26.9713 5.26451C27.2817 5.34526 27.4985 5.6272 27.4985 5.95006V10.7187C27.4985 11.1091 27.1832 11.4267 26.7956 11.4267C26.4781 11.4267 3.51904 11.4267 3.20651 11.4267C2.81893 11.4267 2.50361 11.1091 2.50361 10.7187ZM17.8813 26.6927V13.6203H20.4814V26.6928H17.8813V26.6927ZM9.5206 26.6927V13.6203H12.1207V26.6928H9.5206V26.6927ZM14.2982 13.6203H15.7038V26.6928H14.2982V13.6203ZM5.93743 13.6203H7.34317V26.6928H5.93743V13.6203ZM27.4984 29.4347V31.2581C27.4984 31.5604 27.2542 31.8064 26.954 31.8064H3.04797C2.74782 31.8064 2.50361 31.5604 2.50361 31.2581V29.4347C2.50361 29.1323 2.74782 28.8863 3.04797 28.8863H26.954C27.2542 28.8863 27.4984 29.1323 27.4984 29.4347ZM24.0646 26.6927H22.6588V13.6203H24.0646V26.6927ZM15.001 10.2821C16.779 10.2821 18.2255 8.82487 18.2255 7.03375C18.2255 5.24264 16.779 3.78543 15.001 3.78543C13.2231 3.78543 11.7766 5.24264 11.7766 7.03375C11.7766 8.82487 13.2231 10.2821 15.001 10.2821ZM15.001 5.97892C15.5783 5.97892 16.048 6.45212 16.048 7.03369C16.048 7.61526 15.5783 8.08845 15.001 8.08845C14.4237 8.08845 13.954 7.61526 13.954 7.03369C13.954 6.45212 14.4237 5.97892 15.001 5.97892Z" fill="white"/>
</g>
<defs>
<clipPath id="clip0_223_3139">
<rect width="30" height="34" fill="white"/>
</clipPath>
</defs>
</svg>
