<svg width="30" height="27" viewBox="0 0 30 27" fill="none" xmlns="http://www.w3.org/2000/svg">
<path d="M27.0968 0.272217H9.83583C8.235 0.272217 6.9326 1.5909 6.9326 3.21173V6.25866L2.58538 10.6602C1.85425 11.4005 1.45161 12.3847 1.45161 13.4316V20.6253C0.598004 21.0041 0 21.8673 0 22.8697V24.2783C0 25.629 1.08532 26.7279 2.41935 26.7279H8.80754C10.1416 26.7279 11.2269 25.629 11.2269 24.2783V22.8697C11.2269 22.0938 10.8683 21.4015 10.3105 20.9523L13.6886 15.9887C14.4742 14.8344 14.3338 13.2772 13.3548 12.2858C12.4152 11.3345 10.9665 11.1592 9.83195 11.8597L8.86802 12.4548V3.21173C8.86802 2.67147 9.30218 2.23189 9.83577 2.23189H27.0968C27.6304 2.23189 28.0645 2.67147 28.0645 3.21173V14.7861C28.0645 15.3263 27.6304 15.7659 27.0968 15.7659H15.9476C15.4132 15.7659 14.9799 16.2046 14.9799 16.7458C14.9799 17.2869 15.4132 17.7256 15.9476 17.7256H27.0968C28.6976 17.7256 30 16.4069 30 14.7861V3.21173C30 1.5909 28.6976 0.272217 27.0968 0.272217ZM9.29141 24.2783C9.29141 24.5484 9.07433 24.7682 8.80754 24.7682H2.41935C2.15256 24.7682 1.93548 24.5484 1.93548 24.2783V22.8697C1.93548 22.5996 2.15256 22.3798 2.41935 22.3798H8.80754C9.07433 22.3798 9.29141 22.5996 9.29141 22.8697V24.2783ZM6.14939 14.1332C5.6931 14.415 5.54867 15.0179 5.82696 15.4799C6.10518 15.9419 6.70071 16.088 7.157 15.8064L10.8396 13.5329C11.6986 13.0021 12.6637 14.0409 12.0949 14.8767L8.32228 20.4201H3.3871V13.4316C3.3871 12.9082 3.58845 12.416 3.95401 12.0459L6.9326 9.03001V13.6496L6.14939 14.1332ZM15.4263 7.52327V3.83436C15.4263 3.29318 14.993 2.85452 14.4585 2.85452H10.8151C10.2807 2.85452 9.84738 3.29318 9.84738 3.83436V7.52327C9.84738 8.06445 10.2807 8.50311 10.8151 8.50311H14.4585C14.993 8.50311 15.4263 8.06445 15.4263 7.52327ZM13.4908 6.54343H11.7829V4.8142H13.4908V6.54343ZM23.9315 11.4544C23.397 11.4544 22.9637 11.0157 22.9637 10.4745C22.9637 9.93336 23.397 9.4947 23.9315 9.4947H25.0245C25.559 9.4947 25.9923 9.93336 25.9923 10.4745C25.9923 11.0157 25.559 11.4544 25.0245 11.4544H23.9315ZM13.4908 10.4745C13.4908 9.93336 13.9241 9.4947 14.4585 9.4947H16.6446C17.1791 9.4947 17.6124 9.93336 17.6124 10.4745C17.6124 11.0157 17.1791 11.4544 16.6446 11.4544H14.4585C13.9241 11.4544 13.4908 11.0157 13.4908 10.4745ZM19.195 11.4544C18.6605 11.4544 18.2272 11.0157 18.2272 10.4745C18.2272 9.93336 18.6605 9.4947 19.195 9.4947H21.381C21.9155 9.4947 22.3488 9.93336 22.3488 10.4745C22.3488 11.0157 21.9155 11.4544 21.381 11.4544H19.195Z" fill="white"/>
</svg>
