<svg width="30" height="26" viewBox="0 0 30 26" fill="none" xmlns="http://www.w3.org/2000/svg">
<path d="M7.70837 16.5793L8.89028 16.9913C11.1801 17.7897 11.2536 21.078 8.95161 21.9492C8.95161 22.5743 8.48964 22.9698 7.98387 22.9698C7.48319 22.9698 7.01613 22.5803 7.01613 21.9492C6.02746 21.575 5.32155 20.6102 5.32155 19.4815C5.32155 18.9411 5.7548 18.503 6.28929 18.503C6.82379 18.503 7.25704 18.9411 7.25704 19.4815C7.25704 19.8548 7.55746 20.1585 7.92665 20.1585H8.04103C8.79659 20.1585 8.96825 19.0886 8.25931 18.8414L7.0774 18.4293C4.78766 17.6311 4.71411 14.3427 7.01613 13.4715C7.01613 12.8464 7.4781 12.4509 7.98387 12.4509C8.48456 12.4509 8.95161 12.8404 8.95161 13.4715C9.94028 13.8457 10.6462 14.8105 10.6462 15.9392C10.6462 16.4797 10.2129 16.9177 9.67845 16.9177C9.14395 16.9177 8.71071 16.4797 8.71071 15.9392C8.71071 15.5659 8.41028 15.2622 8.04109 15.2622H7.92671C7.17115 15.2621 6.9995 16.3321 7.70837 16.5793ZM15.9677 17.7104C15.9677 22.1616 12.3862 25.7829 7.98387 25.7829C3.58155 25.7829 0 22.1616 0 17.7104C0 13.2591 3.58155 9.63778 7.98387 9.63778C12.3862 9.63778 15.9677 13.2591 15.9677 17.7104ZM14.0323 17.7104C14.0323 14.3382 11.319 11.5948 7.98387 11.5948C4.64873 11.5948 1.93548 14.3382 1.93548 17.7104C1.93548 21.0826 4.64873 23.8259 7.98387 23.8259C11.319 23.8259 14.0323 21.0826 14.0323 17.7104ZM29.0323 23.8259H28.3669V7.68079C28.3669 7.14035 27.9337 6.70229 27.3992 6.70229C26.8647 6.70229 26.4314 7.14035 26.4314 7.68079V23.8259H21.5323V11.5948C21.5323 11.0543 21.099 10.6163 20.5645 10.6163C20.03 10.6163 19.5968 11.0543 19.5968 11.5948V23.8259H15.4839C14.9494 23.8259 14.5161 24.264 14.5161 24.8044C14.5161 25.3449 14.9494 25.7829 15.4839 25.7829H29.0323C29.5668 25.7829 30 25.3449 30 24.8044C30 24.264 29.5668 23.8259 29.0323 23.8259ZM14.898 10.7578L18.3569 7.26052L19.8803 8.8008C20.2582 9.1829 20.8709 9.1829 21.2488 8.8008L26.4314 3.56053V4.01143C26.4314 4.55187 26.8647 4.98993 27.3992 4.98993C27.9337 4.98993 28.3669 4.55187 28.3669 4.01143C28.3669 0.906179 28.3715 1.16976 28.3562 1.06017C28.3094 0.726319 28.0924 0.429468 27.7692 0.294192C27.5298 0.194018 27.604 0.219765 24.6169 0.219765C24.0824 0.219765 23.6492 0.657824 23.6492 1.19826C23.6492 1.73869 24.0824 2.17675 24.6169 2.17675H25.0629L20.5645 6.72504L19.0411 5.18477C18.6632 4.80267 18.0504 4.80267 17.6725 5.18477L13.5294 9.37395C13.1514 9.75605 13.1514 10.3756 13.5294 10.7577C13.9074 11.1399 14.5201 11.1399 14.898 10.7578Z" fill="white"/>
</svg>
