<svg width="80" height="80" viewBox="0 0 80 80" fill="none" xmlns="http://www.w3.org/2000/svg">
<circle cx="25" cy="25" r="25" fill="#EBF6FF"/>
<path d="M53.5154 48.2422H46.4842C45.5126 48.2422 44.7264 49.0284 44.7264 50V65.8203H41.2107C40.5446 65.8203 39.937 66.1962 39.6383 66.7919C39.3414 67.3876 39.4049 68.1 39.8048 68.6321L48.5939 79.2962C48.9252 79.739 49.447 80 49.9998 80C50.5526 80 51.0744 79.739 51.4057 79.2962L60.1947 68.6321C60.5947 68.1 60.6582 67.3876 60.3613 66.7919C60.0626 66.1962 59.4549 65.8203 58.7888 65.8203H55.2732V50C55.2732 49.0284 54.487 48.2422 53.5154 48.2422Z" fill="#74BFFF"/>
<path d="M69.1591 37.6971C68.4364 34.1574 65.5611 31.3868 61.8412 30.798C60.3065 24.6199 54.6915 20 48.2422 20C41.8066 20 36.2533 24.5512 34.6793 30.6778C34.5144 30.6692 34.348 30.6641 34.1797 30.6641C26.4257 30.6641 20 36.9726 20 44.7266C20 52.4805 26.4257 58.7891 34.1797 58.7891H41.2109V50C41.2109 47.0921 43.5765 44.7266 46.4844 44.7266H53.5156C56.4235 44.7266 58.7891 47.0921 58.7891 50V58.7891H69.3359C75.1518 58.7891 80 54.0581 80 48.2422C80 42.3679 75.0711 37.5512 69.1591 37.6971Z" fill="#008AFF"/>
</svg>
