<svg width="82" height="80" viewBox="0 0 82 80" fill="none" xmlns="http://www.w3.org/2000/svg">
<circle cx="25" cy="25" r="25" fill="#EBF6FF"/>
<path d="M55.1964 48.7615C55.8877 48.408 56.6577 48.2211 57.4566 48.2211C58.7805 48.2211 60.0252 48.7351 60.9635 49.6685L62.9834 47.6488C67.9819 49.4009 73.7631 48.2792 77.759 44.2835C81.1212 40.9213 82.4472 36.2954 81.7393 31.9349C81.6614 31.4547 81.3214 31.0586 80.8586 30.9092C80.3958 30.7596 79.8877 30.8812 79.5439 31.2252L76.5448 34.2243C74.1024 36.6667 70.1423 36.6667 67.7 34.2243C65.2575 31.782 65.2575 27.8219 67.7 25.3796L70.6991 22.3805C71.0432 22.0364 71.1658 21.5284 71.0159 21.0653C70.8663 20.6021 70.4696 20.263 69.9892 20.185C65.629 19.4772 61.0028 20.8031 57.6408 24.1653C53.5855 28.2206 52.4941 34.114 54.3593 39.1626L49.9785 43.5434L55.1964 48.7615Z" fill="#74BFFF"/>
<path d="M47.2132 56.6997L42.0172 51.5037L23.8481 69.6726C21.4855 72.0351 21.4855 75.8654 23.8481 78.228C26.2106 80.5905 30.0409 80.5905 32.4034 78.228L48.0663 62.5652C46.4866 60.977 46.2018 58.5793 47.2132 56.6997Z" fill="#74BFFF"/>
<path d="M58.8022 51.8488C58.4307 51.4773 57.9436 51.2914 57.4566 51.2914C56.9696 51.2914 56.4825 51.4773 56.111 51.8488L55.0263 52.9335L35.7054 33.6125L36.6085 32.7095C37.4313 31.8868 37.3292 30.5222 36.3913 29.8315L28.5084 24.026C27.7508 23.4682 26.6996 23.5474 26.0343 24.2127L22.6873 27.5599C22.022 28.2252 21.9428 29.2766 22.5006 30.034L28.3059 37.9169C28.9966 38.8546 30.3604 38.9578 31.1839 38.1341L32.0869 37.2308L51.4079 56.5517L50.2469 57.7127C49.5036 58.4559 49.5036 59.6607 50.2469 60.404L68.0709 78.228C70.4334 80.5905 74.2637 80.5905 76.6262 78.228C78.9888 75.8655 78.9888 72.0351 76.6262 69.6726L58.8022 51.8488Z" fill="#008AFF"/>
</svg>
