<svg width="90" height="80" viewBox="0 0 90 80" fill="none" xmlns="http://www.w3.org/2000/svg">
<circle cx="25" cy="25" r="25" fill="#EBF6FF"/>
<path d="M78.75 52.4609C77.7792 52.4609 76.9922 53.248 76.9922 54.2188V64.1797H71.7188C70.748 64.1797 69.9609 64.9667 69.9609 65.9375C69.9609 66.9083 70.748 67.6953 71.7188 67.6953H78.75C79.7208 67.6953 80.5078 66.9083 80.5078 65.9375V54.2188C80.5078 53.248 79.7208 52.4609 78.75 52.4609Z" fill="#74BFFF"/>
<path d="M41.25 47.5391C42.2208 47.5391 43.0078 46.752 43.0078 45.7812V35.8203H48.2812C49.252 35.8203 50.0391 35.0333 50.0391 34.0625C50.0391 33.0917 49.252 32.3047 48.2812 32.3047H41.25C40.2792 32.3047 39.4922 33.0917 39.4922 34.0625V45.7812C39.4922 46.752 40.2792 47.5391 41.25 47.5391Z" fill="#008AFF"/>
<path d="M64.5703 62.4219H58.7109C56.7693 62.4219 55.1953 63.9958 55.1953 65.9375C55.1953 67.8792 56.7693 69.4531 58.7109 69.4531H64.5703C65.5411 69.4531 66.3281 68.6661 66.3281 67.6953V64.1797C66.3281 63.2089 65.5411 62.4219 64.5703 62.4219Z" fill="#74BFFF"/>
<path d="M51.6797 65.9375C51.6797 62.0605 54.8339 58.9062 58.7109 58.9062H63.9844V57.1484C63.9844 54.2407 61.6187 51.875 58.7109 51.875H35.2734C32.3657 51.875 30 54.2407 30 57.1484V74.7266C30 77.6343 32.3657 80 35.2734 80H58.7109C61.6187 80 63.9844 77.6343 63.9844 74.7266V72.9688H58.7109C54.8339 72.9688 51.6797 69.8145 51.6797 65.9375Z" fill="#74BFFF"/>
<path d="M88.2422 30.5469H82.3828C80.4411 30.5469 78.8672 32.1208 78.8672 34.0625C78.8672 36.0042 80.4411 37.5781 82.3828 37.5781H88.2422C89.213 37.5781 90 36.7911 90 35.8203V32.3047C90 31.3339 89.213 30.5469 88.2422 30.5469Z" fill="#008AFF"/>
<path d="M75.3516 34.0625C75.3516 30.1855 78.5058 27.0312 82.3828 27.0312H87.6562V25.2734C87.6562 22.3657 85.2906 20 82.3828 20H58.9453C56.0375 20 53.6719 22.3657 53.6719 25.2734V42.8516C53.6719 45.7593 56.0375 48.125 58.9453 48.125H82.3828C85.2906 48.125 87.6562 45.7593 87.6562 42.8516V41.0938H82.3828C78.5058 41.0938 75.3516 37.9395 75.3516 34.0625Z" fill="#008AFF"/>
</svg>
