<svg width="29" height="24" viewBox="0 0 29 24" fill="none" xmlns="http://www.w3.org/2000/svg">
<path d="M10.471 11.2C13.5855 11.2 16.1102 8.69281 16.1102 5.60001C16.1102 2.50721 13.5855 0 10.471 0C7.35655 0 4.83179 2.50721 4.83179 5.60001C4.83179 8.69281 7.35655 11.2 10.471 11.2Z" fill="#008AFF"/>
<path d="M21.7503 14.3998C23.9749 14.3998 25.7782 12.609 25.7782 10.3999C25.7782 8.19075 23.9749 6.3999 21.7503 6.3999C19.5257 6.3999 17.7223 8.19075 17.7223 10.3999C17.7223 12.609 19.5257 14.3998 21.7503 14.3998Z" fill="#5EB5FF"/>
<path d="M10.4722 12.7998C4.69765 12.7998 -0.000610352 17.4654 -0.000610352 23.1998C-0.000610352 23.6414 0.360324 23.9998 0.805016 23.9998H20.1394C20.5841 23.9998 20.9451 23.6414 20.9451 23.1998C20.9451 17.4654 16.2468 12.7998 10.4722 12.7998Z" fill="#5EB5FF"/>
<path d="M21.749 16C21.2399 16 20.7388 16.0688 20.2457 16.1728C21.691 18.1504 22.5546 20.5744 22.5546 23.2C22.5546 23.4816 22.4966 23.7488 22.4064 24H28.1938C28.6385 24 28.9994 23.6416 28.9994 23.2C28.9994 19.2304 25.7464 16 21.749 16Z" fill="#8DCBFF"/>
</svg>
