<svg width="26" height="26" viewBox="0 0 26 26" fill="none" xmlns="http://www.w3.org/2000/svg">
<path d="M0 15.4883V18.5352C0 20.0777 1.25044 21.3281 2.79297 21.3281H4.31641C4.73708 21.3281 5.07812 20.9871 5.07812 20.5664V12.6953H2.79297C1.25044 12.6953 0 13.9457 0 15.4883Z" fill="#008AFF"/>
<path d="M17.8242 14.9805V10.918C17.8242 9.93794 17.0269 9.14062 16.0469 9.14062H9.95312C8.9731 9.14062 8.17578 9.93794 8.17578 10.918V14.9805C8.17578 15.9605 8.9731 16.7578 9.95312 16.7578H11.7086L14.5436 19.1203C14.6832 19.2366 14.8564 19.2969 15.0314 19.2969C15.1409 19.2969 15.2512 19.2732 15.3543 19.225C15.622 19.0996 15.793 18.8307 15.793 18.5352V16.7578H16.0469C17.0269 16.7578 17.8242 15.9605 17.8242 14.9805ZM14.0156 13.7109H11.9844C11.5637 13.7109 11.2227 13.3699 11.2227 12.9492C11.2227 12.5285 11.5637 12.1875 11.9844 12.1875H14.0156C14.4363 12.1875 14.7773 12.5285 14.7773 12.9492C14.7773 13.3699 14.4363 13.7109 14.0156 13.7109Z" fill="#5EB5FF"/>
<path d="M10.207 24.4766C10.207 25.318 10.8891 26 11.7305 26H14.2695C15.1109 26 15.793 25.318 15.793 24.4766C15.793 23.6352 15.1109 22.9531 14.2695 22.9531H11.7305C10.8891 22.9531 10.207 23.6352 10.207 24.4766Z" fill="#8DCBFF"/>
<path d="M21.4306 22.8516V23.0039C21.4306 23.4239 21.0889 23.7656 20.6688 23.7656H17.2327C17.2875 23.9939 17.3173 24.2317 17.3173 24.4766C17.3173 24.7579 17.2781 25.0302 17.2064 25.2891H20.6688C21.9289 25.2891 22.954 24.2639 22.954 23.0039V22.8516H21.4306Z" fill="#8DCBFF"/>
<path d="M23.207 12.6953H20.9219V20.5664C20.9219 20.9871 21.2629 21.3281 21.6836 21.3281H23.207C24.7496 21.3281 26 20.0777 26 18.5352V15.4883C26 13.9457 24.7496 12.6953 23.207 12.6953Z" fill="#008AFF"/>
<path d="M20.7561 3.21268C18.6844 1.14095 15.9299 0 13 0C10.0701 0 7.31565 1.14095 5.24393 3.21268C3.1722 5.2844 2.03125 8.03887 2.03125 10.9688V11.1719H5.07812V10.9688C5.07812 6.6006 8.63185 3.04688 13 3.04688C17.3682 3.04688 20.9219 6.6006 20.9219 10.9688V11.1719H23.9688V10.9688C23.9688 8.03887 22.8278 5.2844 20.7561 3.21268Z" fill="#008AFF"/>
</svg>
