<svg width="27" height="24" viewBox="0 0 27 24" fill="none" xmlns="http://www.w3.org/2000/svg">
<path d="M20.6783 10.9078H15.2377C14.637 10.9078 14.1489 10.4185 14.1489 9.81636C14.1489 9.21419 14.6354 8.72656 15.2361 8.72656H20.6767C21.2774 8.72656 21.7655 9.21582 21.7655 9.81799C21.7655 10.4202 21.279 10.9078 20.6783 10.9078Z" fill="#8DCBFF"/>
<path d="M20.6783 15.2722H15.2377C14.637 15.2722 14.1489 14.783 14.1489 14.1808C14.1489 13.5786 14.637 13.0894 15.2377 13.0894H20.6783C21.279 13.0894 21.7671 13.5786 21.7671 14.1808C21.7671 14.783 21.279 15.2722 20.6783 15.2722Z" fill="#8DCBFF"/>
<path d="M20.6783 19.636H15.2377C14.637 19.636 14.1489 19.1467 14.1489 18.5446C14.1489 17.9424 14.637 17.4531 15.2377 17.4531H20.6783C21.279 17.4531 21.7671 17.9424 21.7671 18.5446C21.7671 19.1467 21.279 19.636 20.6783 19.636Z" fill="#8DCBFF"/>
<path d="M10.0658 13.0908H6.25749C5.20789 13.0908 4.35254 12.235 4.35254 11.1812V9.54485C4.35254 8.49269 5.20626 7.63525 6.25749 7.63525H10.0658C11.1154 7.63525 11.9707 8.49105 11.9707 9.54485V11.1812C11.9691 12.2333 11.1154 13.0908 10.0658 13.0908Z" fill="#5EB5FF"/>
<path d="M10.0668 20.726H6.25847C5.20887 20.726 4.35352 19.8702 4.35352 18.8164V17.1801C4.35352 16.1279 5.20724 15.2705 6.25847 15.2705H10.0668C11.1164 15.2705 11.9717 16.1263 11.9717 17.1801V18.8164C11.9701 19.8702 11.1164 20.726 10.0668 20.726Z" fill="#5EB5FF"/>
<path d="M22.8529 0H3.26471C1.46422 0 0 1.46778 0 3.27265V20.7273C0 22.5322 1.46422 24 3.26471 24H22.8529C24.6534 24 26.1176 22.5322 26.1176 20.7273V3.27265C26.1176 1.46778 24.6534 0 22.8529 0ZM22.8529 21.8171H3.26471C2.664 21.8171 2.17593 21.3279 2.17593 20.7257V5.45388H23.9417V20.7257C23.9417 21.3279 23.4536 21.8171 22.8529 21.8171Z" fill="#008AFF"/>
</svg>
