<svg width="26" height="26" viewBox="0 0 26 26" fill="none" xmlns="http://www.w3.org/2000/svg">
<path d="M26 18.0861C26 18.3348 25.8358 18.5494 25.61 18.6224L20.3482 20.3466L18.624 25.6084C18.551 25.8358 18.3348 26 18.0861 26C17.8425 26 17.6393 25.8473 17.5612 25.6378L13.0389 13.7685C13.0115 13.707 13 13.6387 13 13.5653C13 13.2551 13.2535 13 13.5653 13C13.6387 13 13.707 13.0115 13.7685 13.0389L25.6378 17.5612C25.8473 17.6409 26 17.8441 26 18.0861Z" fill="#008AFF"/>
<path d="M12 24C5.38394 24 0 18.6164 0 12.0008C0 5.38518 5.38394 0 12 0C18.6161 0 24 5.38358 24 11.9992C24 12.5341 23.9656 13.0595 23.8953 13.5604C23.8134 14.1557 23.2801 14.5747 22.6664 14.4928C22.0691 14.4109 21.6516 13.8596 21.7351 13.264C21.7907 12.8617 21.8186 12.4362 21.8186 12.0008C21.8186 6.58766 17.4151 2.18284 12 2.18284C6.5849 2.18284 2.18138 6.58766 2.18138 12.0008C2.18138 17.4139 6.5849 21.8188 12 21.8188C12.4319 21.8188 12.8574 21.7908 13.2665 21.7353C13.8674 21.657 14.4139 22.0724 14.4954 22.6697C14.5757 23.2669 14.1586 23.8166 13.5613 23.8969C13.0555 23.9656 12.5302 24 12 24Z" fill="#8DCBFF"/>
<path d="M11.0028 18C10.9687 18 10.9346 17.9984 10.9005 17.9952C7.53651 17.683 4.99976 14.8964 4.99976 11.5147C4.99976 7.92191 7.92174 5 11.5146 5C14.9075 5 17.6946 7.54303 17.9953 10.9148C18.0489 11.5115 17.6085 12.038 17.0122 12.0915C16.4012 12.1304 15.8906 11.7047 15.8371 11.11C15.6355 8.86255 13.7768 7.16931 11.5146 7.16931C9.11751 7.16931 7.16595 9.11923 7.16595 11.5179C7.16595 13.7733 8.85765 15.6323 11.1 15.8402C11.6967 15.8958 12.1335 16.4238 12.0784 17.0201C12.028 17.5791 11.5551 18 11.0028 18Z" fill="#5EB5FF"/>
</svg>
