<svg width="228" height="56" viewBox="0 0 228 56" fill="none" xmlns="http://www.w3.org/2000/svg">
<rect width="56" height="56" rx="4" fill="#1777E5"/>
<path d="M23.2268 37C23.0654 37 22.9628 36.9267 22.9188 36.78L18.9148 21.886L18.8928 21.798C18.8928 21.666 18.9734 21.6 19.1348 21.6H21.2908C21.4521 21.6 21.5548 21.6733 21.5988 21.82L24.1068 31.852C24.1214 31.896 24.1434 31.918 24.1728 31.918C24.2021 31.918 24.2241 31.896 24.2388 31.852L26.6368 21.82C26.6808 21.6733 26.7761 21.6 26.9228 21.6H29.0348C29.1961 21.6 29.2988 21.6733 29.3428 21.82L31.8948 31.874C31.9094 31.918 31.9314 31.94 31.9608 31.94C31.9901 31.94 32.0121 31.918 32.0268 31.874L34.4908 21.82C34.5348 21.6733 34.6374 21.6 34.7988 21.6H36.8448C37.0501 21.6 37.1308 21.6953 37.0868 21.886L33.2808 36.78C33.2368 36.9267 33.1341 37 32.9728 37H30.9268C30.7654 37 30.6628 36.9267 30.6188 36.78L28.0448 26.286C28.0301 26.242 28.0081 26.22 27.9788 26.22C27.9494 26.2053 27.9274 26.2273 27.9128 26.286L25.4488 36.78C25.4048 36.9267 25.3094 37 25.1628 37H23.2268Z" fill="white"/>
<path d="M72.5 24C72.38 24 72.3067 23.9467 72.28 23.84L68.52 10.22L68.5 10.16C68.5 10.0533 68.5667 10 68.7 10H70.32C70.44 10 70.5133 10.06 70.54 10.18L73.16 20.14C73.1733 20.1667 73.1867 20.18 73.2 20.18C73.2267 20.18 73.2467 20.1667 73.26 20.14L75.74 10.18C75.7667 10.06 75.84 10 75.96 10H77.54C77.66 10 77.7333 10.06 77.76 10.18L80.38 20.16C80.3933 20.1867 80.4067 20.2 80.42 20.2C80.4333 20.2 80.4467 20.1867 80.46 20.16L83.1 10.18C83.1267 10.06 83.2 10 83.32 10H84.84C84.9067 10 84.9533 10.02 84.98 10.06C85.02 10.1 85.0333 10.1533 85.02 10.22L81.4 23.82C81.3733 23.94 81.3 24 81.18 24H79.64C79.52 24 79.4467 23.94 79.42 23.82L76.8 13.5C76.7867 13.46 76.7733 13.44 76.76 13.44C76.7467 13.44 76.7333 13.46 76.72 13.5L74.18 23.82C74.1667 23.94 74.0933 24 73.96 24H72.5ZM87.3986 24C87.2653 24 87.1986 23.9333 87.1986 23.8V10.2C87.1986 10.0667 87.2653 10 87.3986 10H88.9186C89.0519 10 89.1186 10.0667 89.1186 10.2V23.8C89.1186 23.9333 89.0519 24 88.9186 24H87.3986ZM100.634 10.2C100.634 10.0667 100.701 10 100.834 10H102.354C102.487 10 102.554 10.0667 102.554 10.2V23.8C102.554 23.9333 102.487 24 102.354 24H100.894C100.801 24 100.721 23.9533 100.654 23.86L94.3939 13.64C94.3806 13.6 94.3606 13.5867 94.3339 13.6C94.3072 13.6 94.2939 13.62 94.2939 13.66L94.3139 23.8C94.3139 23.9333 94.2472 24 94.1139 24H92.5939C92.4606 24 92.3939 23.9333 92.3939 23.8V10.2C92.3939 10.0667 92.4606 10 92.5939 10H94.0739C94.1672 10 94.2472 10.0467 94.3139 10.14L100.554 20.36C100.567 20.4 100.587 20.42 100.614 20.42C100.641 20.4067 100.654 20.38 100.654 20.34L100.634 10.2ZM110.171 24.16C109.144 24.16 108.251 24 107.491 23.68C106.744 23.36 106.164 22.9067 105.751 22.32C105.351 21.7333 105.151 21.0467 105.151 20.26V19.68C105.151 19.5467 105.218 19.48 105.351 19.48H106.811C106.944 19.48 107.011 19.5467 107.011 19.68V20.16C107.011 20.84 107.304 21.4 107.891 21.84C108.478 22.28 109.284 22.5 110.311 22.5C111.231 22.5 111.924 22.3067 112.391 21.92C112.858 21.5333 113.091 21.0267 113.091 20.4C113.091 19.9867 112.971 19.6333 112.731 19.34C112.491 19.0467 112.138 18.78 111.671 18.54C111.218 18.2867 110.551 17.9867 109.671 17.64C108.698 17.2667 107.924 16.9267 107.351 16.62C106.791 16.3133 106.324 15.9133 105.951 15.42C105.578 14.9133 105.391 14.28 105.391 13.52C105.391 12.3733 105.798 11.4733 106.611 10.82C107.438 10.1667 108.551 9.84 109.951 9.84C110.938 9.84 111.804 10.0067 112.551 10.34C113.298 10.6733 113.871 11.14 114.271 11.74C114.684 12.34 114.891 13.0333 114.891 13.82V14.22C114.891 14.3533 114.824 14.42 114.691 14.42H113.191C113.058 14.42 112.991 14.3533 112.991 14.22V13.92C112.991 13.2267 112.711 12.6533 112.151 12.2C111.604 11.7333 110.844 11.5 109.871 11.5C109.044 11.5 108.404 11.6733 107.951 12.02C107.498 12.3533 107.271 12.84 107.271 13.48C107.271 13.92 107.384 14.28 107.611 14.56C107.838 14.84 108.171 15.0933 108.611 15.32C109.064 15.5333 109.751 15.8133 110.671 16.16C111.618 16.5333 112.384 16.88 112.971 17.2C113.558 17.5067 114.044 17.92 114.431 18.44C114.818 18.9467 115.011 19.58 115.011 20.34C115.011 21.5133 114.578 22.4467 113.711 23.14C112.858 23.82 111.678 24.16 110.171 24.16ZM126.177 10C126.31 10 126.377 10.0667 126.377 10.2V11.48C126.377 11.6133 126.31 11.68 126.177 11.68H122.337C122.283 11.68 122.257 11.7067 122.257 11.76V23.8C122.257 23.9333 122.19 24 122.057 24H120.537C120.403 24 120.337 23.9333 120.337 23.8V11.76C120.337 11.7067 120.31 11.68 120.257 11.68H116.597C116.463 11.68 116.397 11.6133 116.397 11.48V10.2C116.397 10.0667 116.463 10 116.597 10H126.177ZM132.501 24.18C131.527 24.18 130.667 23.98 129.921 23.58C129.174 23.18 128.594 22.62 128.181 21.9C127.767 21.1667 127.561 20.3267 127.561 19.38V14.62C127.561 13.6733 127.767 12.84 128.181 12.12C128.594 11.4 129.174 10.84 129.921 10.44C130.667 10.04 131.527 9.84 132.501 9.84C133.487 9.84 134.354 10.04 135.101 10.44C135.847 10.84 136.427 11.4 136.841 12.12C137.254 12.84 137.461 13.6733 137.461 14.62V19.38C137.461 20.3267 137.254 21.1667 136.841 21.9C136.427 22.62 135.847 23.18 135.101 23.58C134.354 23.98 133.487 24.18 132.501 24.18ZM132.501 22.52C133.407 22.52 134.141 22.24 134.701 21.68C135.261 21.12 135.541 20.38 135.541 19.46V14.6C135.541 13.6667 135.261 12.92 134.701 12.36C134.141 11.7867 133.407 11.5 132.501 11.5C131.594 11.5 130.861 11.7867 130.301 12.36C129.754 12.92 129.481 13.6667 129.481 14.6V19.46C129.481 20.38 129.754 21.12 130.301 21.68C130.861 22.24 131.594 22.52 132.501 22.52ZM148.622 10.2C148.622 10.0667 148.689 10 148.822 10H150.342C150.476 10 150.542 10.0667 150.542 10.2V23.8C150.542 23.9333 150.476 24 150.342 24H148.882C148.789 24 148.709 23.9533 148.642 23.86L142.382 13.64C142.369 13.6 142.349 13.5867 142.322 13.6C142.296 13.6 142.282 13.62 142.282 13.66L142.302 23.8C142.302 23.9333 142.236 24 142.102 24H140.582C140.449 24 140.382 23.9333 140.382 23.8V10.2C140.382 10.0667 140.449 10 140.582 10H142.062C142.156 10 142.236 10.0467 142.302 10.14L148.542 20.36C148.556 20.4 148.576 20.42 148.602 20.42C148.629 20.4067 148.642 20.38 148.642 20.34L148.622 10.2ZM163.323 9.98C164.136 9.98 164.85 10.1533 165.463 10.5C166.09 10.8333 166.57 11.3067 166.903 11.92C167.25 12.5333 167.423 13.24 167.423 14.04C167.423 14.84 167.25 15.54 166.903 16.14C166.556 16.74 166.063 17.2067 165.423 17.54C164.796 17.8733 164.07 18.04 163.243 18.04H159.723C159.67 18.04 159.643 18.0667 159.643 18.12V23.8C159.643 23.9333 159.576 24 159.443 24H157.923C157.79 24 157.723 23.9333 157.723 23.8V10.18C157.723 10.0467 157.79 9.98 157.923 9.98H163.323ZM163.063 16.48C163.796 16.48 164.383 16.26 164.823 15.82C165.276 15.38 165.503 14.8 165.503 14.08C165.503 13.3467 165.276 12.76 164.823 12.32C164.383 11.8667 163.796 11.64 163.063 11.64H159.723C159.67 11.64 159.643 11.6667 159.643 11.72V16.4C159.643 16.4533 159.67 16.48 159.723 16.48H163.063ZM174.259 24.18C173.285 24.18 172.425 23.98 171.679 23.58C170.932 23.18 170.352 22.62 169.939 21.9C169.525 21.1667 169.319 20.3267 169.319 19.38V14.62C169.319 13.6733 169.525 12.84 169.939 12.12C170.352 11.4 170.932 10.84 171.679 10.44C172.425 10.04 173.285 9.84 174.259 9.84C175.245 9.84 176.112 10.04 176.859 10.44C177.605 10.84 178.185 11.4 178.599 12.12C179.012 12.84 179.219 13.6733 179.219 14.62V19.38C179.219 20.3267 179.012 21.1667 178.599 21.9C178.185 22.62 177.605 23.18 176.859 23.58C176.112 23.98 175.245 24.18 174.259 24.18ZM174.259 22.52C175.165 22.52 175.899 22.24 176.459 21.68C177.019 21.12 177.299 20.38 177.299 19.46V14.6C177.299 13.6667 177.019 12.92 176.459 12.36C175.899 11.7867 175.165 11.5 174.259 11.5C173.352 11.5 172.619 11.7867 172.059 12.36C171.512 12.92 171.239 13.6667 171.239 14.6V19.46C171.239 20.38 171.512 21.12 172.059 21.68C172.619 22.24 173.352 22.52 174.259 22.52ZM190.864 10C190.998 10 191.064 10.0667 191.064 10.2V11.48C191.064 11.6133 190.998 11.68 190.864 11.68H187.024C186.971 11.68 186.944 11.7067 186.944 11.76V23.8C186.944 23.9333 186.878 24 186.744 24H185.224C185.091 24 185.024 23.9333 185.024 23.8V11.76C185.024 11.7067 184.998 11.68 184.944 11.68H181.284C181.151 11.68 181.084 11.6133 181.084 11.48V10.2C181.084 10.0667 181.151 10 181.284 10H190.864ZM202.349 10C202.482 10 202.549 10.0667 202.549 10.2V11.48C202.549 11.6133 202.482 11.68 202.349 11.68H198.509C198.455 11.68 198.429 11.7067 198.429 11.76V23.8C198.429 23.9333 198.362 24 198.229 24H196.709C196.575 24 196.509 23.9333 196.509 23.8V11.76C196.509 11.7067 196.482 11.68 196.429 11.68H192.769C192.635 11.68 192.569 11.6133 192.569 11.48V10.2C192.569 10.0667 192.635 10 192.769 10H202.349ZM214.233 11.46C214.233 11.5933 214.166 11.66 214.033 11.66H206.933C206.88 11.66 206.853 11.6867 206.853 11.74V16.04C206.853 16.0933 206.88 16.12 206.933 16.12H211.813C211.946 16.12 212.013 16.1867 212.013 16.32V17.58C212.013 17.7133 211.946 17.78 211.813 17.78H206.933C206.88 17.78 206.853 17.8067 206.853 17.86V22.26C206.853 22.3133 206.88 22.34 206.933 22.34H214.033C214.166 22.34 214.233 22.4067 214.233 22.54V23.8C214.233 23.9333 214.166 24 214.033 24H205.133C205 24 204.933 23.9333 204.933 23.8V10.2C204.933 10.0667 205 10 205.133 10H214.033C214.166 10 214.233 10.0667 214.233 10.2V11.46ZM224.866 24C224.759 24 224.686 23.9533 224.646 23.86L221.846 17.88C221.833 17.84 221.806 17.82 221.766 17.82H218.886C218.833 17.82 218.806 17.8467 218.806 17.9V23.8C218.806 23.9333 218.739 24 218.606 24H217.086C216.953 24 216.886 23.9333 216.886 23.8V10.2C216.886 10.0667 216.953 10 217.086 10H222.466C223.266 10 223.966 10.1667 224.566 10.5C225.179 10.8333 225.653 11.3 225.986 11.9C226.319 12.5 226.486 13.1933 226.486 13.98C226.486 14.9133 226.239 15.7067 225.746 16.36C225.266 17 224.593 17.4333 223.726 17.66C223.673 17.6867 223.659 17.72 223.686 17.76L226.586 23.76C226.599 23.7867 226.606 23.82 226.606 23.86C226.606 23.9533 226.553 24 226.446 24H224.866ZM218.886 11.66C218.833 11.66 218.806 11.6867 218.806 11.74V16.22C218.806 16.2733 218.833 16.3 218.886 16.3H222.226C222.933 16.3 223.499 16.0933 223.926 15.68C224.353 15.2533 224.566 14.6933 224.566 14C224.566 13.2933 224.353 12.7267 223.926 12.3C223.499 11.8733 222.933 11.66 222.226 11.66H218.886Z" fill="white"/>
<path d="M73.04 36.186C73.8613 36.186 74.5193 36.438 75.014 36.942C75.518 37.446 75.77 38.1087 75.77 38.93C75.77 39.742 75.5133 40.3953 75 40.89C74.496 41.3847 73.8287 41.632 72.998 41.632H70.268C70.2307 41.632 70.212 41.6507 70.212 41.688V45.86C70.212 45.9533 70.1653 46 70.072 46H69.358C69.2647 46 69.218 45.9533 69.218 45.86V36.326C69.218 36.2327 69.2647 36.186 69.358 36.186H73.04ZM72.928 40.806C73.4787 40.806 73.9267 40.638 74.272 40.302C74.6173 39.9567 74.79 39.504 74.79 38.944C74.79 38.3747 74.6173 37.9173 74.272 37.572C73.9267 37.2267 73.4787 37.054 72.928 37.054H70.268C70.2307 37.054 70.212 37.0727 70.212 37.11V40.75C70.212 40.7873 70.2307 40.806 70.268 40.806H72.928ZM80.2612 38.846C80.5692 38.846 80.8352 38.9067 81.0592 39.028C81.1338 39.0653 81.1618 39.126 81.1432 39.21L80.9892 39.896C80.9612 39.9893 80.9005 40.0173 80.8072 39.98C80.6485 39.9147 80.4665 39.882 80.2612 39.882L80.0792 39.896C79.5938 39.9147 79.1925 40.0967 78.8752 40.442C78.5578 40.778 78.3992 41.2073 78.3992 41.73V45.86C78.3992 45.9533 78.3525 46 78.2592 46H77.5452C77.4518 46 77.4052 45.9533 77.4052 45.86V39.056C77.4052 38.9627 77.4518 38.916 77.5452 38.916H78.2592C78.3525 38.916 78.3992 38.9627 78.3992 39.056V39.91C78.3992 39.938 78.4038 39.9567 78.4132 39.966C78.4318 39.966 78.4458 39.9567 78.4552 39.938C78.6512 39.5927 78.8985 39.3267 79.1972 39.14C79.5052 38.944 79.8598 38.846 80.2612 38.846ZM85.1384 46.112C84.4664 46.112 83.8877 45.9393 83.4024 45.594C82.9171 45.2487 82.5811 44.7727 82.3944 44.166C82.2637 43.7367 82.1984 43.1627 82.1984 42.444C82.1984 41.7253 82.2637 41.156 82.3944 40.736C82.5717 40.1387 82.9031 39.6673 83.3884 39.322C83.8737 38.9767 84.4617 38.804 85.1524 38.804C85.8151 38.804 86.3844 38.9767 86.8604 39.322C87.3457 39.6673 87.6771 40.134 87.8544 40.722C87.9851 41.1233 88.0504 41.6973 88.0504 42.444C88.0504 43.2 87.9851 43.774 87.8544 44.166C87.6771 44.7727 87.3457 45.2487 86.8604 45.594C86.3844 45.9393 85.8104 46.112 85.1384 46.112ZM85.1384 45.244C85.5864 45.244 85.9691 45.1227 86.2864 44.88C86.6037 44.628 86.8184 44.292 86.9304 43.872C87.0144 43.536 87.0564 43.0647 87.0564 42.458C87.0564 41.842 87.0191 41.3707 86.9444 41.044C86.8324 40.624 86.6131 40.2927 86.2864 40.05C85.9691 39.798 85.5817 39.672 85.1244 39.672C84.6671 39.672 84.2797 39.798 83.9624 40.05C83.6451 40.2927 83.4304 40.624 83.3184 41.044C83.2437 41.3707 83.2064 41.842 83.2064 42.458C83.2064 43.074 83.2437 43.5453 83.3184 43.872C83.4211 44.292 83.6311 44.628 83.9484 44.88C84.2751 45.1227 84.6717 45.244 85.1384 45.244ZM92.7833 37.068C92.2699 37.068 91.9199 37.1847 91.7333 37.418C91.5466 37.642 91.4533 38.0293 91.4533 38.58V38.86C91.4533 38.8973 91.4719 38.916 91.5093 38.916H93.0773C93.1706 38.916 93.2173 38.9627 93.2173 39.056V39.686C93.2173 39.7793 93.1706 39.826 93.0773 39.826H91.5093C91.4719 39.826 91.4533 39.8447 91.4533 39.882V45.86C91.4533 45.9533 91.4066 46 91.3133 46H90.6133C90.5199 46 90.4733 45.9533 90.4733 45.86V39.882C90.4733 39.8447 90.4546 39.826 90.4173 39.826H89.4793C89.3859 39.826 89.3393 39.7793 89.3393 39.686V39.056C89.3393 38.9627 89.3859 38.916 89.4793 38.916H90.4173C90.4546 38.916 90.4733 38.8973 90.4733 38.86V38.524C90.4733 37.9453 90.5386 37.4927 90.6693 37.166C90.7999 36.83 91.0239 36.5873 91.3413 36.438C91.6679 36.2793 92.1206 36.2 92.6993 36.2H93.1053C93.1986 36.2 93.2453 36.2467 93.2453 36.34V36.928C93.2453 37.0213 93.1986 37.068 93.1053 37.068H92.7833ZM99.7493 41.268C99.7866 41.5293 99.8053 41.856 99.8053 42.248V42.696C99.8053 42.7893 99.7586 42.836 99.6653 42.836H95.1433C95.1059 42.836 95.0873 42.8547 95.0873 42.892C95.1059 43.4053 95.1339 43.7367 95.1713 43.886C95.2739 44.306 95.4933 44.6373 95.8293 44.88C96.1653 45.1227 96.5946 45.244 97.1173 45.244C97.5093 45.244 97.8546 45.1553 98.1533 44.978C98.4519 44.8007 98.6853 44.5487 98.8533 44.222C98.9093 44.138 98.9746 44.1193 99.0493 44.166L99.5953 44.488C99.6699 44.5347 99.6886 44.6 99.6513 44.684C99.4179 45.132 99.0679 45.4867 98.6013 45.748C98.1346 46 97.5979 46.126 96.9913 46.126C96.3286 46.1167 95.7733 45.958 95.3253 45.65C94.8773 45.342 94.5553 44.9127 94.3593 44.362C94.1913 43.914 94.1073 43.27 94.1073 42.43C94.1073 42.038 94.1119 41.7207 94.1213 41.478C94.1399 41.226 94.1773 41.002 94.2333 40.806C94.3919 40.1993 94.7093 39.714 95.1853 39.35C95.6706 38.986 96.2539 38.804 96.9353 38.804C97.7846 38.804 98.4379 39.0187 98.8953 39.448C99.3526 39.8773 99.6373 40.484 99.7493 41.268ZM96.9353 39.672C96.4779 39.672 96.0953 39.7933 95.7873 40.036C95.4886 40.2693 95.2926 40.5867 95.1993 40.988C95.1433 41.184 95.1059 41.5013 95.0873 41.94C95.0873 41.9773 95.1059 41.996 95.1433 41.996H98.7693C98.8066 41.996 98.8253 41.9773 98.8253 41.94C98.8066 41.52 98.7786 41.2213 98.7413 41.044C98.6386 40.624 98.4286 40.2927 98.1113 40.05C97.8033 39.798 97.4113 39.672 96.9353 39.672ZM103.983 46.07C103.46 46.07 102.994 45.986 102.583 45.818C102.182 45.65 101.869 45.426 101.645 45.146C101.43 44.866 101.323 44.5533 101.323 44.208V44.04C101.323 43.9467 101.37 43.9 101.463 43.9H102.135C102.228 43.9 102.275 43.9467 102.275 44.04V44.152C102.275 44.46 102.434 44.7307 102.751 44.964C103.078 45.188 103.484 45.3 103.969 45.3C104.454 45.3 104.846 45.1927 105.145 44.978C105.444 44.754 105.593 44.474 105.593 44.138C105.593 43.9047 105.514 43.7133 105.355 43.564C105.206 43.4147 105.024 43.298 104.809 43.214C104.604 43.13 104.282 43.0227 103.843 42.892C103.32 42.7427 102.891 42.5933 102.555 42.444C102.219 42.2947 101.934 42.0893 101.701 41.828C101.477 41.5573 101.365 41.2167 101.365 40.806C101.365 40.2087 101.598 39.7327 102.065 39.378C102.532 39.0233 103.148 38.846 103.913 38.846C104.426 38.846 104.879 38.93 105.271 39.098C105.672 39.266 105.98 39.4993 106.195 39.798C106.41 40.0873 106.517 40.414 106.517 40.778V40.82C106.517 40.9133 106.47 40.96 106.377 40.96H105.719C105.626 40.96 105.579 40.9133 105.579 40.82V40.778C105.579 40.4607 105.425 40.1947 105.117 39.98C104.818 39.7653 104.412 39.658 103.899 39.658C103.423 39.658 103.04 39.756 102.751 39.952C102.462 40.1387 102.317 40.4 102.317 40.736C102.317 41.0533 102.457 41.296 102.737 41.464C103.017 41.632 103.451 41.8 104.039 41.968C104.58 42.1267 105.019 42.276 105.355 42.416C105.691 42.556 105.98 42.7613 106.223 43.032C106.466 43.2933 106.587 43.6387 106.587 44.068C106.587 44.6747 106.349 45.16 105.873 45.524C105.397 45.888 104.767 46.07 103.983 46.07ZM110.518 46.07C109.996 46.07 109.529 45.986 109.118 45.818C108.717 45.65 108.404 45.426 108.18 45.146C107.966 44.866 107.858 44.5533 107.858 44.208V44.04C107.858 43.9467 107.905 43.9 107.998 43.9H108.67C108.764 43.9 108.81 43.9467 108.81 44.04V44.152C108.81 44.46 108.969 44.7307 109.286 44.964C109.613 45.188 110.019 45.3 110.504 45.3C110.99 45.3 111.382 45.1927 111.68 44.978C111.979 44.754 112.128 44.474 112.128 44.138C112.128 43.9047 112.049 43.7133 111.89 43.564C111.741 43.4147 111.559 43.298 111.344 43.214C111.139 43.13 110.817 43.0227 110.378 42.892C109.856 42.7427 109.426 42.5933 109.09 42.444C108.754 42.2947 108.47 42.0893 108.236 41.828C108.012 41.5573 107.9 41.2167 107.9 40.806C107.9 40.2087 108.134 39.7327 108.6 39.378C109.067 39.0233 109.683 38.846 110.448 38.846C110.962 38.846 111.414 38.93 111.806 39.098C112.208 39.266 112.516 39.4993 112.73 39.798C112.945 40.0873 113.052 40.414 113.052 40.778V40.82C113.052 40.9133 113.006 40.96 112.912 40.96H112.254C112.161 40.96 112.114 40.9133 112.114 40.82V40.778C112.114 40.4607 111.96 40.1947 111.652 39.98C111.354 39.7653 110.948 39.658 110.434 39.658C109.958 39.658 109.576 39.756 109.286 39.952C108.997 40.1387 108.852 40.4 108.852 40.736C108.852 41.0533 108.992 41.296 109.272 41.464C109.552 41.632 109.986 41.8 110.574 41.968C111.116 42.1267 111.554 42.276 111.89 42.416C112.226 42.556 112.516 42.7613 112.758 43.032C113.001 43.2933 113.122 43.6387 113.122 44.068C113.122 44.6747 112.884 45.16 112.408 45.524C111.932 45.888 111.302 46.07 110.518 46.07ZM115.606 37.628C115.382 37.628 115.196 37.5533 115.046 37.404C114.897 37.2547 114.822 37.068 114.822 36.844C114.822 36.6107 114.897 36.424 115.046 36.284C115.196 36.1347 115.382 36.06 115.606 36.06C115.83 36.06 116.017 36.1347 116.166 36.284C116.316 36.424 116.39 36.6107 116.39 36.844C116.39 37.068 116.316 37.2547 116.166 37.404C116.017 37.5533 115.83 37.628 115.606 37.628ZM115.214 45.986C115.121 45.986 115.074 45.9393 115.074 45.846V39.042C115.074 38.9487 115.121 38.902 115.214 38.902H115.928C116.022 38.902 116.068 38.9487 116.068 39.042V45.846C116.068 45.9393 116.022 45.986 115.928 45.986H115.214ZM121.205 46.112C120.533 46.112 119.954 45.9393 119.469 45.594C118.983 45.2487 118.647 44.7727 118.461 44.166C118.33 43.7367 118.265 43.1627 118.265 42.444C118.265 41.7253 118.33 41.156 118.461 40.736C118.638 40.1387 118.969 39.6673 119.455 39.322C119.94 38.9767 120.528 38.804 121.219 38.804C121.881 38.804 122.451 38.9767 122.927 39.322C123.412 39.6673 123.743 40.134 123.921 40.722C124.051 41.1233 124.117 41.6973 124.117 42.444C124.117 43.2 124.051 43.774 123.921 44.166C123.743 44.7727 123.412 45.2487 122.927 45.594C122.451 45.9393 121.877 46.112 121.205 46.112ZM121.205 45.244C121.653 45.244 122.035 45.1227 122.353 44.88C122.67 44.628 122.885 44.292 122.997 43.872C123.081 43.536 123.123 43.0647 123.123 42.458C123.123 41.842 123.085 41.3707 123.011 41.044C122.899 40.624 122.679 40.2927 122.353 40.05C122.035 39.798 121.648 39.672 121.191 39.672C120.733 39.672 120.346 39.798 120.029 40.05C119.711 40.2927 119.497 40.624 119.385 41.044C119.31 41.3707 119.273 41.842 119.273 42.458C119.273 43.074 119.31 43.5453 119.385 43.872C119.487 44.292 119.697 44.628 120.015 44.88C120.341 45.1227 120.738 45.244 121.205 45.244ZM129.072 38.818C129.818 38.818 130.411 39.0373 130.85 39.476C131.298 39.9147 131.522 40.5027 131.522 41.24V45.86C131.522 45.9533 131.475 46 131.382 46H130.668C130.574 46 130.528 45.9533 130.528 45.86V41.436C130.528 40.9227 130.369 40.5027 130.052 40.176C129.744 39.8493 129.342 39.686 128.848 39.686C128.334 39.686 127.919 39.8447 127.602 40.162C127.284 40.4793 127.126 40.8947 127.126 41.408V45.86C127.126 45.9533 127.079 46 126.986 46H126.272C126.178 46 126.132 45.9533 126.132 45.86V39.056C126.132 38.9627 126.178 38.916 126.272 38.916H126.986C127.079 38.916 127.126 38.9627 127.126 39.056V39.658C127.126 39.6767 127.13 39.6907 127.14 39.7C127.158 39.7093 127.172 39.7047 127.182 39.686C127.592 39.1073 128.222 38.818 129.072 38.818ZM136.129 38.804C136.969 38.804 137.617 39.0187 138.075 39.448C138.532 39.8773 138.761 40.4467 138.761 41.156V45.86C138.761 45.9533 138.714 46 138.621 46H137.907C137.813 46 137.767 45.9533 137.767 45.86V45.286C137.767 45.2673 137.757 45.2533 137.739 45.244C137.729 45.2347 137.715 45.2393 137.697 45.258C137.463 45.538 137.16 45.7527 136.787 45.902C136.413 46.042 135.998 46.112 135.541 46.112C134.878 46.112 134.323 45.944 133.875 45.608C133.427 45.272 133.203 44.7587 133.203 44.068C133.203 43.368 133.455 42.8173 133.959 42.416C134.472 42.0053 135.181 41.8 136.087 41.8H137.711C137.748 41.8 137.767 41.7813 137.767 41.744V41.212C137.767 40.736 137.631 40.3627 137.361 40.092C137.099 39.812 136.689 39.672 136.129 39.672C135.681 39.672 135.317 39.7607 135.037 39.938C134.757 40.106 134.584 40.344 134.519 40.652C134.491 40.7453 134.435 40.7873 134.351 40.778L133.595 40.68C133.492 40.6613 133.45 40.624 133.469 40.568C133.543 40.0453 133.823 39.6207 134.309 39.294C134.794 38.9673 135.401 38.804 136.129 38.804ZM135.737 45.258C136.287 45.258 136.763 45.1227 137.165 44.852C137.566 44.572 137.767 44.1987 137.767 43.732V42.64C137.767 42.6027 137.748 42.584 137.711 42.584H136.241C135.625 42.584 135.13 42.71 134.757 42.962C134.383 43.214 134.197 43.564 134.197 44.012C134.197 44.4227 134.337 44.7353 134.617 44.95C134.906 45.1553 135.279 45.258 135.737 45.258ZM140.969 46C140.876 46 140.829 45.9533 140.829 45.86V36.34C140.829 36.2467 140.876 36.2 140.969 36.2H141.683C141.776 36.2 141.823 36.2467 141.823 36.34V45.86C141.823 45.9533 141.776 46 141.683 46H140.969ZM147.194 46C147.101 46 147.054 45.9533 147.054 45.86V36.34C147.054 36.2467 147.101 36.2 147.194 36.2H147.908C148.002 36.2 148.048 36.2467 148.048 36.34V45.076C148.048 45.1133 148.067 45.132 148.104 45.132H153.046C153.14 45.132 153.186 45.1787 153.186 45.272V45.86C153.186 45.9533 153.14 46 153.046 46H147.194ZM157.265 38.804C158.105 38.804 158.754 39.0187 159.211 39.448C159.669 39.8773 159.897 40.4467 159.897 41.156V45.86C159.897 45.9533 159.851 46 159.757 46H159.043C158.95 46 158.903 45.9533 158.903 45.86V45.286C158.903 45.2673 158.894 45.2533 158.875 45.244C158.866 45.2347 158.852 45.2393 158.833 45.258C158.6 45.538 158.297 45.7527 157.923 45.902C157.55 46.042 157.135 46.112 156.677 46.112C156.015 46.112 155.459 45.944 155.011 45.608C154.563 45.272 154.339 44.7587 154.339 44.068C154.339 43.368 154.591 42.8173 155.095 42.416C155.609 42.0053 156.318 41.8 157.223 41.8H158.847C158.885 41.8 158.903 41.7813 158.903 41.744V41.212C158.903 40.736 158.768 40.3627 158.497 40.092C158.236 39.812 157.825 39.672 157.265 39.672C156.817 39.672 156.453 39.7607 156.173 39.938C155.893 40.106 155.721 40.344 155.655 40.652C155.627 40.7453 155.571 40.7873 155.487 40.778L154.731 40.68C154.629 40.6613 154.587 40.624 154.605 40.568C154.68 40.0453 154.96 39.6207 155.445 39.294C155.931 38.9673 156.537 38.804 157.265 38.804ZM156.873 45.258C157.424 45.258 157.9 45.1227 158.301 44.852C158.703 44.572 158.903 44.1987 158.903 43.732V42.64C158.903 42.6027 158.885 42.584 158.847 42.584H157.377C156.761 42.584 156.267 42.71 155.893 42.962C155.52 43.214 155.333 43.564 155.333 44.012C155.333 44.4227 155.473 44.7353 155.753 44.95C156.043 45.1553 156.416 45.258 156.873 45.258ZM163.354 46C163.279 46 163.228 45.9627 163.2 45.888L161.212 39.07L161.198 39.028C161.198 38.9533 161.244 38.916 161.338 38.916H162.066C162.15 38.916 162.201 38.958 162.22 39.042L163.704 44.558C163.713 44.5767 163.722 44.586 163.732 44.586C163.75 44.586 163.764 44.5767 163.774 44.558L165.286 39.042C165.304 38.958 165.356 38.916 165.44 38.916H166.112C166.196 38.916 166.247 38.9533 166.266 39.028L167.792 44.544C167.801 44.5627 167.815 44.572 167.834 44.572C167.852 44.572 167.866 44.5627 167.876 44.544L169.402 39.042C169.42 38.958 169.472 38.916 169.556 38.916L170.284 38.93C170.33 38.93 170.363 38.944 170.382 38.972C170.41 39 170.419 39.0373 170.41 39.084L168.394 45.888C168.366 45.9627 168.314 46 168.24 46H167.498C167.423 46 167.372 45.9627 167.344 45.888L165.818 40.652C165.808 40.6333 165.794 40.624 165.776 40.624C165.766 40.624 165.757 40.6333 165.748 40.652L164.264 45.888C164.236 45.9627 164.184 46 164.11 46H163.354ZM171.652 48.8C171.586 48.8 171.554 48.7533 171.554 48.66V48.1C171.554 48.0067 171.6 47.96 171.694 47.96H171.75C172.114 47.9507 172.394 47.8947 172.59 47.792C172.795 47.6987 172.968 47.5167 173.108 47.246C173.257 46.9847 173.416 46.5833 173.584 46.042C173.602 46.0047 173.602 45.9767 173.584 45.958L171.218 39.07L171.204 39.014C171.204 38.9487 171.246 38.916 171.33 38.916H172.072C172.156 38.916 172.212 38.9533 172.24 39.028L174.06 44.684C174.069 44.7027 174.083 44.712 174.102 44.712C174.12 44.712 174.134 44.7027 174.144 44.684L175.936 39.028C175.964 38.9533 176.02 38.916 176.104 38.916H176.832C176.934 38.916 176.972 38.9673 176.944 39.07L174.354 46.616C174.13 47.2413 173.92 47.7033 173.724 48.002C173.528 48.3007 173.28 48.506 172.982 48.618C172.692 48.7393 172.282 48.8 171.75 48.8H171.652ZM183.626 41.268C183.664 41.5293 183.682 41.856 183.682 42.248V42.696C183.682 42.7893 183.636 42.836 183.542 42.836H179.02C178.983 42.836 178.964 42.8547 178.964 42.892C178.983 43.4053 179.011 43.7367 179.048 43.886C179.151 44.306 179.37 44.6373 179.706 44.88C180.042 45.1227 180.472 45.244 180.994 45.244C181.386 45.244 181.732 45.1553 182.03 44.978C182.329 44.8007 182.562 44.5487 182.73 44.222C182.786 44.138 182.852 44.1193 182.926 44.166L183.472 44.488C183.547 44.5347 183.566 44.6 183.528 44.684C183.295 45.132 182.945 45.4867 182.478 45.748C182.012 46 181.475 46.126 180.868 46.126C180.206 46.1167 179.65 45.958 179.202 45.65C178.754 45.342 178.432 44.9127 178.236 44.362C178.068 43.914 177.984 43.27 177.984 42.43C177.984 42.038 177.989 41.7207 177.998 41.478C178.017 41.226 178.054 41.002 178.11 40.806C178.269 40.1993 178.586 39.714 179.062 39.35C179.548 38.986 180.131 38.804 180.812 38.804C181.662 38.804 182.315 39.0187 182.772 39.448C183.23 39.8773 183.514 40.484 183.626 41.268ZM180.812 39.672C180.355 39.672 179.972 39.7933 179.664 40.036C179.366 40.2693 179.17 40.5867 179.076 40.988C179.02 41.184 178.983 41.5013 178.964 41.94C178.964 41.9773 178.983 41.996 179.02 41.996H182.646C182.684 41.996 182.702 41.9773 182.702 41.94C182.684 41.52 182.656 41.2213 182.618 41.044C182.516 40.624 182.306 40.2927 181.988 40.05C181.68 39.798 181.288 39.672 180.812 39.672ZM188.515 38.846C188.823 38.846 189.089 38.9067 189.313 39.028C189.388 39.0653 189.416 39.126 189.397 39.21L189.243 39.896C189.215 39.9893 189.154 40.0173 189.061 39.98C188.902 39.9147 188.72 39.882 188.515 39.882L188.333 39.896C187.848 39.9147 187.446 40.0967 187.129 40.442C186.812 40.778 186.653 41.2073 186.653 41.73V45.86C186.653 45.9533 186.606 46 186.513 46H185.799C185.706 46 185.659 45.9533 185.659 45.86V39.056C185.659 38.9627 185.706 38.916 185.799 38.916H186.513C186.606 38.916 186.653 38.9627 186.653 39.056V39.91C186.653 39.938 186.658 39.9567 186.667 39.966C186.686 39.966 186.7 39.9567 186.709 39.938C186.905 39.5927 187.152 39.3267 187.451 39.14C187.759 38.944 188.114 38.846 188.515 38.846Z" fill="#A5ACB5"/>
</svg>
