<svg width="41" height="34" viewBox="0 0 41 34" fill="none" xmlns="http://www.w3.org/2000/svg">
<path d="M28.9091 32V28.6667C28.9091 26.8986 28.2003 25.2029 26.9387 23.9526C25.6771 22.7024 23.966 22 22.1818 22H8.72727C6.94309 22 5.23198 22.7024 3.97037 23.9526C2.70876 25.2029 2 26.8986 2 28.6667V32" stroke="#008AFF" stroke-width="3" stroke-linecap="round" stroke-linejoin="round"/>
<path d="M15.4538 15.3333C19.1692 15.3333 22.1811 12.3486 22.1811 8.66667C22.1811 4.98477 19.1692 2 15.4538 2C11.7385 2 8.72656 4.98477 8.72656 8.66667C8.72656 12.3486 11.7385 15.3333 15.4538 15.3333Z" stroke="#008AFF" stroke-width="3" stroke-linecap="round" stroke-linejoin="round"/>
<path d="M38.9996 32.0001V28.6668C38.9984 27.1897 38.5023 25.7547 37.5891 24.5873C36.6759 23.4199 35.3973 22.5861 33.9541 22.2168" stroke="#008AFF" stroke-width="3" stroke-linecap="round" stroke-linejoin="round"/>
<path d="M27.2275 2.2168C28.6746 2.58397 29.9572 3.41796 30.8731 4.58731C31.789 5.75666 32.2862 7.19485 32.2862 8.67513C32.2862 10.1554 31.789 11.5936 30.8731 12.7629C29.9572 13.9323 28.6746 14.7663 27.2275 15.1335" stroke="#008AFF" stroke-width="3" stroke-linecap="round" stroke-linejoin="round"/>
</svg>
