<svg width="41" height="34" viewBox="0 0 41 34" fill="none" xmlns="http://www.w3.org/2000/svg">
<path d="M13.7822 25.3379L20.5056 32.0002L27.2289 25.3379" stroke="#008AFF" stroke-width="3" stroke-linecap="round" stroke-linejoin="round"/>
<path d="M20.5059 17.0098V32.0001" stroke="#008AFF" stroke-width="3" stroke-linecap="round" stroke-linejoin="round"/>
<path d="M35.4301 27.1531C36.8914 26.1349 37.9872 24.6817 38.5586 23.0044C39.1299 21.3271 39.1471 19.5131 38.6075 17.8255C38.0679 16.138 36.9997 14.6647 35.5579 13.6195C34.1161 12.5743 32.3757 12.0116 30.5893 12.0129H28.4714C27.9659 10.0607 27.02 8.24745 25.705 6.70984C24.3899 5.17222 22.74 3.95026 20.8794 3.13594C19.0188 2.32162 16.9961 1.93617 14.9634 2.00861C12.9308 2.08104 10.9412 2.60948 9.14442 3.55412C7.34767 4.49877 5.7906 5.83502 4.59042 7.46226C3.39025 9.08951 2.57824 10.9654 2.21553 12.9486C1.85282 14.9318 1.94886 16.9707 2.49643 18.9118C3.04399 20.853 4.02881 22.6457 5.37674 24.1551" stroke="#008AFF" stroke-width="3" stroke-linecap="round" stroke-linejoin="round"/>
</svg>
