<svg width="30" height="30" viewBox="0 0 30 30" fill="none" xmlns="http://www.w3.org/2000/svg">
<path d="M27.0968 8.01389H18.3871C17.8526 8.01389 17.4194 8.44714 17.4194 8.98163C17.4194 9.51613 17.8526 9.94938 18.3871 9.94938H22.3275C22.7531 12.9117 25.1023 15.2608 28.0645 15.6864V20.664C25.1022 21.0896 22.7531 23.4387 22.3275 26.401H7.6725C7.24687 23.4387 4.89774 21.0896 1.93548 20.664V15.6864C4.8978 15.2608 7.24687 12.9117 7.6725 9.94938H11.6129C12.1474 9.94938 12.5806 9.51613 12.5806 8.98163C12.5806 8.44714 12.1474 8.01389 11.6129 8.01389H2.90323C1.30234 8.01389 0 9.31623 0 10.9171V25.4332C0 27.0341 1.30234 28.3365 2.90323 28.3365H27.0968C28.6977 28.3365 30 27.0341 30 25.4332V10.9171C30 9.31623 28.6977 8.01389 27.0968 8.01389ZM24.2909 9.94938H27.0968C27.6304 9.94938 28.0645 10.3835 28.0645 10.9171V13.723C26.1714 13.3371 24.6768 11.8425 24.2909 9.94938ZM2.90323 9.94938H5.70907C5.32325 11.8425 3.82863 13.3371 1.93548 13.723V10.9171C1.93548 10.3835 2.36964 9.94938 2.90323 9.94938ZM1.93548 25.4332V22.6274C3.82863 23.0132 5.32325 24.5078 5.70907 26.401H2.90323C2.36964 26.401 1.93548 25.9668 1.93548 25.4332ZM27.0968 26.401H24.2909C24.6768 24.5078 26.1714 23.0132 28.0645 22.6274V25.4332C28.0645 25.9668 27.6304 26.401 27.0968 26.401ZM9.67742 18.1752C9.67742 21.11 12.0651 23.4978 15 23.4978C17.9349 23.4978 20.3226 21.11 20.3226 18.1752C20.3226 15.2403 17.9349 12.8526 15 12.8526C12.0651 12.8526 9.67742 15.2403 9.67742 18.1752ZM18.3871 18.1752C18.3871 20.0429 16.8677 21.5623 15 21.5623C13.1323 21.5623 11.6129 20.0429 11.6129 18.1752C11.6129 16.3075 13.1323 14.7881 15 14.7881C16.8677 14.7881 18.3871 16.3075 18.3871 18.1752ZM7.25806 17.2074C7.79256 17.2074 8.22581 17.6407 8.22581 18.1752C8.22581 18.7097 7.79256 19.1429 7.25806 19.1429H6.77419C6.2397 19.1429 5.80645 18.7097 5.80645 18.1752C5.80645 17.6407 6.2397 17.2074 6.77419 17.2074H7.25806ZM22.7419 19.1429C22.2074 19.1429 21.7742 18.7097 21.7742 18.1752C21.7742 17.6407 22.2074 17.2074 22.7419 17.2074H23.2258C23.7603 17.2074 24.1935 17.6407 24.1935 18.1752C24.1935 18.7097 23.7603 19.1429 23.2258 19.1429H22.7419ZM12.3198 5.31105C11.9418 4.93315 11.9418 4.32038 12.3198 3.94248L14.3157 1.94651C14.6936 1.56861 15.3064 1.56861 15.6843 1.94651L17.6803 3.94248C18.0582 4.32038 18.0582 4.93315 17.6803 5.31105C17.3023 5.68901 16.6896 5.68895 16.3117 5.31105L15.9677 4.96714V9.58647C15.9677 10.121 15.5345 10.5542 15 10.5542C14.4655 10.5542 14.0323 10.121 14.0323 9.58647V4.96714L13.6883 5.31111C13.3104 5.68895 12.6977 5.68895 12.3198 5.31105Z" fill="white"/>
</svg>
